<svg width="16" height="16" viewBox="0 0 16 16" fill="none" xmlns="http://www.w3.org/2000/svg">
<path d="M8.5 14.5H7.5V9H8.5V14.5Z" fill="black" style="fill:black;fill-opacity:1;"/>
<path d="M5.85352 10.8535L2.85352 13.8535L2.14648 13.1465L5.14648 10.1465L5.85352 10.8535Z" fill="black" style="fill:black;fill-opacity:1;"/>
<path d="M13.8535 13.1465L13.1465 13.8535L10.1465 10.8535L10.8535 10.1465L13.8535 13.1465Z" fill="black" style="fill:black;fill-opacity:1;"/>
<path d="M7 8.5H1.5V7.5H7V8.5Z" fill="black" style="fill:black;fill-opacity:1;"/>
<path d="M14.5 8.5H9V7.5H14.5V8.5Z" fill="black" style="fill:black;fill-opacity:1;"/>
<path d="M8.5 7H7.5V1.5H8.5V7Z" fill="black" style="fill:black;fill-opacity:1;"/>
<path d="M5.85352 5.14648L5.14648 5.85352L2.14648 2.85352L2.85352 2.14648L5.85352 5.14648Z" fill="black" style="fill:black;fill-opacity:1;"/>
<path d="M13.8535 2.85352L10.8535 5.85352L10.1465 5.14648L13.1465 2.14648L13.8535 2.85352Z" fill="black" style="fill:black;fill-opacity:1;"/>
</svg>
