<svg width="16" height="16" viewBox="0 0 16 16" fill="none" xmlns="http://www.w3.org/2000/svg">
<path fill-rule="evenodd" clip-rule="evenodd" d="M8.69503 10L7.1943 6H6.50073L5 10H5.75336L5.9985 9.31429H7.69654L7.94168 10H8.69503ZM6.84154 6.98857H6.8535L7.46933 8.68571H6.2257L6.84154 6.98857Z" fill="black" style="fill:black;fill-opacity:1;"/>
<path d="M10 10V6H9.25262V10H10Z" fill="black" style="fill:black;fill-opacity:1;"/>
<path fill-rule="evenodd" clip-rule="evenodd" d="M11 15V14H8.5V15H7.5V14H5L5 15H4L4 14H3.5C2.67157 14 2 13.3284 2 12.5V12H1V11H2V8.5H1V7.5H2V5H1V4H2V3.5C2 2.67157 2.67157 2 3.5 2H4V1H5V2H7.5V1H8.5V2H11V1H12V2H12.5C13.3284 2 14 2.67157 14 3.5V4H15V5H14V7.5H15V8.5H14V11H15V12H14V12.5C14 13.3284 13.3284 14 12.5 14H12V15H11ZM3.5 3C3.22386 3 3 3.22386 3 3.5V12.5C3 12.7761 3.22386 13 3.5 13H12.5C12.7761 13 13 12.7761 13 12.5V3.5C13 3.22386 12.7761 3 12.5 3H3.5Z" fill="black" style="fill:black;fill-opacity:1;"/>
</svg>
