<svg width="16" height="16" viewBox="0 0 16 16" fill="none" xmlns="http://www.w3.org/2000/svg">
<path fill-rule="evenodd" clip-rule="evenodd" d="M4.5 6.5C5.32843 6.5 6 7.17157 6 8C6 8.82843 5.32843 9.5 4.5 9.5C3.67157 9.5 3 8.82843 3 8C3 7.17157 3.67157 6.5 4.5 6.5ZM4.5 7.5C4.22386 7.5 4 7.72386 4 8C4 8.27614 4.22386 8.5 4.5 8.5C4.77614 8.5 5 8.27614 5 8C5 7.72386 4.77614 7.5 4.5 7.5Z" fill="black" style="fill:black;fill-opacity:1;"/>
<path fill-rule="evenodd" clip-rule="evenodd" d="M11.5557 4.5C12.2542 4.5 12.9435 4.6622 13.5684 4.97461L14.7236 5.55273L15 5.69141V10.3086L14.7236 10.4473L13.5684 11.0254C12.9435 11.3378 12.2542 11.5 11.5557 11.5H4.44434C3.74575 11.5 3.05648 11.3378 2.43164 11.0254L1.27637 10.4473L1 10.3086V5.69141L1.27637 5.55273L2.43164 4.97461C3.05648 4.6622 3.74575 4.5 4.44434 4.5H11.5557ZM4.44434 5.5C3.901 5.5 3.36489 5.62616 2.87891 5.86914L2 6.30859V9.69043L2.87891 10.1309C3.36489 10.3738 3.901 10.5 4.44434 10.5H9.5V5.5H4.44434ZM10.5 9.5V10.5H11.5557C11.7047 10.5 11.853 10.4895 12 10.4707V9.5H10.5ZM13 10.1865C13.0404 10.1682 13.0813 10.1508 13.1211 10.1309L14 9.69043V6.30859L13.1211 5.86914C13.0812 5.84919 13.0406 5.83087 13 5.8125V10.1865ZM10.5 8.5H12V5.52832C11.853 5.50955 11.7046 5.5 11.5557 5.5H10.5V8.5Z" fill="black" style="fill:black;fill-opacity:1;"/>
</svg>
