<svg width="16" height="16" viewBox="0 0 16 16" fill="none" xmlns="http://www.w3.org/2000/svg">
<path fill-rule="evenodd" clip-rule="evenodd" d="M11 1H12C12 1.41999 12.1301 2.06111 12.5058 2.58285C12.8631 3.0791 13.463 3.5 14.5 3.5V4.5C13.463 4.5 12.8631 4.9209 12.5058 5.41715C12.1301 5.9389 12 6.58001 12 7L11 7C11 6.58001 10.8699 5.9389 10.4942 5.41715C10.1369 4.9209 9.53704 4.5 8.5 4.5V3.5C9.53704 3.5 10.1369 3.0791 10.4942 2.58285C10.8699 2.0611 11 1.41999 11 1ZM11.5 2.86467C11.4415 2.96722 11.3769 3.06839 11.3058 3.16715C11.076 3.48632 10.7821 3.77417 10.4161 4C10.7821 4.22583 11.076 4.51368 11.3058 4.83285C11.3769 4.93161 11.4415 5.03278 11.5 5.13533C11.5585 5.03278 11.6231 4.93161 11.6942 4.83285C11.924 4.51368 12.2179 4.22583 12.5839 4C12.2179 3.77417 11.924 3.48632 11.6942 3.16716C11.6231 3.06839 11.5585 2.96722 11.5 2.86467Z" fill="black" style="fill:black;fill-opacity:1;"/>
<path fill-rule="evenodd" clip-rule="evenodd" d="M5 3.50001C5 4.17 4.79489 5.18611 4.19423 6.02035C3.61193 6.8291 2.63704 7.5 1 7.5V8.5C2.63704 8.5 3.61193 9.1709 4.19423 9.97965C4.79489 10.8139 5 11.83 5 12.5H6C6 11.83 6.20511 10.8139 6.80577 9.97965C7.38807 9.1709 8.36296 8.5 10 8.5V7.5C8.36296 7.5 7.38807 6.8291 6.80577 6.02035C6.20511 5.18611 6 4.17 6 3.50001L5 3.50001ZM5.5 5.74779C5.36745 6.03956 5.20432 6.32889 5.00577 6.60465C4.6036 7.16322 4.06219 7.6567 3.35559 8C4.06219 8.3433 4.6036 8.83678 5.00577 9.39535C5.20432 9.67111 5.36745 9.96044 5.5 10.2522C5.63255 9.96044 5.79568 9.67111 5.99423 9.39535C6.3964 8.83679 6.93781 8.3433 7.64441 8C6.93781 7.6567 6.3964 7.16322 5.99423 6.60466C5.79568 6.32889 5.63255 6.03957 5.5 5.74779Z" fill="black" style="fill:black;fill-opacity:1;"/>
<path fill-rule="evenodd" clip-rule="evenodd" d="M9.59423 11.2703C9.89489 10.8528 10 10.3367 10 10H11C11 10.3367 11.1051 10.8528 11.4058 11.2704C11.6881 11.6624 12.163 12 13 12V13C12.163 13 11.6881 13.3376 11.4058 13.7297C11.1051 14.1472 11 14.6633 11 15H10C10 14.6633 9.89489 14.1472 9.59423 13.7297C9.31193 13.3376 8.83704 13 8 13V12C8.83704 12 9.31193 11.6624 9.59423 11.2703ZM11.2507 12.5C10.9862 12.3182 10.7688 12.0971 10.5942 11.8547C10.5612 11.8088 10.5298 11.7623 10.5 11.7154C10.4702 11.7623 10.4388 11.8088 10.4058 11.8547C10.2312 12.0971 10.0138 12.3182 9.74933 12.5C10.0138 12.6818 10.2312 12.9029 10.4058 13.1453C10.4388 13.1912 10.4702 13.2377 10.5 13.2846C10.5298 13.2377 10.5612 13.1912 10.5942 13.1453C10.7688 12.9029 10.9862 12.6818 11.2507 12.5Z" fill="black" style="fill:black;fill-opacity:1;"/>
</svg>
