<svg width="16" height="16" viewBox="0 0 16 16" fill="none" xmlns="http://www.w3.org/2000/svg">
<path fill-rule="evenodd" clip-rule="evenodd" d="M3.2549 3.56418C3.49558 3.4288 3.80043 3.51416 3.93582 3.75484L5.23829 6.07035C6.08602 5.70324 7.01956 5.5 8 5.5C8.98046 5.5 9.91401 5.70324 10.7618 6.07037L12.0642 3.75484C12.1996 3.51416 12.5045 3.4288 12.7452 3.56418C12.9858 3.69956 13.0712 4.00442 12.9358 4.2451L11.6489 6.53292C13.5121 7.68108 14.8056 9.68202 15 12H1C1.19444 9.682 2.48797 7.68105 4.35112 6.53289L3.06424 4.2451C2.92886 4.00442 3.01422 3.69956 3.2549 3.56418ZM5.75 9.5C5.75 9.91421 5.41421 10.25 5 10.25C4.58579 10.25 4.25 9.91421 4.25 9.5C4.25 9.08579 4.58579 8.75 5 8.75C5.41421 8.75 5.75 9.08579 5.75 9.5ZM11.75 9.5C11.75 9.91421 11.4142 10.25 11 10.25C10.5858 10.25 10.25 9.91421 10.25 9.5C10.25 9.08579 10.5858 8.75 11 8.75C11.4142 8.75 11.75 9.08579 11.75 9.5Z" fill="black" style="fill:black;fill-opacity:1;"/>
</svg>
