<svg width="16" height="16" viewBox="0 0 16 16" fill="none" xmlns="http://www.w3.org/2000/svg">
<path fill-rule="evenodd" clip-rule="evenodd" d="M3.65242 11.6405L1.14648 14.1465L1.85359 14.8536L14.8536 1.85359L14.1465 1.14648L11.6416 3.65141L10.6366 2.64648L9.92953 3.35359L10.9345 4.35852L9.29293 6.00004H2V7.00004L8.29295 7.00002L6.29293 9.00004H2V9.98812L3.65242 11.6405ZM4.35953 10.9334L5.29293 10H3.42613L4.35953 10.9334Z" fill="black" style="fill:black;fill-opacity:1;"/>
<path d="M12.576 6.00004L12.3486 5.77267L13.0557 5.06556L14 6.00985V7L11.1213 7.00001L12.1212 6.00004H12.576Z" fill="black" style="fill:black;fill-opacity:1;"/>
<path d="M14 10L8.12123 10L9.12123 9.00004H14V10Z" fill="black" style="fill:black;fill-opacity:1;"/>
</svg>
