<svg width="16" height="16" viewBox="0 0 16 16" fill="none" xmlns="http://www.w3.org/2000/svg">
<path fill-rule="evenodd" clip-rule="evenodd" d="M5 2H7.29972L8 2.70027V5H7V3.70749L3.60398 7.10355C3.1089 7.59864 3.10889 8.40133 3.60398 8.89643C4.09907 9.39153 4.90179 9.39154 5.39689 8.89644L9.39687 4.89646C10.2825 4.01084 11.7184 4.01084 12.604 4.89646C13.4896 5.78207 13.4896 7.21794 12.604 8.10356L8.85398 11.8536C8.94762 12.0493 9 12.2685 9 12.5C9 13.3284 8.32842 14 7.5 14C6.67157 14 6 13.3284 6 12.5C6 11.6716 6.67157 11 7.5 11C7.73169 11 7.95111 11.0525 8.147 11.1463L11.8969 7.39646C12.392 6.90136 12.392 6.09866 11.8969 5.60356C11.4018 5.10847 10.5991 5.10847 10.104 5.60357L6.10399 9.60355C5.21837 10.4892 3.78248 10.4892 2.89686 9.60353C2.01126 8.71791 2.01127 7.28206 2.89687 6.39644L6.29327 3H5V2ZM7.5 12C7.22385 12 7 12.2239 7 12.5C7 12.7761 7.22385 13 7.5 13C7.77614 13 8 12.7761 8 12.5C8 12.2239 7.77614 12 7.5 12Z" fill="black" style="fill:black;fill-opacity:1;"/>
</svg>
