<svg width="16" height="16" viewBox="0 0 16 16" fill="none" xmlns="http://www.w3.org/2000/svg">
<path fill-rule="evenodd" clip-rule="evenodd" d="M6.00002 4H10V10H6.00002V4ZM7.00002 5V9H9.00002V5H7.00002Z" fill="black" style="fill:black;fill-opacity:1;"/>
<path d="M7 12H9V11H7V12Z" fill="black" style="fill:black;fill-opacity:1;"/>
<path fill-rule="evenodd" clip-rule="evenodd" d="M6 1V2H5.5C4.67157 2 4 2.67157 4 3.5L4 12.5C4 13.3284 4.67157 14 5.5 14H6V15H10V14H10.5C11.3284 14 12 13.3284 12 12.5V3.5C12 2.67157 11.3284 2 10.5 2H10V1H6ZM5.5 3C5.22386 3 5 3.22386 5 3.5L5 12.5C5 12.7761 5.22386 13 5.5 13H10.5C10.7761 13 11 12.7761 11 12.5V3.5C11 3.22386 10.7761 3 10.5 3H5.5Z" fill="black" style="fill:black;fill-opacity:1;"/>
</svg>
