<svg width="16" height="16" viewBox="0 0 16 16" fill="none" xmlns="http://www.w3.org/2000/svg">
<path d="M8.5 14.5H7.5V11.5H8.5V14.5Z" fill="black" style="fill:black;fill-opacity:1;"/>
<path fill-rule="evenodd" clip-rule="evenodd" d="M13.416 3.27734L9.41602 9.27734L9.27734 9.41602L3.27734 13.416L2.58398 12.7227L6.58398 6.72363L6.72266 6.58398L12.7227 2.58398L13.416 3.27734ZM4.80273 11.1982L8.21582 8.92285L7.07812 7.78418L4.80273 11.1982Z" fill="black" style="fill:black;fill-opacity:1;"/>
<path d="M12.9609 12.2461L12.2539 12.9531L10.1328 10.832L10.8398 10.125L12.9609 12.2461Z" fill="black" style="fill:black;fill-opacity:1;"/>
<path d="M4.50488 8.50488H1.50488V7.50488H4.50488V8.50488Z" fill="black" style="fill:black;fill-opacity:1;"/>
<path d="M14.5049 8.50488H11.5049V7.50488H14.5049V8.50488Z" fill="black" style="fill:black;fill-opacity:1;"/>
<path d="M5.89062 5.1748L5.18262 5.88184L3.06152 3.76074L3.76855 3.05371L5.89062 5.1748Z" fill="black" style="fill:black;fill-opacity:1;"/>
<path d="M8.5 4.5H7.5V1.5H8.5V4.5Z" fill="black" style="fill:black;fill-opacity:1;"/>
</svg>
