<svg width="16" height="16" viewBox="0 0 16 16" fill="none" xmlns="http://www.w3.org/2000/svg">
<path fill-rule="evenodd" clip-rule="evenodd" d="M3 8C3 5.23858 5.23858 3 8 3C10.7614 3 13 5.23858 13 8C13 8.42661 12.9467 8.84006 12.8466 9.23434C12.7339 9.67825 12.2703 10 11.6765 10H11.5C11.2239 10 11 9.77614 11 9.5V5H10V5.76389C9.46924 5.28885 8.76835 5 8 5C6.34315 5 5 6.34315 5 8C5 9.65685 6.34315 11 8 11C8.83299 11 9.58668 10.6605 10.1303 10.1123C10.3645 10.6355 10.8897 11 11.5 11H11.6765C12.585 11 13.559 10.4925 13.8159 9.48036C13.9362 9.00633 14 8.51026 14 8C14 4.68629 11.3137 2 8 2C4.68629 2 2 4.68629 2 8C2 11.3137 4.68629 14 8 14C9.20667 14 10.3315 13.6433 11.2731 13.0294L10.7269 12.1917C9.94289 12.7029 9.00691 13 8 13C5.23858 13 3 10.7614 3 8ZM10 8C10 6.89543 9.10457 6 8 6C6.89543 6 6 6.89543 6 8C6 9.10457 6.89543 10 8 10C9.10457 10 10 9.10457 10 8Z" fill="black" style="fill:black;fill-opacity:1;"/>
</svg>
