<svg width="16" height="16" viewBox="0 0 16 16" fill="none" xmlns="http://www.w3.org/2000/svg">
<path d="M5 6C5.52506 6 6.03551 6.11782 6.49757 6.33657L6.6 6.2C6.77319 5.96908 6.96282 5.75401 7.16661 5.55592C6.51131 5.19596 5.7678 5 5 5H1.5V8H5C5.15738 8 5.30557 7.9259 5.4 7.8L5.88001 7.15999C5.60216 7.05548 5.30452 7 5 7H2.5V6H5Z" fill="black" style="fill:black;fill-opacity:1;"/>
<path d="M8.83339 11.4441C9.03718 11.246 9.22681 11.0309 9.4 10.8L9.50243 10.6634C9.96449 10.8822 10.4749 11 11 11H12.5V10H11C10.6955 10 10.3978 9.94452 10.12 9.84001L10.6 9.2C10.6944 9.0741 10.8426 9 11 9H13.5V10H14.5V11H13.5V12H11C10.2322 12 9.48869 11.804 8.83339 11.4441Z" fill="black" style="fill:black;fill-opacity:1;"/>
<path fill-rule="evenodd" clip-rule="evenodd" d="M2.5 9V12H5C6.41641 12 7.75016 11.3331 8.6 10.2L9.8 8.6C10.0833 8.22229 10.5279 8 11 8H12.5V7H13.5V6H12.5V5H11C9.58359 5 8.24984 5.66687 7.4 6.8L6.2 8.4C5.91672 8.77771 5.47214 9 5 9H2.5ZM3.5 10H5C5.78689 10 6.52786 9.62951 7 9L8.2 7.4C8.86099 6.51868 9.89835 6 11 6H11.5V7H11C10.2131 7 9.47214 7.37048 9 8L7.8 9.6C7.13901 10.4813 6.10165 11 5 11H3.5V10Z" fill="black" style="fill:black;fill-opacity:1;"/>
</svg>
