<svg width="16" height="16" viewBox="0 0 16 16" fill="none" xmlns="http://www.w3.org/2000/svg">
<path d="M5 5C5.7678 5 6.51131 5.19596 7.16661 5.55592C6.96282 5.75401 6.77319 5.96908 6.6 6.2L5.4 7.8C5.30557 7.9259 5.15738 8 5 8H1.5V5H5Z" fill="black" style="fill:black;fill-opacity:1;"/>
<path d="M8.83339 11.4441C9.03718 11.246 9.22681 11.0309 9.4 10.8L10.6 9.2C10.6944 9.0741 10.8426 9 11 9H13.5V10H14.5V11H13.5V12H11C10.2322 12 9.48869 11.804 8.83339 11.4441Z" fill="black" style="fill:black;fill-opacity:1;"/>
<path d="M2.5 9V12H5C6.41641 12 7.75016 11.3331 8.6 10.2L9.8 8.6C10.0833 8.22229 10.5279 8 11 8H12.5V7H13.5V6H12.5V5H11C9.58359 5 8.24984 5.66687 7.4 6.8L6.2 8.4C5.91672 8.77771 5.47214 9 5 9H2.5Z" fill="black" style="fill:black;fill-opacity:1;"/>
</svg>
