<svg width="16" height="16" viewBox="0 0 16 16" fill="none" xmlns="http://www.w3.org/2000/svg">
<path fill-rule="evenodd" clip-rule="evenodd" d="M8 9C9.38071 9 10.5 7.88071 10.5 6.5C10.5 5.11929 9.38071 4 8 4C6.61929 4 5.5 5.11929 5.5 6.5C5.5 7.88071 6.61929 9 8 9ZM8 8C8.82843 8 9.5 7.32843 9.5 6.5C9.5 5.67157 8.82843 5 8 5C7.17157 5 6.5 5.67157 6.5 6.5C6.5 7.32843 7.17157 8 8 8Z" fill="black" style="fill:black;fill-opacity:1;"/>
<path fill-rule="evenodd" clip-rule="evenodd" d="M8 2C4.68629 2 2 4.68629 2 8C2 11.3137 4.68629 14 8 14C11.3137 14 14 11.3137 14 8C14 4.68629 11.3137 2 8 2ZM3 8C3 5.23858 5.23858 3 8 3C10.7614 3 13 5.23858 13 8C13 9.22036 12.5628 10.3386 11.8365 11.2067C11.5294 10.4967 10.8227 10 10 10H6C5.1773 10 4.47062 10.4967 4.16352 11.2067C3.4372 10.3386 3 9.22036 3 8ZM5 12.0004C5.83566 12.6281 6.87439 13 8 13C9.12561 13 10.1643 12.6281 11 12.0004C11 11.4481 10.5523 11 10 11H6C5.44772 11 5 11.4481 5 12.0004Z" fill="black" style="fill:black;fill-opacity:1;"/>
</svg>
