<svg width="16" height="16" viewBox="0 0 16 16" fill="none" xmlns="http://www.w3.org/2000/svg">
<path d="M9.1499 10.3535L7.50346 8.70708L5.85701 10.3535L5.1499 9.64642L6.79635 7.99998L5.1499 6.35353L5.85701 5.64642L7.50346 7.29287L9.1499 5.64642L9.85701 6.35353L8.21056 7.99998L9.85701 9.64642L9.1499 10.3535Z" fill="black" style="fill:black;fill-opacity:1;"/>
<path fill-rule="evenodd" clip-rule="evenodd" d="M2.5 3C1.67157 3 1 3.67157 1 4.5V11.5C1 12.3284 1.67157 13 2.5 13H12.5C13.3284 13 14 12.3284 14 11.5V10H15V6H14V4.5C14 3.67157 13.3284 3 12.5 3H2.5ZM2 4.5C2 4.22386 2.22386 4 2.5 4H12.5C12.7761 4 13 4.22386 13 4.5V11.5C13 11.7761 12.7761 12 12.5 12H2.5C2.22386 12 2 11.7761 2 11.5V4.5Z" fill="black" style="fill:black;fill-opacity:1;"/>
</svg>
