<svg width="16" height="16" viewBox="0 0 16 16" fill="none" xmlns="http://www.w3.org/2000/svg">
<path d="M12 5H3V11H12V5Z" fill="black" style="fill:black;fill-opacity:1;"/>
<path fill-rule="evenodd" clip-rule="evenodd" d="M1 4.5C1 3.67157 1.67157 3 2.5 3H12.5C13.3284 3 14 3.67157 14 4.5V6H15V10H14V11.5C14 12.3284 13.3284 13 12.5 13H2.5C1.67157 13 1 12.3284 1 11.5V4.5ZM2.5 4C2.22386 4 2 4.22386 2 4.5V11.5C2 11.7761 2.22386 12 2.5 12H12.5C12.7761 12 13 11.7761 13 11.5V4.5C13 4.22386 12.7761 4 12.5 4H2.5Z" fill="black" style="fill:black;fill-opacity:1;"/>
</svg>
