<svg width="16" height="16" viewBox="0 0 16 16" fill="none" xmlns="http://www.w3.org/2000/svg">
<path d="M3.5 7.00468V7.99521L6.27525 8.70711L4.73025 14H5.70144L11.5 7.98863V7.01281L8.98355 6.32697L10.2347 1.99999L9.24451 1.99963L3.5 7.00468Z" fill="black" style="fill:black;fill-opacity:1;"/>
<path d="M2.5 12H4.27232L3.98042 13H2.5C1.67157 13 1 12.3284 1 11.5V4.5C1 3.67157 1.67157 3 2.5 3H6.57409L5.42635 4H2.5C2.22386 4 2 4.22386 2 4.5V11.5C2 11.7761 2.22386 12 2.5 12Z" fill="black" style="fill:black;fill-opacity:1;"/>
<path d="M8.05546 13L9.02006 12H12.5C12.7761 12 13 11.7761 13 11.5V4.5C13 4.22386 12.7761 4 12.5 4H10.6973L10.9865 3H12.5C13.3284 3 14 3.67157 14 4.5V6H15V10H14V11.5C14 12.3284 13.3284 13 12.5 13H8.05546Z" fill="black" style="fill:black;fill-opacity:1;"/>
</svg>
