<svg width="16" height="16" viewBox="0 0 16 16" fill="none" xmlns="http://www.w3.org/2000/svg">
<path d="M7.5 8V4H8.5V8H7.5Z" fill="black" style="fill:black;fill-opacity:1;"/>
<path d="M7.5 10V9H8.5V10H7.5Z" fill="black" style="fill:black;fill-opacity:1;"/>
<path fill-rule="evenodd" clip-rule="evenodd" d="M2.49998 7.5C2.49998 4.46243 4.9624 2 7.99997 2C11.0375 2 13.5 4.46243 13.5 7.5L13.5 8.38197L14.6084 10.5987L13.2071 12H10.45C10.2184 13.1411 9.20948 14 8 14C6.79052 14 5.78164 13.1411 5.55001 12H2.79288L1.3916 10.5987L2.49998 8.38197V7.5ZM8 13C7.34689 13 6.79127 12.5826 6.58535 12H9.41465C9.20873 12.5826 8.65311 13 8 13ZM3.49997 7.5C3.49997 5.01472 5.51469 3 7.99997 3C10.4853 3 12.5 5.01472 12.5 7.5L12.5 8.61803L13.3916 10.4013L12.7929 11H3.20709L2.60836 10.4013L3.49998 8.61803L3.49997 7.5Z" fill="black" style="fill:black;fill-opacity:1;"/>
</svg>
