<svg width="16" height="16" viewBox="0 0 16 16" fill="none" xmlns="http://www.w3.org/2000/svg">
<path fill-rule="evenodd" clip-rule="evenodd" d="M7.99997 2C4.9624 2 2.49998 4.46243 2.49998 7.5V8.38197L1.3916 10.5987L2.79288 12H5.55001C5.78164 13.1411 6.79052 14 8 14C9.20948 14 10.2184 13.1411 10.45 12H13.2071L14.6084 10.5987L13.5 8.38197L13.5 8H12.5L12.5 8.61803L13.3916 10.4013L12.7929 11H3.20709L2.60836 10.4013L3.49998 8.61803L3.49997 7.5C3.49997 5.01472 5.51469 3 7.99997 3V2ZM8 13C8.65311 13 9.20873 12.5826 9.41465 12H6.58535C6.79127 12.5826 7.34689 13 8 13Z" fill="black" style="fill:black;fill-opacity:1;"/>
<path fill-rule="evenodd" clip-rule="evenodd" d="M9 4.5C9 3.11929 10.1193 2 11.5 2C12.8807 2 14 3.11929 14 4.5C14 5.88071 12.8807 7 11.5 7C10.1193 7 9 5.88071 9 4.5ZM11.5 3C10.6716 3 10 3.67157 10 4.5C10 5.32843 10.6716 6 11.5 6C12.3284 6 13 5.32843 13 4.5C13 3.67157 12.3284 3 11.5 3Z" fill="black" style="fill:black;fill-opacity:1;"/>
</svg>
