<svg width="16" height="16" viewBox="0 0 16 16" fill="none" xmlns="http://www.w3.org/2000/svg">
<path d="M7.5 8V4H8.5V8H7.5Z" fill="black" style="fill:black;fill-opacity:1;"/>
<path d="M7.5 10V9H8.5V10H7.5Z" fill="black" style="fill:black;fill-opacity:1;"/>
<path d="M7 12C7 12.5523 7.44772 13 8 13C8.55228 13 9 12.5523 9 12H7ZM11.5 6.5C11.5 4.567 9.933 3 8 3C6.067 3 4.5 4.567 4.5 6.5V8.70703L3.20703 10L4.20703 11H11.793L12.793 10L11.5 8.70703V6.5ZM12.5 8.29297L13.8535 9.64648V10.3535L12.207 12H10C10 13.1046 9.10457 14 8 14C6.89543 14 6 13.1046 6 12H3.79297L2.14648 10.3535V9.64648L3.5 8.29297V6.5C3.5 4.01472 5.51472 2 8 2C10.4853 2 12.5 4.01472 12.5 6.5V8.29297Z" fill="black" style="fill:black;fill-opacity:1;"/>
</svg>
