<svg width="16" height="16" viewBox="0 0 16 16" fill="none" xmlns="http://www.w3.org/2000/svg">
<path d="M9 2C11.7614 2 14 4.23858 14 7H15C15 3.68629 12.3137 1 9 1V2Z" fill="black" style="fill:black;fill-opacity:1;"/>
<path d="M9 4C10.6569 4 12 5.34315 12 7H13C13 4.79086 11.2091 3 9 3V4Z" fill="black" style="fill:black;fill-opacity:1;"/>
<path d="M9 6C9.55229 6 10 6.44772 10 7H11C11 5.89543 10.1046 5 9 5V6Z" fill="black" style="fill:black;fill-opacity:1;"/>
<path fill-rule="evenodd" clip-rule="evenodd" d="M2.49998 7.5C2.49998 4.46243 4.9624 2 7.99997 2V3C5.51469 3 3.49997 5.01472 3.49997 7.5L3.49998 8.61803L2.60836 10.4013L3.20709 11H12.7929L13.3916 10.4013L12.5 8.61803L12.5 8H13.5L13.5 8.38197L14.6084 10.5987L13.2071 12H10.45C10.2184 13.1411 9.20948 14 8 14C6.79052 14 5.78164 13.1411 5.55001 12H2.79288L1.3916 10.5987L2.49998 8.38197V7.5ZM9.41465 12C9.20873 12.5826 8.65311 13 8 13C7.34689 13 6.79127 12.5826 6.58535 12H9.41465Z" fill="black" style="fill:black;fill-opacity:1;"/>
</svg>
