<svg width="16" height="16" viewBox="0 0 16 16" fill="none" xmlns="http://www.w3.org/2000/svg">
<path fill-rule="evenodd" clip-rule="evenodd" d="M8 3C6.067 3 4.5 4.567 4.5 6.5V8.70703L3.20703 10L4.20703 11H11.793L12.793 10L11.5 8.70703V8H12.5V8.29297L13.8535 9.64648V10.3535L12.207 12H10C10 13.1046 9.10457 14 8 14C6.89543 14 6 13.1046 6 12H3.79297L2.14648 10.3535V9.64648L3.5 8.29297V6.5C3.5 4.01472 5.51472 2 8 2V3ZM7 12C7 12.5523 7.44772 13 8 13C8.55228 13 9 12.5523 9 12H7Z" fill="black" style="fill:black;fill-opacity:1;"/>
<path d="M9 2C11.7614 2 14 4.23858 14 7H15C15 3.68629 12.3137 1 9 1V2Z" fill="black" style="fill:black;fill-opacity:1;"/>
<path d="M9 4C10.6569 4 12 5.34315 12 7H13C13 4.79086 11.2091 3 9 3V4Z" fill="black" style="fill:black;fill-opacity:1;"/>
<path d="M9 6C9.55229 6 10 6.44772 10 7H11C11 5.89543 10.1046 5 9 5V6Z" fill="black" style="fill:black;fill-opacity:1;"/>
</svg>
