<svg width="16" height="16" viewBox="0 0 16 16" fill="none" xmlns="http://www.w3.org/2000/svg">
<path fill-rule="evenodd" clip-rule="evenodd" d="M7.99997 2C4.9624 2 2.49998 4.46243 2.49998 7.5V8.38197L1.3916 10.5987L2.79288 12H5.55001C5.78164 13.1411 6.79052 14 8 14C9.20948 14 10.2184 13.1411 10.45 12H13.2071L14.6084 10.5987L13.5 8.38197L13.5 7.5C13.5 4.46243 11.0375 2 7.99997 2ZM9.41465 12H6.58535C6.79127 12.5826 7.34689 13 8 13C8.65311 13 9.20873 12.5826 9.41465 12ZM7.99997 3C5.51469 3 3.49997 5.01472 3.49997 7.5L3.49998 8.61803L2.60836 10.4013L3.20709 11H12.7929L13.3916 10.4013L12.5 8.61803L12.5 7.5C12.5 5.01472 10.4853 3 7.99997 3Z" fill="black" style="fill:black;fill-opacity:1;"/>
</svg>
