<svg width="16" height="16" viewBox="0 0 16 16" fill="none" xmlns="http://www.w3.org/2000/svg">
<path fill-rule="evenodd" clip-rule="evenodd" d="M8 3C6.067 3 4.5 4.567 4.5 6.5V8.70703L3.20703 10L4.20703 11H11.793L12.793 10L11.5 8.70703V8H12.5V8.29297L13.8535 9.64648V10.3535L12.207 12H10C10 13.1046 9.10457 14 8 14C6.89543 14 6 13.1046 6 12H3.79297L2.14648 10.3535V9.64648L3.5 8.29297V6.5C3.5 4.01472 5.51472 2 8 2V3ZM7 12C7 12.5523 7.44772 13 8 13C8.55228 13 9 12.5523 9 12H7Z" fill="black" style="fill:black;fill-opacity:1;"/>
<path fill-rule="evenodd" clip-rule="evenodd" d="M11.5 2C12.8807 2 14 3.11929 14 4.5C14 5.88071 12.8807 7 11.5 7C10.1193 7 9 5.88071 9 4.5C9 3.11929 10.1193 2 11.5 2ZM11.5 3C10.6716 3 10 3.67157 10 4.5C10 5.32843 10.6716 6 11.5 6C12.3284 6 13 5.32843 13 4.5C13 3.67157 12.3284 3 11.5 3Z" fill="black" style="fill:black;fill-opacity:1;"/>
</svg>
