<svg width="16" height="16" viewBox="0 0 16 16" fill="none" xmlns="http://www.w3.org/2000/svg">
<path fill-rule="evenodd" clip-rule="evenodd" d="M3.5 2C2.67157 2 2 2.67157 2 3.5V12.5C2 13.3284 2.67157 14 3.5 14H12.5C13.3284 14 14 13.3284 14 12.5V3.5C14 2.67157 13.3284 2 12.5 2H3.5ZM3 3.70715V12.2928L7.29285 8L3 3.70715ZM3.70706 13H12.2928L7.99995 8.70711L3.70706 13ZM13 12.2929V3.70706L8.70706 8L13 12.2929ZM12.2928 3H3.70706L7.99995 7.29289L12.2928 3Z" fill="black" style="fill:black;fill-opacity:1;"/>
</svg>
