<svg width="16" height="16" viewBox="0 0 16 16" fill="none" xmlns="http://www.w3.org/2000/svg">
<path fill-rule="evenodd" clip-rule="evenodd" d="M6.5 6C5.67157 6 5 6.67157 5 7.5C5 8.32843 5.67157 9 6.5 9H9.5C10.3284 9 11 8.32843 11 7.5C11 6.67157 10.3284 6 9.5 6H6.5ZM6 7.5C6 7.22386 6.22386 7 6.5 7H9.5C9.77614 7 10 7.22386 10 7.5C10 7.77614 9.77614 8 9.5 8H6.5C6.22386 8 6 7.77614 6 7.5Z" fill="black" style="fill:black;fill-opacity:1;"/>
<path fill-rule="evenodd" clip-rule="evenodd" d="M2 2H14V5H13V14H3V5H2V2ZM4 5H12V13H4V5ZM3 3V4H13V3H3Z" fill="black" style="fill:black;fill-opacity:1;"/>
</svg>
