<svg width="16" height="16" viewBox="0 0 16 16" fill="none" xmlns="http://www.w3.org/2000/svg">
<path d="M6 3H5C4.17157 3 3.5 3.67157 3.5 4.5V6C3.5 6.81955 3.10345 7.54407 2.49414 8C3.10345 8.45593 3.5 9.18045 3.5 10V11.5C3.5 12.3284 4.17157 13 5 13H6V14H5C3.61929 14 2.5 12.8807 2.5 11.5V10C2.5 9.17157 1.82843 8.5 1 8.5V7.5C1.82843 7.5 2.5 6.82843 2.5 6V4.5C2.5 3.11929 3.61929 2 5 2H6V3Z" fill="black" style="fill:black;fill-opacity:1;"/>
<path d="M11 2C12.3807 2 13.5 3.11929 13.5 4.5V6C13.5 6.82843 14.1716 7.5 15 7.5V8.5C14.1716 8.5 13.5 9.17157 13.5 10V11.5C13.5 12.8807 12.3807 14 11 14H10V13H11C11.8284 13 12.5 12.3284 12.5 11.5V10C12.5 9.18073 12.8959 8.45596 13.5049 8C12.8959 7.54404 12.5 6.81927 12.5 6V4.5C12.5 3.67157 11.8284 3 11 3H10V2H11Z" fill="black" style="fill:black;fill-opacity:1;"/>
</svg>
