<svg width="16" height="16" viewBox="0 0 16 16" fill="none" xmlns="http://www.w3.org/2000/svg">
<path fill-rule="evenodd" clip-rule="evenodd" d="M8 3.5C7.17157 3.5 6.5 2.82843 6.5 2H5.5C5.5 2.74016 5.82165 3.4052 6.33281 3.86295C5.50391 4.24354 4.82751 4.89915 4.42045 5.71294C4.15098 5.43361 4.00002 5.06035 4.00002 4.67154V3.99996H3.00002V4.67154C3.00002 5.33458 3.26342 5.97046 3.73226 6.4393L4.06594 6.77298C4.02265 7.00874 4.00003 7.25173 4.00003 7.5V8.5H2.5V9.5H4.00003V10C4.00003 10.3927 4.05663 10.7723 4.16212 11.1308L3.73225 11.5607C3.2634 12.0295 3 12.6654 3 13.3285V14H4V13.3285C4 12.9306 4.15804 12.5491 4.43935 12.2678L4.59963 12.1075C5.30524 13.2436 6.5643 14 8.00003 14C9.43575 14 10.6948 13.2436 11.4004 12.1076L11.5607 12.2678C11.842 12.5491 12 12.9306 12 13.3284V14H13V13.3284C13 12.6654 12.7366 12.0295 12.2678 11.5607L11.8379 11.1309C11.9434 10.7723 12 10.3927 12 10V9.5H13.5V8.5H12V7.5C12 7.25173 11.9774 7.00874 11.9341 6.77298L12.2678 6.4393C12.7366 5.97046 13 5.33458 13 4.67154V3.99996H12V4.67154C12 5.06035 11.8491 5.4336 11.5796 5.71293C11.1725 4.89914 10.4961 4.24352 9.66721 3.86293C10.1784 3.40518 10.5 2.74015 10.5 2H9.5C9.5 2.82843 8.82843 3.5 8 3.5ZM5.04151 7C5.01423 7.1626 5.00003 7.32964 5.00003 7.5V10C5.00003 11.4865 6.08116 12.7205 7.5 12.9585V7H5.04151ZM10.5987 6C10.08 5.1033 9.11045 4.5 8.00003 4.5C6.88961 4.5 5.92009 5.1033 5.40138 6H10.5987ZM10.9586 7H8.5V12.9585C9.91887 12.7205 11 11.4865 11 10V7.5C11 7.32964 10.9858 7.1626 10.9586 7Z" fill="black" style="fill:black;fill-opacity:1;"/>
</svg>
