<svg width="16" height="16" viewBox="0 0 16 16" fill="none" xmlns="http://www.w3.org/2000/svg">
<path fill-rule="evenodd" clip-rule="evenodd" d="M4 7H7V11H4V7ZM5 8V10H6V8H5Z" fill="black" style="fill:black;fill-opacity:1;"/>
<path fill-rule="evenodd" clip-rule="evenodd" d="M14 2H2V14H14V2ZM13 4V3H3V4C3 4.48325 3.39175 4.875 3.875 4.875C4.35825 4.875 4.75 4.48325 4.75 4H5.75C5.75 4.48325 6.14175 4.875 6.625 4.875C7.10825 4.875 7.5 4.48325 7.5 4H8.5C8.5 4.48325 8.89175 4.875 9.375 4.875C9.85825 4.875 10.25 4.48325 10.25 4H11.25C11.25 4.48325 11.6418 4.875 12.125 4.875C12.6082 4.875 13 4.48325 13 4ZM10.75 5.27477C11.0924 5.64396 11.5817 5.875 12.125 5.875C12.441 5.875 12.7388 5.79682 13 5.65874V13H12V7H8V13H3V5.65874C3.26121 5.79682 3.55898 5.875 3.875 5.875C4.41826 5.875 4.90756 5.64396 5.25 5.27477C5.59244 5.64396 6.08174 5.875 6.625 5.875C7.16826 5.875 7.65757 5.64396 8 5.27477C8.34244 5.64396 8.83174 5.875 9.375 5.875C9.91826 5.875 10.4076 5.64396 10.75 5.27477ZM9 13H11V8H9V13Z" fill="black" style="fill:black;fill-opacity:1;"/>
</svg>
