<svg width="16" height="16" viewBox="0 0 16 16" fill="none" xmlns="http://www.w3.org/2000/svg">
<path fill-rule="evenodd" clip-rule="evenodd" d="M7.94043 1.44141L14.5 4.68945V7.5H13.5V11.5H14.5V14.5H1.5V11.5H2.5V7.5H1.5V4.69238L7.94043 1.44141ZM2.5 13.5H13.5V12.5H2.5V13.5ZM11.5 7.5V11.5H12.5V7.5H11.5ZM3.5 11.5H4.5V7.5H3.5V11.5ZM5.5 11.5H6.5V7.5H5.5V11.5ZM7.5 11.5H8.5V7.5H7.5V11.5ZM9.5 11.5H10.5V7.5H9.5V11.5ZM2.5 6.5H13.5V5.5H2.5V6.5ZM4.09961 4.5H11.8633L7.94434 2.55859L4.09961 4.5Z" fill="black" style="fill:black;fill-opacity:1;"/>
</svg>
