<svg width="16" height="16" viewBox="0 0 16 16" fill="none" xmlns="http://www.w3.org/2000/svg">
<path d="M7.50005 2V1H8.50005V2H7.50005Z" fill="black" style="fill:black;fill-opacity:1;"/>
<path d="M3 6.99999H2V5.99999H3V6.99999Z" fill="black" style="fill:black;fill-opacity:1;"/>
<path d="M13 5.99999H14V6.99999H13V5.99999Z" fill="black" style="fill:black;fill-opacity:1;"/>
<path d="M10.0001 13V14H6.00005V13H10.0001Z" fill="black" style="fill:black;fill-opacity:1;"/>
<path d="M11.8536 2.43935L11.1465 3.14645L11.8536 3.85356L12.5607 3.14645L11.8536 2.43935Z" fill="black" style="fill:black;fill-opacity:1;"/>
<path d="M4.85361 3.14645L4.1465 2.43935L3.43939 3.14645L4.1465 3.85356L4.85361 3.14645Z" fill="black" style="fill:black;fill-opacity:1;"/>
<path fill-rule="evenodd" clip-rule="evenodd" d="M8.00005 3C5.79091 3 4.00005 4.79086 4.00005 7C4.00005 8.48128 4.80524 9.77364 6.00005 10.4648V12H10.0001V10.4648C11.1949 9.77364 12.0001 8.48128 12.0001 7C12.0001 4.79086 10.2092 3 8.00005 3ZM5.00005 7C5.00005 5.34315 6.3432 4 8.00005 4C9.65691 4 11.0001 5.34315 11.0001 7C11.0001 8.19599 10.3002 9.22952 9.28551 9.71155L9.00005 9.84716V11H7.00005V9.84716L6.7146 9.71155C5.69989 9.22952 5.00005 8.19599 5.00005 7Z" fill="black" style="fill:black;fill-opacity:1;"/>
</svg>
