<svg width="16" height="16" viewBox="0 0 16 16" fill="none" xmlns="http://www.w3.org/2000/svg">
<path d="M5 8V9H6V8H5Z" fill="black" style="fill:black;fill-opacity:1;"/>
<path d="M7.5 8V9H8.5V8H7.5Z" fill="black" style="fill:black;fill-opacity:1;"/>
<path d="M10 8V9H11V8H10Z" fill="black" style="fill:black;fill-opacity:1;"/>
<path d="M5 10V11H6V10H5Z" fill="black" style="fill:black;fill-opacity:1;"/>
<path d="M7.5 10V11H8.5V10H7.5Z" fill="black" style="fill:black;fill-opacity:1;"/>
<path d="M10 10V11H11V10H10Z" fill="black" style="fill:black;fill-opacity:1;"/>
<path fill-rule="evenodd" clip-rule="evenodd" d="M6 2V3H10V2H11V3H14V13H2V3H5V2H6ZM13 4V6H3V4H13ZM3 12V7H13V12H3Z" fill="black" style="fill:black;fill-opacity:1;"/>
</svg>
