<svg width="16" height="16" viewBox="0 0 16 16" fill="none" xmlns="http://www.w3.org/2000/svg">
<path fill-rule="evenodd" clip-rule="evenodd" d="M5 1V2H9V1H10V2H13V7H12V6H2V11H7V12H1V2H4V1H5ZM12 3V5H2V3H12Z" fill="black" style="fill:black;fill-opacity:1;"/>
<path d="M4 7V8H5V7H4Z" fill="black" style="fill:black;fill-opacity:1;"/>
<path d="M6 7V8H7V7H6Z" fill="black" style="fill:black;fill-opacity:1;"/>
<path d="M4 9V10H5V9H4Z" fill="black" style="fill:black;fill-opacity:1;"/>
<path d="M6 9V10H7V9H6Z" fill="black" style="fill:black;fill-opacity:1;"/>
<path d="M11 11H10V12H12V10H11V11Z" fill="black" style="fill:black;fill-opacity:1;"/>
<path fill-rule="evenodd" clip-rule="evenodd" d="M8 11.5C8 9.567 9.567 8 11.5 8C13.433 8 15 9.567 15 11.5C15 13.433 13.433 15 11.5 15C9.567 15 8 13.433 8 11.5ZM11.5 9C10.1193 9 9 10.1193 9 11.5C9 12.8807 10.1193 14 11.5 14C12.8807 14 14 12.8807 14 11.5C14 10.1193 12.8807 9 11.5 9Z" fill="black" style="fill:black;fill-opacity:1;"/>
</svg>
