<svg width="16" height="16" viewBox="0 0 16 16" fill="none" xmlns="http://www.w3.org/2000/svg">
<path fill-rule="evenodd" clip-rule="evenodd" d="M11.6 8.5C11.6 10.433 10.033 12 8.09998 12C6.16698 12 4.59998 10.433 4.59998 8.5C4.59998 6.567 6.16698 5 8.09998 5C10.033 5 11.6 6.567 11.6 8.5ZM10.6 8.5C10.6 9.88071 9.48069 11 8.09998 11C6.71926 11 5.59998 9.88071 5.59998 8.5C5.59998 7.11929 6.71926 6 8.09998 6C9.48069 6 10.6 7.11929 10.6 8.5Z" fill="black" style="fill:black;fill-opacity:1;"/>
<path fill-rule="evenodd" clip-rule="evenodd" d="M6 2H10L11.5 4H13.5C14.3284 4 15 4.67157 15 5.5V12.5C15 13.3284 14.3284 14 13.5 14H2.5C1.67157 14 1 13.3284 1 12.5V5.5C1 4.67157 1.67157 4 2.5 4H4.5L6 2ZM9.5 3H6.5L5 5H2.5C2.22386 5 2 5.22386 2 5.5V12.5C2 12.7761 2.22386 13 2.5 13H13.5C13.7761 13 14 12.7761 14 12.5V5.5C14 5.22386 13.7761 5 13.5 5H11L9.5 3Z" fill="black" style="fill:black;fill-opacity:1;"/>
</svg>
