<svg width="16" height="16" viewBox="0 0 16 16" fill="none" xmlns="http://www.w3.org/2000/svg">
<path d="M8.00001 11.4C8.7732 11.4 9.40001 10.7732 9.40001 10C9.40001 9.2268 8.7732 8.6 8.00001 8.6C7.22681 8.6 6.60001 9.2268 6.60001 10C6.60001 10.7732 7.22681 11.4 8.00001 11.4Z" fill="black" style="fill:black;fill-opacity:1;"/>
<path fill-rule="evenodd" clip-rule="evenodd" d="M8.5 3H12V2H4V3H7.5V6.03095C5.52684 6.277 4 7.96019 4 10C4 12.2091 5.79086 14 8 14C10.2091 14 12 12.2091 12 10C12 7.96019 10.4732 6.277 8.5 6.03095V3ZM8 7C6.34315 7 5 8.34315 5 10C5 11.6569 6.34315 13 8 13C9.65685 13 11 11.6569 11 10C11 8.34315 9.65685 7 8 7Z" fill="black" style="fill:black;fill-opacity:1;"/>
</svg>
