<svg width="16" height="16" viewBox="0 0 16 16" fill="none" xmlns="http://www.w3.org/2000/svg">
<path d="M6 9.5H3V10.5H6V9.5Z" fill="black" style="fill:black;fill-opacity:1;"/>
<path d="M11 8.5C10.4477 8.5 10 8.94771 10 9.5V10.5C10 11.0523 10.4477 11.5 11 11.5H12C12.5523 11.5 13 11.0523 13 10.5V9.5C13 8.94772 12.5523 8.5 12 8.5H11Z" fill="black" style="fill:black;fill-opacity:1;"/>
<path fill-rule="evenodd" clip-rule="evenodd" d="M3.5 2.5C2.11929 2.5 1 3.61929 1 5V11C1 12.3807 2.11929 13.5 3.5 13.5H12.5C13.8807 13.5 15 12.3807 15 11V5C15 3.61929 13.8807 2.5 12.5 2.5H3.5ZM2 5C2 4.17157 2.67157 3.5 3.5 3.5H12.5C13.3284 3.5 14 4.17157 14 5V5.5H2V5ZM2 6.5H14V11C14 11.8284 13.3284 12.5 12.5 12.5H3.5C2.67157 12.5 2 11.8284 2 11V6.5Z" fill="black" style="fill:black;fill-opacity:1;"/>
</svg>
