<svg width="16" height="16" viewBox="0 0 16 16" fill="none" xmlns="http://www.w3.org/2000/svg">
<path fill-rule="evenodd" clip-rule="evenodd" d="M4 4H12.7049L14.038 5.89581L12.8416 11H10.5H5.5H3V3L1 3V2H4V4ZM4 5V10H12.0489L12.962 6.10419L12.1856 5H4Z" fill="black" style="fill:black;fill-opacity:1;"/>
<path fill-rule="evenodd" clip-rule="evenodd" d="M5.5 11C6.32843 11 7 11.6716 7 12.5C7 13.3284 6.32843 14 5.5 14C4.67157 14 4 13.3284 4 12.5C4 11.6716 4.67157 11 5.5 11ZM5 12.5C5 12.2239 5.22386 12 5.5 12C5.77614 12 6 12.2239 6 12.5C6 12.7761 5.77614 13 5.5 13C5.22386 13 5 12.7761 5 12.5Z" fill="black" style="fill:black;fill-opacity:1;"/>
<path fill-rule="evenodd" clip-rule="evenodd" d="M10.5 11C11.3284 11 12 11.6716 12 12.5C12 13.3284 11.3284 14 10.5 14C9.67157 14 9 13.3284 9 12.5C9 11.6716 9.67157 11 10.5 11ZM10.5 12C10.2239 12 10 12.2239 10 12.5C10 12.7761 10.2239 13 10.5 13C10.7761 13 11 12.7761 11 12.5C11 12.2239 10.7761 12 10.5 12Z" fill="black" style="fill:black;fill-opacity:1;"/>
</svg>
