<svg width="16" height="16" viewBox="0 0 16 16" fill="none" xmlns="http://www.w3.org/2000/svg">
<path fill-rule="evenodd" clip-rule="evenodd" d="M3.50659 3C2.67816 3 2.00659 3.67157 2.00659 4.5V11.5C2.00659 12.3284 2.67816 13 3.50659 13H12.5066C13.335 13 14.0066 12.3284 14.0066 11.5V4.5C14.0066 3.67157 13.335 3 12.5066 3H3.50659ZM3.00659 4.5C3.00659 4.22386 3.23045 4 3.50659 4H12.5066C12.7827 4 13.0066 4.22386 13.0066 4.5V6H11V8H8.00004V10H7.00006V5H4.00003L4.00005 7H3.00659V4.5ZM3.00659 8V11.5C3.00659 11.7761 3.23045 12 3.50659 12H12.5066C12.7827 12 13.0066 11.7761 13.0066 11.5V7H12V9H9.00004V11H6.00006V6H5.00004L5.00007 8H3.00659Z" fill="black" style="fill:black;fill-opacity:1;"/>
</svg>
