<svg width="16" height="16" viewBox="0 0 16 16" fill="none" xmlns="http://www.w3.org/2000/svg">
<path fill-rule="evenodd" clip-rule="evenodd" d="M8 2C4.68629 2 2 4.68629 2 8C2 11.3137 4.68629 14 8 14C11.3137 14 14 11.3137 14 8C14 4.68629 11.3137 2 8 2ZM3.87731 5.17014C4.77872 3.85943 6.289 3 8 3C10.7614 3 13 5.23858 13 8C13 10.7614 10.7614 13 8 13C5.23858 13 3 10.7614 3 8C3 7.32215 3.13489 6.6758 3.37929 6.08633L6.50004 9.20708L8.00004 7.70708L9.79289 9.49994H8.5V10.4999H10.8006L11.5 9.80052V7.49994H10.5V8.79283L8.00004 6.29287L6.50004 7.79287L3.87731 5.17014Z" fill="black" style="fill:black;fill-opacity:1;"/>
</svg>
