<svg width="16" height="16" viewBox="0 0 16 16" fill="none" xmlns="http://www.w3.org/2000/svg">
<path d="M11 6.00866L9.6378 4.64645L8.93069 5.35356L9.57714 6.00001H5V7.00001H11.9914L11 7V6.00866Z" fill="black" style="fill:black;fill-opacity:1;"/>
<path d="M6.36521 11.3536L5.00392 9.99226V9.00001H4.01167L11 9V10H6.42587L7.07232 10.6464L6.36521 11.3536Z" fill="black" style="fill:black;fill-opacity:1;"/>
<path fill-rule="evenodd" clip-rule="evenodd" d="M2 8C2 4.68629 4.68629 2 8 2C11.3137 2 14 4.68629 14 8C14 11.3137 11.3137 14 8 14C4.68629 14 2 11.3137 2 8ZM8 3C5.23858 3 3 5.23858 3 8C3 10.7614 5.23858 13 8 13C10.7614 13 13 10.7614 13 8C13 5.23858 10.7614 3 8 3Z" fill="black" style="fill:black;fill-opacity:1;"/>
</svg>
