<svg width="16" height="16" viewBox="0 0 16 16" fill="none" xmlns="http://www.w3.org/2000/svg">
<path d="M8 5C7.17157 5 6.5 5.67157 6.5 6.5H5.5C5.5 5.11929 6.61929 4 8 4C9.38071 4 10.5 5.11929 10.5 6.5C10.5 7.70948 9.64112 8.71836 8.5 8.94999V10H7.5V8H8C8.82843 8 9.5 7.32843 9.5 6.5C9.5 5.67157 8.82843 5 8 5Z" fill="black" style="fill:black;fill-opacity:1;"/>
<path d="M7.5 11V12H8.5V11H7.5Z" fill="black" style="fill:black;fill-opacity:1;"/>
<path fill-rule="evenodd" clip-rule="evenodd" d="M2 8C2 4.68629 4.68629 2 8 2C11.3137 2 14 4.68629 14 8C14 11.3137 11.3137 14 8 14C4.68629 14 2 11.3137 2 8ZM8 3C5.23858 3 3 5.23858 3 8C3 10.7614 5.23858 13 8 13C10.7614 13 13 10.7614 13 8C13 5.23858 10.7614 3 8 3Z" fill="black" style="fill:black;fill-opacity:1;"/>
</svg>
