<svg width="16" height="16" viewBox="0 0 16 16" fill="none" xmlns="http://www.w3.org/2000/svg">
<path fill-rule="evenodd" clip-rule="evenodd" d="M3.41851 11.8744L1.14648 14.1465L1.85359 14.8536L14.8536 1.85356L14.1465 1.14645L11.8745 3.41848C10.8291 2.53359 9.47688 2.00001 8.00003 2.00001C4.68632 2.00001 2.00003 4.6863 2.00003 8.00001C2.00003 9.47686 2.53361 10.8291 3.41851 11.8744ZM4.12856 11.1644L5.1523 10.1406L5.00394 9.99227V9.00001H6.29293L8.29293 7.00001L5.00003 7.00001V6.00001H9.29293L9.43505 5.85789L8.93072 5.35356L9.63783 4.64645L10.1422 5.15078L11.1644 4.12854C10.3025 3.42319 9.20067 3.00001 8.00003 3.00001C5.23861 3.00001 3.00003 5.23858 3.00003 8.00001C3.00003 9.20064 3.42321 10.3024 4.12856 11.1644Z" fill="black" style="fill:black;fill-opacity:1;"/>
<path d="M5.00625 13.2009C5.88736 13.7092 6.90973 14 8.00003 14C11.3137 14 14 11.3137 14 8.00001C14 6.90971 13.7092 5.88734 13.2009 5.00622L12.4633 5.74387C12.8066 6.42168 13 7.18825 13 8.00001C13 10.7614 10.7615 13 8.00003 13C7.18828 13 6.4217 12.8066 5.74389 12.4633L5.00625 13.2009Z" fill="black" style="fill:black;fill-opacity:1;"/>
<path d="M11 10H8.20714L9.20714 9.00001H11V10Z" fill="black" style="fill:black;fill-opacity:1;"/>
</svg>
