<svg width="16" height="16" viewBox="0 0 16 16" fill="none" xmlns="http://www.w3.org/2000/svg">
<path fill-rule="evenodd" clip-rule="evenodd" d="M8 2C4.68629 2 2 4.68629 2 8C2 11.3137 4.68629 14 8 14C11.3137 14 14 11.3137 14 8C14 4.68629 11.3137 2 8 2ZM3 8C3 5.23858 5.23858 3 8 3C10.7614 3 13 5.23858 13 8C13 10.7614 10.7614 13 8 13C5.23858 13 3 10.7614 3 8Z" fill="black" style="fill:black;fill-opacity:1;"/>
<path fill-rule="evenodd" clip-rule="evenodd" d="M4.00488 9.29748V6.70416L4.6788 6.0304L8 7.51104L8.00008 6.70424L8.67391 6.0304L12 7.51321V8.48739L8.67319 9.97053L8 9.29748V8.48957L4.67808 9.97053L4.00488 9.29748ZM5.00488 8.72996L6.64157 8.0003L5.00488 7.27065V8.72996ZM10.6367 8.0003L9 8.72996V7.27065L10.6367 8.0003Z" fill="black" style="fill:black;fill-opacity:1;"/>
</svg>
