<svg width="16" height="16" viewBox="0 0 16 16" fill="none" xmlns="http://www.w3.org/2000/svg">
<path d="M7.00003 7H11V6H7.00003V7Z" fill="black" style="fill:black;fill-opacity:1;"/>
<path d="M7.00003 9.5H11V8.5H7.00003V9.5Z" fill="black" style="fill:black;fill-opacity:1;"/>
<path d="M7.00003 12H11V11H7.00003V12Z" fill="black" style="fill:black;fill-opacity:1;"/>
<path d="M6.00003 7H5.00003V6H6.00003V7Z" fill="black" style="fill:black;fill-opacity:1;"/>
<path d="M6.00003 9.5H5.00003V8.5H6.00003V9.5Z" fill="black" style="fill:black;fill-opacity:1;"/>
<path d="M6.00003 12H5.00003V11H6.00003V12Z" fill="black" style="fill:black;fill-opacity:1;"/>
<path fill-rule="evenodd" clip-rule="evenodd" d="M11 1H5.00003V2H3L3.00001 14H13V2H11V1ZM11 3V4H5.00003V3H4L4.00001 13H12V3H11ZM6.00003 3V2H10V3H6.00003Z" fill="black" style="fill:black;fill-opacity:1;"/>
</svg>
