<svg width="16" height="16" viewBox="0 0 16 16" fill="none" xmlns="http://www.w3.org/2000/svg">
<path d="M8 3C5.23858 3 3 5.23858 3 8C3 10.7614 5.23858 13 8 13V14C4.68629 14 2 11.3137 2 8C2 4.68629 4.68629 2 8 2C11.3137 2 14 4.68629 14 8H13C13 5.23858 10.7614 3 8 3Z" fill="black" style="fill:black;fill-opacity:1;"/>
<path d="M8.5 4.5V8.5H5V7.5H7.5V4.5H8.5Z" fill="black" style="fill:black;fill-opacity:1;"/>
<path fill-rule="evenodd" clip-rule="evenodd" d="M12.4929 11.35C12.7181 11.0715 13.1033 10.8818 13.5716 10.8818C14.3954 10.8818 15 11.4686 15 12.2865C15 13.1578 14.3599 13.7327 13.4886 13.7327C12.3743 13.7327 11.7223 12.9207 11.7223 11.6049C11.7223 10.3069 12.4454 9.40598 13.4827 9.40598C14.2236 9.40598 14.7748 9.81494 14.9348 10.4906L14.2473 10.6625C14.1228 10.2417 13.8798 10.0698 13.4886 10.0698C12.9492 10.0698 12.5462 10.5262 12.481 11.35H12.4929ZM12.6233 12.2806C12.6233 12.737 12.9492 13.0689 13.4886 13.0689C13.9213 13.0689 14.2828 12.7903 14.2828 12.2865C14.2828 11.7886 13.9391 11.4745 13.4649 11.4745C12.9789 11.4745 12.6233 11.7946 12.6233 12.2806Z" fill="black" style="fill:black;fill-opacity:1;"/>
<path d="M10.0782 9.49488H10.7599L10.7598 13.0511H11.72V13.7327H9.00543V13.0511H10.019L10.019 10.2832L9.05286 10.8877V10.1291L10.0782 9.49488Z" fill="black" style="fill:black;fill-opacity:1;"/>
</svg>
