<svg width="16" height="16" viewBox="0 0 16 16" fill="none" xmlns="http://www.w3.org/2000/svg">
<path d="M10 6.5C10 7.47938 9.59774 8.3648 8.94942 9.00007H10.2422C10.7208 8.285 11 7.4251 11 6.5C11 4.01472 8.98528 2 6.5 2C4.01472 2 2 4.01472 2 6.5C2 7.83937 2.58515 9.04207 3.51375 9.86641C3.7909 9.64623 4.09793 9.46204 4.42777 9.3209C3.56188 8.68375 3 7.65749 3 6.5C3 4.567 4.567 3 6.5 3C8.433 3 10 4.567 10 6.5Z" fill="black" style="fill:black;fill-opacity:1;"/>
<path d="M7 7V4H6V6H4V7H7Z" fill="black" style="fill:black;fill-opacity:1;"/>
<path d="M13.5829 10L11.9365 8.35359L12.6436 7.64648L15 10.0029V10.9469L12.6436 13.3033L11.9365 12.5962L13.5327 11H6C4.89543 11 4 11.8955 4 13H3C3 11.3432 4.34315 10 6 10H13.5829Z" fill="black" style="fill:black;fill-opacity:1;"/>
</svg>
