<svg width="16" height="16" viewBox="0 0 16 16" fill="none" xmlns="http://www.w3.org/2000/svg">
<path fill-rule="evenodd" clip-rule="evenodd" d="M4.01579 5.16532C4.18427 3.38932 5.67989 2 7.5 2C9.26331 2 10.7221 3.30396 10.9646 5.00021L11 5C12.6569 5 14 6.34315 14 8C14 9.30622 13.1652 10.4175 12 10.8293V13.1338C12.2989 13.3067 12.5 13.6299 12.5 14C12.5 14.5523 12.0523 15 11.5 15C10.9477 15 10.5 14.5523 10.5 14C10.5 13.6299 10.7011 13.3067 11 13.1338L11 11H8.5V12.1338C8.7989 12.3067 9 12.6299 9 13C9 13.5523 8.55229 14 8 14C7.44772 14 7 13.5523 7 13C7 12.6299 7.2011 12.3067 7.5 12.1338V11H5L5 13.1338C5.2989 13.3067 5.5 13.6299 5.5 14C5.5 14.5523 5.05228 15 4.5 15C3.94772 15 3.5 14.5523 3.5 14C3.5 13.6299 3.7011 13.3067 4 13.1338V10.8293C2.83481 10.4175 2 9.30622 2 8C2 6.68754 2.8424 5.57274 4.01579 5.16532ZM7.5 3C6.11929 3 5 4.11929 5 5.5C5 5.51396 5.00011 5.52788 5.00034 5.54177L5.00712 5.95734L4.59979 6.03995C3.68694 6.22509 3 7.03288 3 8C3 9.10457 3.89543 10 5 10H11C12.1046 10 13 9.10457 13 8C13 6.89543 12.1046 6 11 6C10.8623 6 10.7283 6.01385 10.5991 6.04008L9.98948 6.16395L9.99966 5.54191C9.99989 5.52798 10 5.51401 10 5.5C10 4.11929 8.88071 3 7.5 3Z" fill="black" style="fill:black;fill-opacity:1;"/>
</svg>
