<svg width="16" height="16" viewBox="0 0 16 16" fill="none" xmlns="http://www.w3.org/2000/svg">
<path fill-rule="evenodd" clip-rule="evenodd" d="M8.29542 3.09078C8.83761 1.85959 10.068 1 11.5 1C13.433 1 15 2.567 15 4.5C15 5.68374 14.4123 6.7295 13.5142 7.36261C13.8214 7.83342 14 8.39586 14 9C14 10.6569 12.6569 12 11 12H5C3.34315 12 2 10.6569 2 9C2 7.68754 2.8424 6.57274 4.01579 6.16532C4.18427 4.38932 5.67989 3 7.5 3C7.77361 3 8.03989 3.0314 8.29542 3.09078ZM11.5 2C12.8807 2 14 3.11929 14 4.5C14 5.39286 13.5319 6.17721 12.8262 6.61972C12.3204 6.23106 11.6872 6 11 6L10.9646 6.00021C10.8085 4.90843 10.1485 3.97916 9.22781 3.45551C9.62343 2.59638 10.4924 2 11.5 2ZM5 6.5C5 5.11929 6.11929 4 7.5 4C8.88071 4 10 5.11929 10 6.5C10 6.51401 9.99989 6.52798 9.99966 6.54191L9.98948 7.16395L10.5991 7.04008C10.7283 7.01385 10.8623 7 11 7C12.1046 7 13 7.89543 13 9C13 10.1046 12.1046 11 11 11H5C3.89543 11 3 10.1046 3 9C3 8.03288 3.68694 7.22509 4.59979 7.03995L5.00712 6.95734L5.00034 6.54177C5.00011 6.52788 5 6.51396 5 6.5Z" fill="black" style="fill:black;fill-opacity:1;"/>
<path d="M5.35355 13.3535L4.35355 14.3535L3.64645 13.6464L4.64645 12.6464L5.35355 13.3535Z" fill="black" style="fill:black;fill-opacity:1;"/>
<path d="M8.35355 13.3535L7.35355 14.3535L6.64645 13.6464L7.64645 12.6464L8.35355 13.3535Z" fill="black" style="fill:black;fill-opacity:1;"/>
<path d="M11.3536 13.3535L10.3536 14.3535L9.64645 13.6464L10.6464 12.6464L11.3536 13.3535Z" fill="black" style="fill:black;fill-opacity:1;"/>
</svg>
