<svg width="16" height="16" viewBox="0 0 16 16" fill="none" xmlns="http://www.w3.org/2000/svg">
<path d="M8.5 7C8.31556 7 8.15379 7.09961 8.06659 7.25036L7.20098 6.74964C7.45958 6.30259 7.94416 6 8.5 6C9.32843 6 10 6.67157 10 7.5C10 8.32843 9.32843 9 8.5 9H5V8H8.5C8.77614 8 9 7.77614 9 7.5C9 7.22386 8.77614 7 8.5 7Z" fill="black" style="fill:black;fill-opacity:1;"/>
<path fill-rule="evenodd" clip-rule="evenodd" d="M4.01579 5.16532C4.18427 3.38932 5.67989 2 7.5 2C9.26331 2 10.7221 3.30396 10.9646 5.00021L11 5C12.6569 5 14 6.34315 14 8C14 9.65686 12.6569 11 11 11H5C3.34315 11 2 9.65686 2 8C2 6.68754 2.8424 5.57274 4.01579 5.16532ZM7.5 3C6.11929 3 5 4.11929 5 5.5C5 5.51396 5.00011 5.52788 5.00034 5.54177L5.00712 5.95734L4.59979 6.03995C3.68694 6.22509 3 7.03288 3 8C3 9.10457 3.89543 10 5 10H11C12.1046 10 13 9.10457 13 8C13 6.89543 12.1046 6 11 6C10.8623 6 10.7283 6.01385 10.5991 6.04008L9.98948 6.16395L9.99966 5.54191C9.99989 5.52798 10 5.51401 10 5.5C10 4.11929 8.88071 3 7.5 3Z" fill="black" style="fill:black;fill-opacity:1;"/>
<path d="M10.0666 13.7496C10.1538 13.9004 10.3156 14 10.5 14C10.7761 14 11 13.7761 11 13.5C11 13.2239 10.7761 13 10.5 13H5V12H10.5C11.3284 12 12 12.6716 12 13.5C12 14.3284 11.3284 15 10.5 15C9.94416 15 9.45958 14.6974 9.20098 14.2504L10.0666 13.7496Z" fill="black" style="fill:black;fill-opacity:1;"/>
</svg>
