<svg width="16" height="16" viewBox="0 0 16 16" fill="none" xmlns="http://www.w3.org/2000/svg">
<path d="M5 5.5C5 4.11929 6.11929 3 7.5 3C8.88071 3 10 4.11929 10 5.5C10 5.51401 9.99989 5.52798 9.99966 5.54191L9.98948 6.16395L10.5991 6.04008C10.7283 6.01385 10.8623 6 11 6C12.1046 6 13 6.89543 13 8C13 9.10457 12.1046 10 11 10H10V11H11C12.6569 11 14 9.65686 14 8C14 6.34315 12.6569 5 11 5L10.9646 5.00021C10.7221 3.30396 9.26331 2 7.5 2C5.67989 2 4.18427 3.38932 4.01579 5.16532C2.8424 5.57274 2 6.68754 2 8C2 9.65686 3.34315 11 5 11H6V10H5C3.89543 10 3 9.10457 3 8C3 7.03288 3.68694 6.22509 4.59979 6.03995L5.00712 5.95734L5.00034 5.54177C5.00011 5.52788 5 5.51396 5 5.5Z" fill="black" style="fill:black;fill-opacity:1;"/>
<path d="M8.48508 9.62127L7.51494 9.37873L6.85962 12H8.35962L8.01494 13.3787L8.98508 13.6213L9.6404 11H8.1404L8.48508 9.62127Z" fill="black" style="fill:black;fill-opacity:1;"/>
</svg>
