<svg width="16" height="16" viewBox="0 0 16 16" fill="none" xmlns="http://www.w3.org/2000/svg">
<path fill-rule="evenodd" clip-rule="evenodd" d="M7.5 3C5.67989 3 4.18427 4.38932 4.01579 6.16532C2.8424 6.57274 2 7.68754 2 9C2 10.6569 3.34315 12 5 12H11C12.6569 12 14 10.6569 14 9C14 7.34315 12.6569 6 11 6L10.9646 6.00021C10.7221 4.30396 9.26331 3 7.5 3ZM5 6.5C5 5.11929 6.11929 4 7.5 4C8.88071 4 10 5.11929 10 6.5C10 6.51401 9.99989 6.52798 9.99966 6.54191L9.98948 7.16395L10.5991 7.04008C10.7283 7.01385 10.8623 7 11 7C12.1046 7 13 7.89543 13 9C13 10.1046 12.1046 11 11 11H5C3.89543 11 3 10.1046 3 9C3 8.03288 3.68694 7.22509 4.59979 7.03995L5.00712 6.95734L5.00034 6.54177C5.00011 6.52788 5 6.51396 5 6.5Z" fill="black" style="fill:black;fill-opacity:1;"/>
<path d="M4.35356 14.3536L5.35356 13.3536L4.64645 12.6464L3.64645 13.6464L4.35356 14.3536Z" fill="black" style="fill:black;fill-opacity:1;"/>
<path d="M7.35356 14.3536L8.35356 13.3536L7.64645 12.6464L6.64645 13.6464L7.35356 14.3536Z" fill="black" style="fill:black;fill-opacity:1;"/>
<path d="M10.3536 14.3536L11.3536 13.3536L10.6465 12.6464L9.64645 13.6464L10.3536 14.3536Z" fill="black" style="fill:black;fill-opacity:1;"/>
</svg>
