<svg width="16" height="16" viewBox="0 0 16 16" fill="none" xmlns="http://www.w3.org/2000/svg">
<path fill-rule="evenodd" clip-rule="evenodd" d="M2.48582 8.3626C1.58766 7.7295 1 6.68374 1 5.5C1 3.567 2.567 2 4.5 2C5.898 2 7.1039 2.8193 7.66483 4.00381C9.35353 4.0821 10.7297 5.35711 10.9646 7.00021L11 7C12.6569 7 14 8.34315 14 10C14 11.6569 12.6569 13 11 13H5C3.34315 13 2 11.6569 2 10C2 9.39572 2.17858 8.83333 2.48582 8.3626ZM2 5.5C2 4.11929 3.11929 3 4.5 3C5.37064 3 6.13783 3.44531 6.58552 4.12067C5.20003 4.49469 4.15499 5.69804 4.01579 7.16532C3.70957 7.27165 3.42589 7.42615 3.17384 7.61977C2.46809 7.17727 2 6.3929 2 5.5ZM5 7.5C5 6.11929 6.11929 5 7.5 5C8.88071 5 10 6.11929 10 7.5C10 7.51401 9.99989 7.52798 9.99966 7.54191L9.98948 8.16395L10.5991 8.04008C10.7283 8.01385 10.8623 8 11 8C12.1046 8 13 8.89543 13 10C13 11.1046 12.1046 12 11 12H5C3.89543 12 3 11.1046 3 10C3 9.03288 3.68694 8.22509 4.59979 8.03995L5.00712 7.95734L5.00034 7.54177C5.00011 7.52788 5 7.51396 5 7.5Z" fill="black" style="fill:black;fill-opacity:1;"/>
</svg>
