<svg width="16" height="16" viewBox="0 0 16 16" fill="none" xmlns="http://www.w3.org/2000/svg">
<path fill-rule="evenodd" clip-rule="evenodd" d="M8 10C9.38071 10 10.5 11.1193 10.5 12.5C10.5 13.8807 9.38071 15 8 15C6.61929 15 5.5 13.8807 5.5 12.5C5.5 11.1193 6.61929 10 8 10ZM8 11C7.17157 11 6.5 11.6716 6.5 12.5C6.5 13.3284 7.17157 14 8 14C8.82843 14 9.5 13.3284 9.5 12.5C9.5 11.6716 8.82843 11 8 11Z" fill="black" style="fill:black;fill-opacity:1;"/>
<path fill-rule="evenodd" clip-rule="evenodd" d="M3.5 5.5C4.88071 5.5 6 6.61929 6 8C6 9.38071 4.88071 10.5 3.5 10.5C2.11929 10.5 1 9.38071 1 8C1 6.61929 2.11929 5.5 3.5 5.5ZM3.5 6.5C2.67157 6.5 2 7.17157 2 8C2 8.82843 2.67157 9.5 3.5 9.5C4.32843 9.5 5 8.82843 5 8C5 7.17157 4.32843 6.5 3.5 6.5Z" fill="black" style="fill:black;fill-opacity:1;"/>
<path fill-rule="evenodd" clip-rule="evenodd" d="M12.5 5.5C13.8807 5.5 15 6.61929 15 8C15 9.38071 13.8807 10.5 12.5 10.5C11.1193 10.5 10 9.38071 10 8C10 6.61929 11.1193 5.5 12.5 5.5ZM12.5 6.5C11.6716 6.5 11 7.17157 11 8C11 8.82843 11.6716 9.5 12.5 9.5C13.3284 9.5 14 8.82843 14 8C14 7.17157 13.3284 6.5 12.5 6.5Z" fill="black" style="fill:black;fill-opacity:1;"/>
<path fill-rule="evenodd" clip-rule="evenodd" d="M8 1C9.38071 1 10.5 2.11929 10.5 3.5C10.5 4.88071 9.38071 6 8 6C6.61929 6 5.5 4.88071 5.5 3.5C5.5 2.11929 6.61929 1 8 1ZM8 2C7.17157 2 6.5 2.67157 6.5 3.5C6.5 4.32843 7.17157 5 8 5C8.82843 5 9.5 4.32843 9.5 3.5C9.5 2.67157 8.82843 2 8 2Z" fill="black" style="fill:black;fill-opacity:1;"/>
</svg>
