<svg width="16" height="16" viewBox="0 0 16 16" fill="none" xmlns="http://www.w3.org/2000/svg">
<path d="M9.5 11.4V10.7416C8.55372 10.5162 7.84999 9.66527 7.84999 8.64999H8.84999C8.84999 9.28512 9.36486 9.79999 9.99999 9.79999C10.5156 9.79999 10.952 9.46061 11.098 8.99303L7.84999 7.91037V7.54999C7.84999 6.53472 8.55372 5.68381 9.5 5.45844V4.8H10.5V5.45844C11.4463 5.68382 12.15 6.53473 12.15 7.54999H11.15C11.15 6.91487 10.6351 6.39999 9.99999 6.39999C9.48434 6.39999 9.04796 6.73938 8.90202 7.20696L12.15 8.28961V8.64999C12.15 9.66526 11.4463 10.5162 10.5 10.7415V11.4H9.5Z" fill="black" style="fill:black;fill-opacity:1;"/>
<path fill-rule="evenodd" clip-rule="evenodd" d="M6 13C5.99999 13 6.00001 13 6 13C3.23859 13 1 10.7614 1 8C1 5.23859 3.23856 3.00002 5.99997 3C5.99996 3 5.99998 3 5.99997 3H9.99997C9.99996 3 9.99998 3 9.99997 3C12.7614 3 15 5.23858 15 8C15 10.7614 12.7614 13 10 13C9.99999 13 10 13 10 13H6ZM2 8C2 6.22668 3.15396 4.72287 4.75193 4.19856C3.67965 5.11561 3 6.47844 3 8C3 9.52156 3.67966 10.8844 4.75194 11.8014C3.15397 11.2771 2 9.77333 2 8ZM6.75193 4.19856C5.15396 4.72287 4 6.22668 4 8C4 9.77333 5.15397 11.2771 6.75194 11.8014C5.67966 10.8844 5 9.52156 5 8C5 6.47844 5.67965 5.11561 6.75193 4.19856ZM9.99997 4C7.79084 4.00002 6 5.79087 6 8C6 10.2091 7.79084 12 9.99997 12C9.99996 12 9.99998 12 9.99997 12C12.2091 12 14 10.2091 14 8C14 5.79086 12.2091 4 9.99997 4C9.99998 4 9.99996 4 9.99997 4Z" fill="black" style="fill:black;fill-opacity:1;"/>
</svg>
