<svg width="16" height="16" viewBox="0 0 16 16" fill="none" xmlns="http://www.w3.org/2000/svg">
<path d="M10 5C10.3938 5 10.7836 5.07787 11.1475 5.22852C11.5114 5.37928 11.8425 5.60033 12.1211 5.87891C12.3997 6.15748 12.6207 6.48857 12.7715 6.85254C12.9221 7.21638 13 7.60621 13 8C13 8.3938 12.9221 8.78361 12.7715 9.14746C12.6207 9.51144 12.3997 9.84252 12.1211 10.1211L11.4141 9.41406C11.5998 9.22835 11.7471 9.0073 11.8477 8.76465C11.948 8.52216 12 8.26243 12 8C12 7.73745 11.9481 7.47695 11.8477 7.23438C11.7472 6.99192 11.5996 6.77153 11.4141 6.58594C11.2283 6.40022 11.0073 6.25285 10.7646 6.15234C10.5222 6.05199 10.2624 6 10 6C9.73756 6 9.47784 6.05199 9.23535 6.15234C8.9927 6.25285 8.77165 6.40022 8.58594 6.58594L7.87891 5.87891C8.15748 5.60033 8.48856 5.37928 8.85254 5.22852C9.21639 5.07787 9.60619 5 10 5Z" fill="black" style="fill:black;fill-opacity:1;"/>
<path fill-rule="evenodd" clip-rule="evenodd" d="M10 3C12.7614 3.00002 15 5.23859 15 8C15 10.7614 12.7614 13 10 13H6C3.23859 13 1 10.7614 1 8C1 5.23859 3.23859 3.00002 6 3H10ZM10 4C7.79087 4.00002 6 5.79087 6 8C6 10.2091 7.79087 12 10 12C12.2091 12 14 10.2091 14 8C14 5.79087 12.2091 4.00002 10 4ZM4.75195 4.19824C3.15399 4.72256 2 6.22668 2 8C2 9.77333 3.15398 11.2774 4.75195 11.8018C3.67968 10.8847 3 9.52156 3 8C3 6.47844 3.67967 5.1153 4.75195 4.19824ZM6.75195 4.19824C5.15399 4.72256 4 6.22668 4 8C4 9.77333 5.15398 11.2774 6.75195 11.8018C5.67968 10.8847 5 9.52156 5 8C5 6.47844 5.67967 5.1153 6.75195 4.19824Z" fill="black" style="fill:black;fill-opacity:1;"/>
</svg>
