<svg width="16" height="16" viewBox="0 0 16 16" fill="none" xmlns="http://www.w3.org/2000/svg">
<path d="M6.41646 6.91601C6.56748 6.1154 7.23606 5.53845 8 5.53845C8.86944 5.53845 9.61538 6.28577 9.61538 7.25961H10.6154C10.6154 5.95294 9.71985 4.83191 8.5 4.58772V3.76923H7.5V4.58772C6.28015 4.8319 5.38461 5.95294 5.38461 7.25961V7.61435L9.58354 9.08397C9.43252 9.88458 8.76393 10.4615 8 10.4615C7.13055 10.4615 6.38461 9.71421 6.38461 8.74038H5.38461C5.38461 10.047 6.28015 11.1681 7.5 11.4123V12.2308H8.5V11.4123C9.71985 11.1681 10.6154 10.047 10.6154 8.74038V8.38563L6.41646 6.91601Z" fill="black" style="fill:black;fill-opacity:1;"/>
<path fill-rule="evenodd" clip-rule="evenodd" d="M2 8C2 4.68629 4.68629 2 8 2C11.3137 2 14 4.68629 14 8C14 11.3137 11.3137 14 8 14C4.68629 14 2 11.3137 2 8ZM8 3C5.23858 3 3 5.23858 3 8C3 10.7614 5.23858 13 8 13C10.7614 13 13 10.7614 13 8C13 5.23858 10.7614 3 8 3Z" fill="black" style="fill:black;fill-opacity:1;"/>
</svg>
