<svg width="16" height="16" viewBox="0 0 16 16" fill="none" xmlns="http://www.w3.org/2000/svg">
<path d="M8.72851 7.97856L7.97851 8.72856L7.2714 8.02145L8.0214 7.27145L8.72851 7.97856Z" fill="black" style="fill:black;fill-opacity:1;"/>
<path fill-rule="evenodd" clip-rule="evenodd" d="M10.4992 4.79816L6.16406 6.16381L4.79606 10.4973L5.50266 11.2039L9.83622 9.83597L11.2019 5.5008L10.4992 4.79816ZM6.00249 9.99749L6.96098 6.96121L9.9944 6.00563L9.03882 9.03904L6.00249 9.99749Z" fill="black" style="fill:black;fill-opacity:1;"/>
<path fill-rule="evenodd" clip-rule="evenodd" d="M2 8C2 4.68629 4.68629 2 8 2C11.3137 2 14 4.68629 14 8C14 11.3137 11.3137 14 8 14C4.68629 14 2 11.3137 2 8ZM8 3C5.23858 3 3 5.23858 3 8C3 10.7614 5.23858 13 8 13C10.7614 13 13 10.7614 13 8C13 5.23858 10.7614 3 8 3Z" fill="black" style="fill:black;fill-opacity:1;"/>
</svg>
