<svg width="16" height="16" viewBox="0 0 16 16" fill="none" xmlns="http://www.w3.org/2000/svg">
<path fill-rule="evenodd" clip-rule="evenodd" d="M3.5 2C2.67158 2 2 2.67 2 3.49649V9.50348C2 10.33 2.67157 11 3.5 11L9.5 11C10.3284 11 11 10.33 11 9.50351V3.49652C11 2.67003 10.3284 2.00003 9.5 2.00003L3.5 2ZM3 3.49649C3 3.22099 3.22386 2.99766 3.5 2.99766L9.5 2.99769C9.77614 2.99769 10 3.22102 10 3.49652V9.50351C10 9.77901 9.77614 10.0023 9.5 10.0023L3.5 10.0023C3.22386 10.0023 3 9.77898 3 9.50348V3.49649Z" fill="black" style="fill:black;fill-opacity:1;"/>
<path d="M5 12.5035V12H6V12.5035C6 12.779 6.22386 13.0023 6.5 13.0023L12.5 13.0023C12.7761 13.0023 13 12.779 13 12.5035V6.49649C13 6.22099 12.7761 5.99766 12.5 5.99766L12 5.99766V5L12.5 5C13.3284 5 14 5.67 14 6.49649V12.5035C14 13.33 13.3284 14 12.5 14L6.5 13.9999C5.67157 13.9999 5 13.3299 5 12.5035Z" fill="black" style="fill:black;fill-opacity:1;"/>
</svg>
