<svg width="16" height="16" viewBox="0 0 16 16" fill="none" xmlns="http://www.w3.org/2000/svg">
<path fill-rule="evenodd" clip-rule="evenodd" d="M3 6H12V12.5C12 13.3284 11.3284 14 10.5 14H4.5C3.67157 14 3 13.3284 3 12.5V6ZM4 7V12.5C4 12.7761 4.22386 13 4.5 13H10.5C10.7761 13 11 12.7761 11 12.5V7H4Z" fill="black" style="fill:black;fill-opacity:1;"/>
<path fill-rule="evenodd" clip-rule="evenodd" d="M12.5 8H12V7H12.5C13.3284 7 14 7.67157 14 8.5V10.5C14 11.3284 13.3284 12 12.5 12H12V11H12.5C12.7761 11 13 10.7761 13 10.5V8.5C13 8.22386 12.7761 8 12.5 8Z" fill="black" style="fill:black;fill-opacity:1;"/>
<path fill-rule="evenodd" clip-rule="evenodd" d="M6 2V5H5V2H6ZM8 2V5H7V2H8ZM10 2V5H9V2H10Z" fill="black" style="fill:black;fill-opacity:1;"/>
</svg>
