<svg width="16" height="16" viewBox="0 0 16 16" fill="none" xmlns="http://www.w3.org/2000/svg">
<path fill-rule="evenodd" clip-rule="evenodd" d="M4.5 2C3.11929 2 2 3.11929 2 4.5V11.5C2 12.8807 3.11929 14 4.5 14H11.5C12.8807 14 14 12.8807 14 11.5V9H13V11.5C13 12.3284 12.3284 13 11.5 13H6V3H7V2H4.5ZM5 3H4.5C3.67157 3 3 3.67157 3 4.5V11.5C3 12.3284 3.67157 13 4.5 13H5V3Z" fill="black" style="fill:black;fill-opacity:1;"/>
<path fill-rule="evenodd" clip-rule="evenodd" d="M9 5.5C9 4.67157 9.67157 4 10.5 4C11.3284 4 12 4.67157 12 5.5C12 6.32843 11.3284 7 10.5 7C9.67157 7 9 6.32843 9 5.5ZM10.5 5C10.2239 5 10 5.22386 10 5.5C10 5.77614 10.2239 6 10.5 6C10.7761 6 11 5.77614 11 5.5C11 5.22386 10.7761 5 10.5 5Z" fill="black" style="fill:black;fill-opacity:1;"/>
<path fill-rule="evenodd" clip-rule="evenodd" d="M7 5.47744C7 3.55335 8.57057 2 10.5 2C12.4294 2 14 3.55335 14 5.47744C14 6.36783 13.6626 7.18062 13.1094 7.79506L11 10.1889V10.1875H10V10.1889L7.89059 7.79505C7.33743 7.18061 7 6.36782 7 5.47744ZM10.5 3C9.11572 3 8 4.11274 8 5.47744C8 6.11115 8.23947 6.68872 8.63521 7.12755L8.63905 7.13182L10.5 9.24372L12.3648 7.12753C12.7605 6.6887 13 6.11115 13 5.47744C13 4.11274 11.8843 3 10.5 3Z" fill="black" style="fill:black;fill-opacity:1;"/>
</svg>
