<svg width="16" height="16" viewBox="0 0 16 16" fill="none" xmlns="http://www.w3.org/2000/svg">
<path d="M9 10C9 10.5523 8.55228 11 8 11C7.44772 11 7 10.5523 7 10C7 9.44772 7.44772 9 8 9C8.55228 9 9 9.44772 9 10Z" fill="black" style="fill:black;fill-opacity:1;"/>
<path fill-rule="evenodd" clip-rule="evenodd" d="M3.5 3C2.11929 3 1 4.11929 1 5.5V10.5C1 11.8807 2.11929 13 3.5 13H12.5C13.8807 13 15 11.8807 15 10.5V5.5C15 4.11929 13.8807 3 12.5 3H3.5ZM11 12H12.5C13.3284 12 14 11.3284 14 10.5V5.5C14 4.67157 13.3284 4 12.5 4L8.5 4V7H9.5C10.3284 7 11 7.67157 11 8.5V12ZM7.5 7V4H3.5C2.67157 4 2 4.67157 2 5.5V10.5C2 11.3284 2.67157 12 3.5 12H5V8.5C5 7.67157 5.67157 7 6.5 7H7.5ZM10 12V8.5C10 8.22386 9.77614 8 9.5 8H6.5C6.22386 8 6 8.22386 6 8.5V12H10Z" fill="black" style="fill:black;fill-opacity:1;"/>
</svg>
