<svg width="16" height="16" viewBox="0 0 16 16" fill="none" xmlns="http://www.w3.org/2000/svg">
<path d="M6.5 13C6.77614 13 7 12.7761 7 12.5C7 12.2239 6.77614 12 6.5 12C6.22386 12 6 12.2239 6 12.5C6 12.7761 6.22386 13 6.5 13Z" fill="black" style="fill:black;fill-opacity:1;"/>
<path fill-rule="evenodd" clip-rule="evenodd" d="M5.5 0.996033C4.28912 0.996033 3.27931 1.8569 3.04921 3H2V4H3V7.05001C1.85888 7.28164 1 8.29052 1 9.5V12.5C1 13.8807 2.11929 15 3.5 15H9.5C10.8807 15 12 13.8807 12 12.5V12H12.4959C13.8767 12 14.9959 10.8807 14.9959 9.49998V3.49603C14.9959 2.11532 13.8767 0.996033 12.4959 0.996033H5.5ZM4 3.49603C4 2.6676 4.67157 1.99603 5.5 1.99603H12.4959C13.3244 1.99603 13.9959 2.66761 13.9959 3.49603V9.49998C13.9959 10.3284 13.3244 11 12.4959 11H12V9.5C12 8.11929 10.8807 7 9.5 7H4V3.49603ZM3.5 8C2.67157 8 2 8.67157 2 9.5V12.5C2 13.3284 2.67157 14 3.5 14H4V11.5C4 10.6716 4.67157 10 5.5 10H6V8H3.5ZM7.5 10H7V8H9.5C10.3284 8 11 8.67157 11 9.5V12.5C11 13.3284 10.3284 14 9.5 14H9V11.5C9 10.6716 8.32843 10 7.5 10ZM8 11.5V14H5V11.5C5 11.2239 5.22386 11 5.5 11H7.5C7.77614 11 8 11.2239 8 11.5Z" fill="black" style="fill:black;fill-opacity:1;"/>
</svg>
