<svg width="16" height="16" viewBox="0 0 16 16" fill="none" xmlns="http://www.w3.org/2000/svg">
<path fill-rule="evenodd" clip-rule="evenodd" d="M11 3.5C10.1716 3.5 9.5 4.17157 9.5 5C9.5 5.82843 10.1716 6.5 11 6.5C11.8284 6.5 12.5 5.82843 12.5 5C12.5 4.17157 11.8284 3.5 11 3.5ZM10.5 5C10.5 4.72386 10.7239 4.5 11 4.5C11.2761 4.5 11.5 4.72386 11.5 5C11.5 5.27614 11.2761 5.5 11 5.5C10.7239 5.5 10.5 5.27614 10.5 5Z" fill="black" style="fill:black;fill-opacity:1;"/>
<path fill-rule="evenodd" clip-rule="evenodd" d="M9.85366 0.5H12.146L12.5694 2.12063L12.7974 2.24662L14.4726 1.78806L15.6383 3.72025L14.3735 4.89059V5.10941L15.6383 6.27975L14.4726 8.21194L12.7974 7.75338L12.5694 7.87937L12.146 9.5H9.85366L9.43027 7.87937L9.20224 7.75338L7.52708 8.21194L6.36133 6.27975L7.62619 5.10941V4.89059L6.36133 3.72025L7.52708 1.78806L9.20224 2.24662L9.43027 2.12063L9.85366 0.5ZM13.3735 5.54653L14.3613 6.46057L14.0071 7.04773L12.6695 6.68158L11.7103 7.21153L11.3737 8.5H10.626L10.2894 7.21154L9.33015 6.68158L7.99258 7.04773L7.63833 6.46057L8.62619 5.54653V4.45347L7.63833 3.53943L7.99258 2.95227L9.33015 3.31842L10.2894 2.78846L10.626 1.5H11.3737L11.7103 2.78847L12.6695 3.31842L14.0071 2.95227L14.3613 3.53943L13.3735 4.45347V5.54653Z" fill="black" style="fill:black;fill-opacity:1;"/>
<path d="M3 2H5.5V3H4V13H12V11H13V14H3V2Z" fill="black" style="fill:black;fill-opacity:1;"/>
<path d="M5 10H8.5V9H5V10Z" fill="black" style="fill:black;fill-opacity:1;"/>
<path d="M5 12H11V11H5V12Z" fill="black" style="fill:black;fill-opacity:1;"/>
</svg>
