<svg width="16" height="16" viewBox="0 0 16 16" fill="none" xmlns="http://www.w3.org/2000/svg">
<path d="M5 6H11V5H5V6Z" fill="black" style="fill:black;fill-opacity:1;"/>
<path d="M5 8H11V7H5V8Z" fill="black" style="fill:black;fill-opacity:1;"/>
<path d="M5 10H11V9H5V10Z" fill="black" style="fill:black;fill-opacity:1;"/>
<path fill-rule="evenodd" clip-rule="evenodd" d="M9.25 1.50001V1L6.75 1.00005V1.50004C6.75 1.77618 6.52614 2.00004 6.25 2.00004C5.97386 2.00004 5.75 1.77618 5.75 1.50004V1.00005L3 1V14.0001L5.75 14V13.5C5.75 13.2239 5.97386 13 6.25 13C6.52614 13 6.75 13.2239 6.75 13.5V14L9.25 14.0001V13.5C9.25 13.2239 9.47386 13 9.75 13C10.0261 13 10.25 13.2239 10.25 13.5V14L13 14.0001V1.00001H10.25V1.50001C10.25 1.77615 10.0261 2.00001 9.75 2.00001C9.47386 2.00001 9.25 1.77615 9.25 1.50001ZM4 13V2.00002L4.83535 2.00003C5.04127 2.58263 5.59689 3.00004 6.25 3.00004C6.90311 3.00004 7.45873 2.58263 7.66465 2.00003L8.33536 2.00002C8.54128 2.58261 9.09689 3.00001 9.75 3.00001C10.4031 3.00001 10.9587 2.58261 11.1646 2.00001H12V13L11.1646 13C10.9587 12.4174 10.4031 12 9.75 12C9.09689 12 8.54128 12.4174 8.33536 13L7.66465 13C7.45873 12.4174 6.90311 12 6.25 12C5.59689 12 5.04127 12.4174 4.83535 13L4 13Z" fill="black" style="fill:black;fill-opacity:1;"/>
</svg>
