<svg width="16" height="16" viewBox="0 0 16 16" fill="none" xmlns="http://www.w3.org/2000/svg">
<path d="M8.5 5.60742C9.51548 5.84532 10.25 6.7928 10.25 7.8877H9.25C9.25 7.12575 8.66765 6.5498 8 6.5498C7.43621 6.5498 6.93288 6.96038 6.79004 7.54688L10.25 8.75781V9.1123C10.25 10.2072 9.51548 11.1547 8.5 11.3926V12H7.5V11.3926C6.48452 11.1547 5.75 10.2072 5.75 9.1123H6.75C6.75 9.87425 7.33235 10.4502 8 10.4502C8.56379 10.4502 9.06712 10.0396 9.20996 9.45312L5.75 8.24219V7.8877C5.75 6.7928 6.48452 5.84532 7.5 5.60742V5H8.5V5.60742Z" fill="black" style="fill:black;fill-opacity:1;"/>
<path fill-rule="evenodd" clip-rule="evenodd" d="M13 5.29297V14H3V2H9.70703L13 5.29297ZM4 13H12V5.70703L9.29297 3H4V13Z" fill="black" style="fill:black;fill-opacity:1;"/>
</svg>
