<svg width="16" height="16" viewBox="0 0 16 16" fill="none" xmlns="http://www.w3.org/2000/svg">
<path d="M8 7C8.27614 7 8.5 7.22386 8.5 7.5V8.5C8.5 8.77614 8.27614 9 8 9C7.72386 9 7.5 8.77614 7.5 8.5V7.5C7.5 7.22386 7.72386 7 8 7Z" fill="black" style="fill:black;fill-opacity:1;"/>
<path fill-rule="evenodd" clip-rule="evenodd" d="M3 3.5C3 2.11929 4.11929 1 5.5 1H10.5C11.8807 1 13 2.11929 13 3.5V8.5C13 9.88071 11.8807 11 10.5 11H5.5C4.11929 11 3 9.88071 3 8.5V3.5ZM10 10V6H6V10H10ZM11 9.91465V6C11 5.44772 10.5523 5 10 5H6C5.44772 5 5 5.44772 5 6V9.91465C4.4174 9.70873 4 9.15311 4 8.5V3.5C4 2.67157 4.67157 2 5.5 2H10.5C11.3284 2 12 2.67157 12 3.5V8.5C12 9.15311 11.5826 9.70873 11 9.91465Z" fill="black" style="fill:black;fill-opacity:1;"/>
<path fill-rule="evenodd" clip-rule="evenodd" d="M3 13.5C3 12.6716 3.67157 12 4.5 12H11.5C12.3284 12 13 12.6716 13 13.5C13 14.3284 12.3284 15 11.5 15H4.5C3.67157 15 3 14.3284 3 13.5ZM4.5 13C4.22386 13 4 13.2239 4 13.5C4 13.7761 4.22386 14 4.5 14H11.5C11.7761 14 12 13.7761 12 13.5C12 13.2239 11.7761 13 11.5 13H4.5Z" fill="black" style="fill:black;fill-opacity:1;"/>
</svg>
