<svg width="16" height="16" viewBox="0 0 16 16" fill="none" xmlns="http://www.w3.org/2000/svg">
<path fill-rule="evenodd" clip-rule="evenodd" d="M7.99988 1.5C8.82831 1.5 9.49988 2.17157 9.49988 3C9.49988 3.82843 8.82831 4.5 7.99988 4.5C7.76835 4.49998 7.55015 4.44526 7.35437 4.35156L4.35339 7.35352C3.85835 7.84861 3.85833 8.6514 4.35339 9.14648C4.84847 9.64156 5.65126 9.64153 6.14636 9.14648L9.14636 6.14648C10.032 5.26087 11.4678 5.26088 12.3534 6.14648C13.239 7.0321 13.239 8.4679 12.3534 9.35352L9.35144 12.3545C9.44514 12.5503 9.49988 12.7684 9.49988 13C9.49988 13.8284 8.82831 14.5 7.99988 14.5C7.17152 14.4999 6.49988 13.8284 6.49988 13C6.49988 12.1716 7.17152 11.5001 7.99988 11.5C8.2309 11.5 8.44895 11.5542 8.64441 11.6475L11.6464 8.64648C12.1415 8.15139 12.1415 7.34861 11.6464 6.85352C11.1513 6.35844 10.3485 6.35843 9.85339 6.85352L6.85339 9.85352C5.96777 10.7391 4.53197 10.7391 3.64636 9.85352C2.76077 8.96791 2.76079 7.5321 3.64636 6.64648L6.64734 3.64453C6.55403 3.44905 6.49988 3.23105 6.49988 3C6.49988 2.17162 7.17152 1.50008 7.99988 1.5ZM7.99988 12.5C7.7238 12.5001 7.49988 12.7239 7.49988 13C7.49988 13.2761 7.7238 13.4999 7.99988 13.5C8.27602 13.5 8.49988 13.2761 8.49988 13C8.49988 12.7239 8.27602 12.5 7.99988 12.5ZM7.99988 2.5C7.7238 2.50008 7.49988 2.72391 7.49988 3C7.49988 3.27609 7.7238 3.49992 7.99988 3.5C8.27602 3.5 8.49988 3.27614 8.49988 3C8.49988 2.72386 8.27602 2.5 7.99988 2.5Z" fill="black" style="fill:black;fill-opacity:1;"/>
</svg>
