<svg width="16" height="16" viewBox="0 0 16 16" fill="none" xmlns="http://www.w3.org/2000/svg">
<path d="M12 6V8.97461H5.41613L6.58794 10.1464L5.88082 10.8535L4 8.97267V7.97711L5.88076 6.0963L6.58787 6.80339L5.41669 7.97461H11V6H12Z" fill="black" style="fill:black;fill-opacity:1;"/>
<path fill-rule="evenodd" clip-rule="evenodd" d="M1 4.5C1 3.67157 1.67157 3 2.5 3H13.5C14.3284 3 15 3.67157 15 4.5V11.5C15 12.3284 14.3284 13 13.5 13H2.5C1.67157 13 1 12.3284 1 11.5V4.5ZM2.5 4C2.22386 4 2 4.22386 2 4.5V11.5C2 11.7761 2.22386 12 2.5 12H13.5C13.7761 12 14 11.7761 14 11.5V4.5C14 4.22386 13.7761 4 13.5 4H2.5Z" fill="black" style="fill:black;fill-opacity:1;"/>
</svg>
