<svg width="16" height="16" viewBox="0 0 16 16" fill="none" xmlns="http://www.w3.org/2000/svg">
<path d="M8.88914 4.75H9.38652L8.82677 6.98902L10.375 7.43134V8.03025L7.15525 11.25H6.64256L7.18946 8.51549L5.625 8.0685V7.47011L8.88914 4.75Z" fill="black" style="fill:black;fill-opacity:1;"/>
<path fill-rule="evenodd" clip-rule="evenodd" d="M14.0002 8C14.0002 11.3137 11.314 14 8.00024 14C4.68654 14 2.00024 11.3137 2.00024 8C2.00024 4.68629 4.68654 2 8.00024 2C11.314 2 14.0002 4.68629 14.0002 8ZM13.0002 8C13.0002 10.7614 10.7617 13 8.00024 13C5.23882 13 3.00024 10.7614 3.00024 8C3.00024 5.23858 5.23882 3 8.00024 3C10.7617 3 13.0002 5.23858 13.0002 8Z" fill="black" style="fill:black;fill-opacity:1;"/>
</svg>
