<svg width="16" height="16" viewBox="0 0 16 16" fill="none" xmlns="http://www.w3.org/2000/svg">
<path d="M7.95686 11.2463L7.35626 8.64368L4.75367 8.04308L4.52881 9.01747L6.52241 9.47754L6.98247 11.4711L7.95686 11.2463Z" fill="black" style="fill:black;fill-opacity:1;"/>
<path d="M10.2126 5.15002L5.96997 6.56424L6.01565 7.52577L8.00925 7.98584L8.46932 9.97944L9.43085 10.0251L10.8451 5.78248L10.2126 5.15002Z" fill="black" style="fill:black;fill-opacity:1;"/>
<path fill-rule="evenodd" clip-rule="evenodd" d="M8.00024 14C11.314 14 14.0002 11.3137 14.0002 8C14.0002 4.68629 11.314 2 8.00024 2C4.68654 2 2.00024 4.68629 2.00024 8C2.00024 11.3137 4.68654 14 8.00024 14ZM8.00024 13C10.7617 13 13.0002 10.7614 13.0002 8C13.0002 5.23858 10.7617 3 8.00024 3C5.23882 3 3.00024 5.23858 3.00024 8C3.00024 10.7614 5.23882 13 8.00024 13Z" fill="black" style="fill:black;fill-opacity:1;"/>
</svg>
