<svg width="16" height="16" viewBox="0 0 16 16" fill="none" xmlns="http://www.w3.org/2000/svg">
<path fill-rule="evenodd" clip-rule="evenodd" d="M14 8C14 11.3137 11.3137 14 8 14C4.68629 14 2 11.3137 2 8C2 4.68629 4.68629 2 8 2C11.3137 2 14 4.68629 14 8ZM8.00024 4.25C7.07345 4.25 6.50024 5.14337 6.50024 6C6.50024 6.8566 7.07345 7.75 8.00024 7.75C8.927 7.75 9.50024 6.85661 9.50024 6C9.50024 5.14336 8.927 4.25 8.00024 4.25ZM10.5995 9.43909L10.5345 9.38709C9.05288 8.2018 6.94761 8.2018 5.466 9.38709L5.40099 9.43909C5.14769 9.64173 5.00024 9.94851 5.00024 10.2729C5.00024 10.6745 5.32578 11 5.72736 11H10.2731C10.6747 11 11.0002 10.6745 11.0002 10.2729C11.0002 9.94851 10.8528 9.64173 10.5995 9.43909Z" fill="black" style="fill:black;fill-opacity:1;"/>
</svg>
