<svg width="16" height="16" viewBox="0 0 16 16" fill="none" xmlns="http://www.w3.org/2000/svg">
<path d="M9.53041 6.46967C9.23751 6.17678 8.76264 6.17678 8.46975 6.46967C8.17685 6.76256 8.17685 7.23744 8.46975 7.53033C8.76264 7.82322 9.23751 7.82322 9.53041 7.53033C9.8233 7.23744 9.8233 6.76256 9.53041 6.46967Z" fill="black" style="fill:black;fill-opacity:1;"/>
<path fill-rule="evenodd" clip-rule="evenodd" d="M8 14C11.3137 14 14 11.3137 14 8C14 4.68629 11.3137 2 8 2C4.68629 2 2 4.68629 2 8C2 11.3137 4.68629 14 8 14ZM7.76264 5.76256C8.44606 5.07915 9.55409 5.07915 10.2375 5.76256C10.9209 6.44598 10.9209 7.55402 10.2375 8.23744C9.67695 8.798 8.83071 8.89877 8.16744 8.53975L7.49384 9.21334L8.01527 9.73478L7.13409 10.616L6.61266 10.0945L5.70711 11.0001L5 10.293L7.46033 7.83264C7.10131 7.16937 7.20208 6.32313 7.76264 5.76256Z" fill="black" style="fill:black;fill-opacity:1;"/>
</svg>
