<svg width="16" height="16" viewBox="0 0 16 16" fill="none" xmlns="http://www.w3.org/2000/svg">
<path fill-rule="evenodd" clip-rule="evenodd" d="M8.00024 4.25C7.07345 4.25 6.50024 5.14337 6.50024 6C6.50024 6.8566 7.07345 7.75 8.00024 7.75C8.927 7.75 9.50024 6.85661 9.50024 6C9.50024 5.14336 8.927 4.25 8.00024 4.25Z" fill="black" style="fill:black;fill-opacity:1;"/>
<path fill-rule="evenodd" clip-rule="evenodd" d="M10.5995 9.4391L10.5345 9.38709C9.05288 8.2018 6.94761 8.2018 5.466 9.38709L5.40099 9.43909C5.14769 9.64173 5.00024 9.94851 5.00024 10.2729C5.00024 10.6745 5.32578 11 5.72736 11H10.2731C10.6747 11 11.0002 10.6745 11.0002 10.2729C11.0002 9.94851 10.8528 9.64173 10.5995 9.4391Z" fill="black" style="fill:black;fill-opacity:1;"/>
<path fill-rule="evenodd" clip-rule="evenodd" d="M14.0002 8C14.0002 11.3137 11.314 14 8.00024 14C4.68654 14 2.00024 11.3137 2.00024 8C2.00024 4.68629 4.68654 2 8.00024 2C11.314 2 14.0002 4.68629 14.0002 8ZM13.0002 8C13.0002 10.7614 10.7617 13 8.00024 13C5.23882 13 3.00024 10.7614 3.00024 8C3.00024 5.23858 5.23882 3 8.00024 3C10.7617 3 13.0002 5.23858 13.0002 8Z" fill="black" style="fill:black;fill-opacity:1;"/>
</svg>
