<svg width="16" height="16" viewBox="0 0 16 16" fill="none" xmlns="http://www.w3.org/2000/svg">
<path d="M7.49991 10V6H8.49991V10H7.49991Z" fill="black" style="fill:black;fill-opacity:1;"/>
<path d="M7.49991 12V11H8.49991V12H7.49991Z" fill="black" style="fill:black;fill-opacity:1;"/>
<path fill-rule="evenodd" clip-rule="evenodd" d="M9.28065 2.7377C8.69562 1.7798 7.30434 1.78022 6.7199 2.73849L1.23053 11.7389C0.620892 12.7385 1.34034 14.02 2.51114 14.02H13.4974C14.6686 14.02 15.388 12.7377 14.7776 11.7382L9.28065 2.7377ZM7.57364 3.25918C7.76846 2.93976 8.23221 2.93962 8.42722 3.25892L13.9241 12.2594C14.1276 12.5926 13.8878 13.02 13.4974 13.02H2.51114C2.12087 13.02 1.88106 12.5928 2.08427 12.2596L7.57364 3.25918Z" fill="black" style="fill:black;fill-opacity:1;"/>
</svg>
