<svg width="16" height="16" viewBox="0 0 16 16" fill="none" xmlns="http://www.w3.org/2000/svg">
<path d="M3.5 3C3.22386 3 3 3.22386 3 3.5V12.5C3 12.7761 3.22386 13 3.5 13H12.5C12.7761 13 13 12.7761 13 12.5V8H14V12.5C14 13.3284 13.3284 14 12.5 14H3.5C2.67157 14 2 13.3284 2 12.5V3.5C2 2.67157 2.67157 2 3.5 2H8V3H3.5Z" fill="black" style="fill:black;fill-opacity:1;"/>
<path d="M10 3H12.2929L8.14645 7.14645L8.85355 7.85356L13 3.70711V6H14V2H10V3Z" fill="black" style="fill:black;fill-opacity:1;"/>
</svg>
