<svg width="16" height="16" viewBox="0 0 16 16" fill="none" xmlns="http://www.w3.org/2000/svg">
<path fill-rule="evenodd" clip-rule="evenodd" d="M8 6C6.89543 6 6 6.89543 6 8C6 9.10457 6.89543 10 8 10C9.10457 10 10 9.10457 10 8C10 6.89543 9.10457 6 8 6ZM7 8C7 7.44772 7.44772 7 8 7C8.55228 7 9 7.44772 9 8C9 8.55228 8.55228 9 8 9C7.44772 9 7 8.55228 7 8Z" fill="black" style="fill:black;fill-opacity:1;"/>
<path fill-rule="evenodd" clip-rule="evenodd" d="M1 7.51474C1.75407 5.75959 4.07689 3 8 3C11.9273 3 14.2487 5.76543 15 7.52016V8.47984C14.2487 10.2346 11.9273 13 8 13C4.07689 13 1.75407 10.2404 1 8.48526V7.51474ZM8 12C4.50597 12 2.46708 9.47009 1.88094 8C2.46708 6.52991 4.50597 4 8 4C11.4939 4 13.5307 6.52973 14.1167 8C13.5307 9.47026 11.4939 12 8 12Z" fill="black" style="fill:black;fill-opacity:1;"/>
</svg>
