<svg width="16" height="16" viewBox="0 0 16 16" fill="none" xmlns="http://www.w3.org/2000/svg">
<path fill-rule="evenodd" clip-rule="evenodd" d="M1.14648 14.1464L3.64549 11.6474C2.29211 10.7028 1.41199 9.44429 1 8.48547V7.51453C1.75416 5.75937 4.07696 3 7.99991 3C9.34498 3 10.5017 3.32439 11.4714 3.82146L14.1465 1.14642L14.8536 1.85353L1.85359 14.8535L1.14648 14.1464ZM1.88084 8C2.22073 8.85245 3.04909 10.0613 4.36639 10.9265L6.27692 9.01599C6.10097 8.71823 6 8.37091 6 8C6 6.89543 6.89543 6 8 6C8.37091 6 8.71823 6.10097 9.01599 6.27692L10.7206 4.57229C9.94137 4.22183 9.03452 4 7.99991 4C4.50588 4 2.46699 6.52991 1.88084 8ZM8.25903 7.03387L7.03387 8.25903C7.01178 8.17642 7 8.08958 7 8C7 7.44772 7.44772 7 8 7C8.08958 7 8.17642 7.01178 8.25903 7.03387Z" fill="black" style="fill:black;fill-opacity:1;"/>
<path d="M7.99973 13C7.11361 13 6.30913 12.8592 5.58594 12.621L6.3958 11.8112C6.89119 11.9318 7.42583 12 7.99973 12C11.4936 12 13.5304 9.47029 14.1165 8.00002C13.8563 7.34729 13.3102 6.48574 12.4775 5.72943L13.1849 5.02203C14.0761 5.84387 14.6801 6.77367 14.9998 7.5204V8.47965C14.2486 10.2344 11.9272 13 7.99973 13Z" fill="black" style="fill:black;fill-opacity:1;"/>
<path d="M10 8C10 9.10457 9.10457 10 8 10L10 8Z" fill="black" style="fill:black;fill-opacity:1;"/>
</svg>
