<svg width="16" height="16" viewBox="0 0 16 16" fill="none" xmlns="http://www.w3.org/2000/svg">
<path fill-rule="evenodd" clip-rule="evenodd" d="M11.5 2.5V3H11V6H15V3H14.5V2.5C14.5 1.67157 13.8284 1 13 1C12.1716 1 11.5 1.67157 11.5 2.5ZM13 2C12.7239 2 12.5 2.22386 12.5 2.5V3H13.5V2.5C13.5 2.22386 13.2761 2 13 2ZM12 5V4H14V5H12Z" fill="black" style="fill:black;fill-opacity:1;"/>
<path d="M1.88094 8C2.46708 9.47009 4.50597 12 8 12C11.4939 12 13.5307 9.47026 14.1167 8L15 8V8.47984C14.2487 10.2346 11.9273 13 8 13C4.07689 13 1.75407 10.2404 1 8.48526V7.51474C1.75407 5.75959 4.07689 3 8 3C8.34577 3 8.6791 3.02144 9 3.06173V4.07165C8.6811 4.02506 8.34777 4 8 4C4.50597 4 2.46708 6.52991 1.88094 8Z" fill="black" style="fill:black;fill-opacity:1;"/>
<path fill-rule="evenodd" clip-rule="evenodd" d="M6 8C6 6.89543 6.89543 6 8 6C9.10457 6 10 6.89543 10 8C10 9.10457 9.10457 10 8 10C6.89543 10 6 9.10457 6 8ZM8 7C7.44772 7 7 7.44772 7 8C7 8.55228 7.44772 9 8 9C8.55228 9 9 8.55228 9 8C9 7.44772 8.55228 7 8 7Z" fill="black" style="fill:black;fill-opacity:1;"/>
</svg>
