<svg width="16" height="16" viewBox="0 0 16 16" fill="none" xmlns="http://www.w3.org/2000/svg">
<path fill-rule="evenodd" clip-rule="evenodd" d="M4 3C4 3.27898 3.88575 3.53129 3.7015 3.71267L3.9589 4.60642C4.9386 4.06524 6.53972 3.5407 8.25725 4.57122C9.12807 5.09371 9.84668 5.06771 10.3922 4.85973C10.8928 4.66887 11.2788 4.31154 11.5023 4H12.499L14.043 9.06675L13.9287 9.25724C13.6376 9.74252 13.0645 10.3757 12.2601 10.7218C11.4269 11.0803 10.3825 11.1126 9.24275 10.4287C7.81681 9.57316 6.47863 10.1329 5.69325 10.6283L6.37632 13H8V14H4V13H5.33567L2.73324 3.96403C2.31046 3.84729 2 3.4599 2 3C2 2.44772 2.44772 2 3 2C3.55228 2 4 2.44772 4 3ZM5.40726 9.63531L4.24408 5.59658C5.03556 5.10971 6.34712 4.59133 7.74275 5.42871C8.87193 6.10622 9.91113 6.11335 10.7484 5.79412C11.1612 5.63676 11.5155 5.40397 11.8034 5.14775L12.9529 8.91985C12.7203 9.23628 12.343 9.59745 11.8649 9.8032C11.3231 10.0363 10.6175 10.0874 9.75725 9.57123C8.0092 8.5224 6.38173 9.08439 5.40726 9.63531Z" fill="black" style="fill:black;fill-opacity:1;"/>
</svg>
