<svg width="16" height="16" viewBox="0 0 16 16" fill="none" xmlns="http://www.w3.org/2000/svg">
<path fill-rule="evenodd" clip-rule="evenodd" d="M3.70149 3.71267C3.88575 3.53129 4 3.27899 4 3C4 2.44772 3.55228 2 3 2C2.44772 2 2 2.44772 2 3C2 3.4599 2.31046 3.84729 2.73324 3.96402L5.33567 13H4V14H8V13H6.37632L5.69325 10.6283C6.47863 10.1329 7.81682 9.57317 9.24276 10.4287C10.3825 11.1126 11.4269 11.0803 12.2601 10.7218C13.0645 10.3757 13.6376 9.74253 13.9288 9.25725L14.0431 9.06676L12.4991 4H11.5023C11.2789 4.31155 10.8928 4.66888 10.3922 4.85974C9.8467 5.06772 9.12809 5.09373 8.25726 4.57123C6.53973 3.54071 4.93861 4.06525 3.95891 4.60644L3.70149 3.71267Z" fill="black" style="fill:black;fill-opacity:1;"/>
</svg>
