<svg width="16" height="16" viewBox="0 0 16 16" fill="none" xmlns="http://www.w3.org/2000/svg">
<path fill-rule="evenodd" clip-rule="evenodd" d="M14 2H2V14H11.7071L14 11.7071V2ZM3 13V3H4V5.5C4 6.32843 4.67157 7 5.5 7H10.5C11.3284 7 12 6.32843 12 5.5V3H13V11.2929L11.2929 13H11V10.5C11 9.67157 10.3284 9 9.5 9H6.5C5.67157 9 5 9.67157 5 10.5V13H3ZM10 10.5V13H8V11H7V13H6V10.5C6 10.2239 6.22386 10 6.5 10H9.5C9.77614 10 10 10.2239 10 10.5ZM11 3H5V5.5C5 5.77614 5.22386 6 5.5 6H10.5C10.7761 6 11 5.77614 11 5.5V3Z" fill="black" style="fill:black;fill-opacity:1;"/>
</svg>
