<svg width="16" height="16" viewBox="0 0 16 16" fill="none" xmlns="http://www.w3.org/2000/svg">
<path d="M5 8H6V7H5V8Z" fill="black" style="fill:black;fill-opacity:1;"/>
<path d="M9 8H10V7H9V8Z" fill="black" style="fill:black;fill-opacity:1;"/>
<path fill-rule="evenodd" clip-rule="evenodd" d="M4.5 1C3.67157 1 3 1.67157 3 2.5V14H12V10H12.5C13.3284 10 14 9.32843 14 8.5V4H13V8.5C13 8.77614 12.7761 9 12.5 9H12V2.5C12 1.67157 11.3284 1 10.5 1H4.5ZM4 2.5C4 2.22386 4.22386 2 4.5 2L10.5 2C10.7761 2 11 2.22386 11 2.5V4H4V2.5ZM11 12.9408H4V5H11V12.9408Z" fill="black" style="fill:black;fill-opacity:1;"/>
</svg>
