<svg width="16" height="16" viewBox="0 0 16 16" fill="none" xmlns="http://www.w3.org/2000/svg">
<path d="M5.5 7C6.32843 7 7 6.32843 7 5.5L7 2H6L6 5.5C6 5.77614 5.77614 6 5.5 6L2 6V7L5.5 7Z" fill="black" style="fill:black;fill-opacity:1;"/>
<path d="M10.5 9C9.67157 9 9 9.67157 9 10.5L9 14H10L10 10.5C10 10.2239 10.2239 10 10.5 10L14 10V9L10.5 9Z" fill="black" style="fill:black;fill-opacity:1;"/>
<path d="M10.5 7C9.67157 7 9 6.32843 9 5.5V2H10V5.5C10 5.77614 10.2239 6 10.5 6H14V7H10.5Z" fill="black" style="fill:black;fill-opacity:1;"/>
<path d="M7 10.5C7 9.67157 6.32843 9 5.5 9L2 9V10H5.5C5.77614 10 6 10.2239 6 10.5L6 14H7L7 10.5Z" fill="black" style="fill:black;fill-opacity:1;"/>
</svg>
