<svg width="16" height="16" viewBox="0 0 16 16" fill="none" xmlns="http://www.w3.org/2000/svg">
<path d="M6.21426 6.25039C6.6686 5.78674 7.30036 5.5 8 5.5C8.69964 5.5 9.3314 5.78674 9.78574 6.25039C10.2281 6.7018 10.5 7.31865 10.5 8H11.5C11.5 7.04652 11.1181 6.18124 10.5 5.55049C9.8653 4.90281 8.97924 4.5 8 4.5C7.02076 4.5 6.1347 4.90281 5.50002 5.55049C4.88193 6.18124 4.5 7.04652 4.5 8H5.5C5.5 7.31865 5.77191 6.7018 6.21426 6.25039Z" fill="black" style="fill:black;fill-opacity:1;"/>
<path d="M9 10.5C9 11.0523 8.55228 11.5 8 11.5C7.44772 11.5 7 11.0523 7 10.5C7 10.1299 7.2011 9.80669 7.5 9.63378V7H8.5V9.63378C8.7989 9.80669 9 10.1299 9 10.5Z" fill="black" style="fill:black;fill-opacity:1;"/>
<path fill-rule="evenodd" clip-rule="evenodd" d="M8 2C4.68629 2 2 4.68629 2 8C2 11.3137 4.68629 14 8 14C11.3137 14 14 11.3137 14 8C14 4.68629 11.3137 2 8 2ZM3 8C3 5.23858 5.23858 3 8 3C10.7614 3 13 5.23858 13 8C13 10.7614 10.7614 13 8 13C5.23858 13 3 10.7614 3 8Z" fill="black" style="fill:black;fill-opacity:1;"/>
</svg>
