<svg width="16" height="16" viewBox="0 0 16 16" fill="none" xmlns="http://www.w3.org/2000/svg">
<path fill-rule="evenodd" clip-rule="evenodd" d="M8.00007 6C6.8955 6 6.00007 6.89543 6.00007 8C6.00007 9.10457 6.8955 10 8.00007 10C9.10464 10 10.0001 9.10457 10.0001 8C10.0001 6.89543 9.10464 6 8.00007 6ZM7.00007 8C7.00007 7.44772 7.44779 7 8.00007 7C8.55236 7 9.00007 7.44772 9.00007 8C9.00007 8.55228 8.55236 9 8.00007 9C7.44779 9 7.00007 8.55228 7.00007 8Z" fill="black" style="fill:black;fill-opacity:1;"/>
<path fill-rule="evenodd" clip-rule="evenodd" d="M9.43122 2H6.5689L6.00301 4.16609L5.55237 4.41506L3.31233 3.80187L1.86157 6.20644L3.54882 7.7676L3.54882 8.2324L1.86157 9.79357L3.31233 12.1981L5.55237 11.5849L6.00301 11.8339L6.5689 14H9.43122L9.99711 11.8339L10.4478 11.5849L12.6878 12.1981L14.1386 9.79357L12.4513 8.2324L12.4513 7.7676L14.1386 6.20644L12.6878 3.80187L10.4478 4.41506L9.99711 4.16608L9.43122 2ZM6.8621 4.83391L7.34121 3H8.6589L9.13802 4.83392L10.3199 5.48687L12.2223 4.96609L12.8616 6.02562L11.4513 7.33048L11.4513 8.66953L12.8616 9.97439L12.2223 11.0339L10.3199 10.5131L9.13802 11.1661L8.6589 13H7.34121L6.8621 11.1661L5.68028 10.5131L3.77783 11.0339L3.13858 9.97439L4.54882 8.66953L4.54882 7.33048L3.13858 6.02562L3.77783 4.96609L5.68029 5.48687L6.8621 4.83391Z" fill="black" style="fill:black;fill-opacity:1;"/>
</svg>
