<svg width="16" height="16" viewBox="0 0 16 16" fill="none" xmlns="http://www.w3.org/2000/svg">
<path d="M8.43122 1H5.5689L5.00301 3.16609L4.55237 3.41506L2.31233 2.80187L0.861572 5.20644L2.54882 6.7676L2.54882 7.2324L0.861572 8.79357L2.31233 11.1981L4.55237 10.5849L5.00301 10.8339L5.5689 13H7.00007V12H6.34121L5.8621 10.1661L4.68028 9.51314L2.77783 10.0339L2.13858 8.97439L3.54882 7.66953L3.54882 6.33048L2.13858 5.02562L2.77783 3.96609L4.68029 4.48687L5.8621 3.83391L6.34121 2H7.6589L8.13802 3.83392L9.31987 4.48687L11.2223 3.96609L11.8616 5.02562L10.4513 6.33048V7H11.4513V6.7676L13.1386 5.20644L11.6878 2.80187L9.44777 3.41506L8.99711 3.16608L8.43122 1Z" fill="black" style="fill:black;fill-opacity:1;"/>
<path fill-rule="evenodd" clip-rule="evenodd" d="M7.00008 5C5.89551 5 5.00008 5.89543 5.00008 7C5.00008 8.10457 5.89551 9 7.00008 9C8.10465 9 9.00008 8.10457 9.00008 7C9.00008 5.89543 8.10465 5 7.00008 5ZM6.00008 7C6.00008 6.44772 6.44779 6 7.00008 6C7.55236 6 8.00008 6.44772 8.00008 7C8.00008 7.55228 7.55236 8 7.00008 8C6.44779 8 6.00008 7.55228 6.00008 7Z" fill="black" style="fill:black;fill-opacity:1;"/>
<path d="M13.2173 10.7626L11.0455 12.9344L9.78289 11.6717L10.49 10.9646L11.0455 11.5202L12.5102 10.0555L13.2173 10.7626Z" fill="black" style="fill:black;fill-opacity:1;"/>
<path fill-rule="evenodd" clip-rule="evenodd" d="M11.5001 8C9.56708 8 8.00008 9.567 8.00008 11.5C8.00008 13.433 9.56708 15 11.5001 15C13.4331 15 15.0001 13.433 15.0001 11.5C15.0001 9.567 13.4331 8 11.5001 8ZM9.00008 11.5C9.00008 10.1193 10.1194 9 11.5001 9C12.8808 9 14.0001 10.1193 14.0001 11.5C14.0001 12.8807 12.8808 14 11.5001 14C10.1194 14 9.00008 12.8807 9.00008 11.5Z" fill="black" style="fill:black;fill-opacity:1;"/>
</svg>
