<svg width="16" height="16" viewBox="0 0 16 16" fill="none" xmlns="http://www.w3.org/2000/svg">
<path fill-rule="evenodd" clip-rule="evenodd" d="M6.5341 2.18048C6.68053 1.50556 7.28123 1 8 1C8.71878 1 9.31947 1.50556 9.4659 2.18048C11.6022 2.71699 13.283 4.39778 13.8195 6.53411C14.4944 6.68053 15 7.28123 15 8C15 8.71877 14.4944 9.31946 13.8195 9.46589C13.283 11.6022 11.6022 13.283 9.46589 13.8195C9.31946 14.4944 8.71877 15 8 15C7.28123 15 6.68054 14.4945 6.53411 13.8195C4.39779 13.283 2.71699 11.6022 2.18048 9.4659C1.50556 9.31947 1 8.71877 1 8C1 7.28123 1.50556 6.68053 2.18048 6.5341C2.71699 4.39779 4.39779 2.71699 6.5341 2.18048ZM8 2C7.72386 2 7.5 2.22386 7.5 2.5C7.5 2.77614 7.72386 3 8 3C8.27614 3 8.5 2.77614 8.5 2.5C8.5 2.22386 8.27614 2 8 2ZM6.66296 3.18066C4.97661 3.64744 3.64744 4.97661 3.18065 6.66296C3.66697 6.91103 4 7.41662 4 8C4 8.58338 3.66697 9.08897 3.18065 9.33704C3.64744 11.0234 4.9766 12.3526 6.66296 12.8194C6.91102 12.333 7.41662 12 8 12C8.58338 12 9.08898 12.333 9.33704 12.8194C11.0234 12.3526 12.3526 11.0234 12.8194 9.33704C12.333 9.08898 12 8.58338 12 8C12 7.41662 12.333 6.91102 12.8194 6.66296C12.3526 4.9766 11.0234 3.64744 9.33704 3.18066C9.08897 3.66697 8.58338 4 8 4C7.41662 4 6.91103 3.66697 6.66296 3.18066ZM8 13C7.72386 13 7.5 13.2239 7.5 13.5C7.5 13.7761 7.72386 14 8 14C8.27614 14 8.5 13.7761 8.5 13.5C8.5 13.2239 8.27614 13 8 13ZM2 8C2 7.72386 2.22386 7.5 2.5 7.5C2.77614 7.5 3 7.72386 3 8C3 8.27614 2.77614 8.5 2.5 8.5C2.22386 8.5 2 8.27614 2 8ZM13.5 7.5C13.2239 7.5 13 7.72386 13 8C13 8.27614 13.2239 8.5 13.5 8.5C13.7761 8.5 14 8.27614 14 8C14 7.72386 13.7761 7.5 13.5 7.5Z" fill="black" style="fill:black;fill-opacity:1;"/>
</svg>
