<svg width="16" height="16" viewBox="0 0 16 16" fill="none" xmlns="http://www.w3.org/2000/svg">
<path fill-rule="evenodd" clip-rule="evenodd" d="M8 1C7.17157 1 6.5 1.67157 6.5 2.5C6.5 2.73154 6.55246 2.95083 6.64615 3.14662L3.14662 6.64615C2.95083 6.55246 2.73154 6.5 2.5 6.5C1.67157 6.5 1 7.17157 1 8C1 8.82843 1.67157 9.5 2.5 9.5C2.73155 9.5 2.95084 9.44754 3.14665 9.35384L6.64616 12.8534C6.55246 13.0492 6.5 13.2685 6.5 13.5C6.5 14.3284 7.17157 15 8 15C8.82843 15 9.5 14.3284 9.5 13.5C9.5 13.2684 9.44751 13.049 9.35378 12.8532L12.8532 9.35378C13.049 9.44751 13.2684 9.5 13.5 9.5C14.3284 9.5 15 8.82843 15 8C15 7.17157 14.3284 6.5 13.5 6.5C12.6716 6.5 12 7.17157 12 8C12 8.23154 12.0525 8.45083 12.1461 8.64663L8.64662 12.1461C8.45083 12.0525 8.23154 12 8 12C7.7684 12 7.54906 12.0525 7.35323 12.1462L3.85378 8.64677C3.94751 8.45094 4 8.2316 4 8C4 7.76839 3.94751 7.54905 3.85377 7.35321L7.35321 3.85377C7.54905 3.94751 7.76839 4 8 4C8.82843 4 9.5 3.32843 9.5 2.5C9.5 1.67157 8.82843 1 8 1ZM7.5 2.5C7.5 2.22386 7.72386 2 8 2C8.27614 2 8.5 2.22386 8.5 2.5C8.5 2.77614 8.27614 3 8 3C7.72386 3 7.5 2.77614 7.5 2.5ZM2.5 7.5C2.22386 7.5 2 7.72386 2 8C2 8.27614 2.22386 8.5 2.5 8.5C2.77614 8.5 3 8.27614 3 8C3 7.72386 2.77614 7.5 2.5 7.5ZM13.5 7.5C13.2239 7.5 13 7.72386 13 8C13 8.27614 13.2239 8.5 13.5 8.5C13.7761 8.5 14 8.27614 14 8C14 7.72386 13.7761 7.5 13.5 7.5ZM8 13C7.72386 13 7.5 13.2239 7.5 13.5C7.5 13.7761 7.72386 14 8 14C8.27614 14 8.5 13.7761 8.5 13.5C8.5 13.2239 8.27614 13 8 13Z" fill="black" style="fill:black;fill-opacity:1;"/>
</svg>
