<svg width="16" height="16" viewBox="0 0 16 16" fill="none" xmlns="http://www.w3.org/2000/svg">
<path fill-rule="evenodd" clip-rule="evenodd" d="M4.5 2.5C3.67157 2.5 3 3.17157 3 4C3 4.52232 3.26696 4.98228 3.67189 5.25089L2.35795 10.5066C1.59614 10.5782 1 11.2195 1 12C1 12.8284 1.67157 13.5 2.5 13.5C3.15311 13.5 3.70873 13.0826 3.91465 12.5H12.0854C12.2913 13.0826 12.8469 13.5 13.5 13.5C14.3284 13.5 15 12.8284 15 12C15 11.2195 14.4039 10.5782 13.642 10.5066L12.3281 5.25089C12.733 4.98229 13 4.52232 13 4C13 3.17157 12.3284 2.5 11.5 2.5C10.8469 2.5 10.2913 2.9174 10.0854 3.5H5.91465C5.70873 2.9174 5.15311 2.5 4.5 2.5ZM4 4C4 3.72386 4.22386 3.5 4.5 3.5C4.77614 3.5 5 3.72386 5 4C5 4.27614 4.77614 4.5 4.5 4.5C4.22386 4.5 4 4.27614 4 4ZM11.3579 5.49336C10.7673 5.43787 10.2762 5.03986 10.0854 4.5H5.91465C5.72383 5.03986 5.23274 5.43788 4.64204 5.49336L3.32811 10.7491C3.59712 10.9276 3.80524 11.1905 3.91465 11.5H12.0854C12.1948 11.1905 12.4029 10.9276 12.6719 10.7491L11.3579 5.49336ZM2 12C2 11.7239 2.22386 11.5 2.5 11.5C2.77614 11.5 3 11.7239 3 12C3 12.2761 2.77614 12.5 2.5 12.5C2.22386 12.5 2 12.2761 2 12ZM13.5 11.5C13.2239 11.5 13 11.7239 13 12C13 12.2761 13.2239 12.5 13.5 12.5C13.7761 12.5 14 12.2761 14 12C14 11.7239 13.7761 11.5 13.5 11.5ZM11 4C11 3.72386 11.2239 3.5 11.5 3.5C11.7761 3.5 12 3.72386 12 4C12 4.27614 11.7761 4.5 11.5 4.5C11.2239 4.5 11 4.27614 11 4Z" fill="black" style="fill:black;fill-opacity:1;"/>
</svg>
