<svg width="16" height="16" viewBox="0 0 16 16" fill="none" xmlns="http://www.w3.org/2000/svg">
<path fill-rule="evenodd" clip-rule="evenodd" d="M2 3.5C2 2.67157 2.67157 2 3.5 2C4.15311 2 4.70873 2.4174 4.91465 3H11.0854C11.2913 2.4174 11.8469 2 12.5 2C13.3284 2 14 2.67157 14 3.5C14 4.15311 13.5826 4.70873 13 4.91465V11.0854C13.5826 11.2913 14 11.8469 14 12.5C14 13.3284 13.3284 14 12.5 14C11.8469 14 11.2913 13.5826 11.0854 13H4.91465C4.70873 13.5826 4.15311 14 3.5 14C2.67157 14 2 13.3284 2 12.5C2 11.8469 2.4174 11.2913 3 11.0854V4.91465C2.4174 4.70873 2 4.15311 2 3.5ZM3.5 3C3.22386 3 3 3.22386 3 3.5C3 3.77614 3.22386 4 3.5 4C3.77614 4 4 3.77614 4 3.5C4 3.22386 3.77614 3 3.5 3ZM4 4.91465V11.0854C4.42621 11.236 4.764 11.5738 4.91465 12H11.0854C11.236 11.5738 11.5738 11.236 12 11.0854V4.91465C11.5738 4.764 11.236 4.42621 11.0854 4H4.91465C4.764 4.42621 4.42621 4.764 4 4.91465ZM3.5 12C3.22386 12 3 12.2239 3 12.5C3 12.7761 3.22386 13 3.5 13C3.77614 13 4 12.7761 4 12.5C4 12.2239 3.77614 12 3.5 12ZM12 3.5C12 3.22386 12.2239 3 12.5 3C12.7761 3 13 3.22386 13 3.5C13 3.77614 12.7761 4 12.5 4C12.2239 4 12 3.77614 12 3.5ZM12.5 12C12.2239 12 12 12.2239 12 12.5C12 12.7761 12.2239 13 12.5 13C12.7761 13 13 12.7761 13 12.5C13 12.2239 12.7761 12 12.5 12Z" fill="black" style="fill:black;fill-opacity:1;"/>
</svg>
