<svg width="16" height="16" viewBox="0 0 16 16" fill="none" xmlns="http://www.w3.org/2000/svg">
<path fill-rule="evenodd" clip-rule="evenodd" d="M8 2C4.68629 2 2 4.68629 2 8C2 11.3137 4.68629 14 8 14C11.3137 14 14 11.3137 14 8C14 4.68629 11.3137 2 8 2ZM7.21993 3.06049C6.01614 3.24908 4.95478 3.86718 4.1976 4.75305C4.91381 5.06177 5.6199 5.2678 6.3042 5.39227C6.54506 4.46534 6.88133 3.67099 7.21993 3.06049ZM3.02469 7.5C3.0929 6.81299 3.30017 6.16689 3.61795 5.59025C4.46086 5.97195 5.29235 6.22305 6.09692 6.37169C6.03742 6.73377 5.99419 7.11066 5.97153 7.5H3.02469ZM3.02469 8.5C3.09339 9.19197 3.30317 9.84244 3.62486 10.4222C4.30588 10.1181 5.13464 9.84273 6.06856 9.67362C6.00893 9.27451 5.97401 8.88266 5.96027 8.5H3.02469ZM6.96232 8.5C6.97603 8.83929 7.00812 9.18669 7.06163 9.54053C7.65964 9.48832 8.29001 9.4835 8.94365 9.54261C8.99223 9.20795 9.02528 8.85967 9.03874 8.5H6.96232ZM10.0401 8.5C10.0259 8.90692 9.98894 9.30113 9.93379 9.68005C10.7223 9.82816 11.5364 10.0748 12.3616 10.4465C12.6909 9.86062 12.9056 9.20165 12.9753 8.5H10.0401ZM12.9753 7.5H10.0278C10.0059 7.13337 9.96424 6.75884 9.89986 6.37808C10.8563 6.20782 11.7033 5.92582 12.3955 5.61476C12.7057 6.18518 12.9081 6.82271 12.9753 7.5ZM9.0243 7.5H6.97384C6.99552 7.15688 7.03469 6.82492 7.08768 6.50617C7.71828 6.56129 8.32703 6.55702 8.90574 6.50827C8.96403 6.84478 9.0027 7.17583 9.0243 7.5ZM9.68619 5.4008C10.4945 5.26043 11.2171 5.03164 11.8209 4.77478C11.0565 3.87012 9.97658 3.24062 8.75095 3.05602C9.17568 3.84795 9.47981 4.63374 9.68619 5.4008ZM7.30372 5.51978C7.77842 5.55492 8.23885 5.55328 8.68068 5.52271C8.51513 4.94104 8.28711 4.34771 7.98449 3.74942C7.735 4.23328 7.49135 4.83262 7.30372 5.51978ZM6.26333 10.6542C5.488 10.7929 4.79292 11.0126 4.20797 11.259C4.9406 12.1107 5.95525 12.7128 7.10699 12.9205C6.72179 12.1541 6.44751 11.3948 6.26333 10.6542ZM7.26472 10.5273C7.73933 10.4918 8.23578 10.4895 8.74864 10.5303C8.55529 11.3015 8.28891 11.9704 8.01551 12.5006C7.67812 11.8336 7.43347 11.1727 7.26472 10.5273ZM9.74456 10.6627C9.53434 11.5373 9.23688 12.3014 8.92595 12.9144C10.0544 12.7031 11.0493 12.1127 11.7735 11.2805C11.0842 10.9859 10.4044 10.7863 9.74456 10.6627Z" fill="black" style="fill:black;fill-opacity:1;"/>
</svg>
