<svg width="16" height="16" viewBox="0 0 16 16" fill="none" xmlns="http://www.w3.org/2000/svg">
<path fill-rule="evenodd" clip-rule="evenodd" d="M8 2C4.68629 2 2 4.68629 2 8C2 11.3137 4.68629 14 8 14C11.3137 14 14 11.3137 14 8C14 4.68629 11.3137 2 8 2ZM7.50001 3.02469C6.37512 3.13637 5.35991 3.62087 4.57967 4.35287L5.00001 5.40371V6.70711L3.04363 8.66348C3.36817 11.1113 5.46351 13 8 13C8.13095 13 8.26072 12.995 8.38914 12.9851L8.00001 12.4014V11.4571L7.5429 11H6.33334L5.00001 10V8L6.33334 7H9.80902L10.3727 8.12732L11.5 8.69098V10L10.6784 10.6162L11.1123 11.267L10.1906 12.4958C11.8541 11.6838 13 9.97571 13 8C13 7.65753 12.9656 7.32311 12.9 7H11V5.93845L11.2513 4.93338L9.90128 5.60838L9.6725 5.3796L8.6385 6H6.00001V4.13962L7.50001 3.63962V3.02469ZM12.584 6C12.474 5.74824 12.3438 5.50729 12.1956 5.27919L12.0154 6H12.584ZM10.9528 3.9646C10.2518 3.45079 9.41193 3.11523 8.50001 3.02469V4.36038L7.00001 4.86038V5H8.36152L9.82751 4.1204L10.0987 4.39162L10.9528 3.9646ZM3.0582 7.2347L4.00001 6.29289V5.59629L3.84724 5.21437C3.44721 5.80955 3.17175 6.49544 3.0582 7.2347ZM6.00001 9.5V8.5L6.66667 8H9.19099L9.62733 8.87268L10.5 9.30902V9.5L9.70001 10.1L9.58398 10.7774L9.88775 11.233L9.37133 11.9216L9.07772 12.2152L9.00001 12.0986V11.0429L7.95711 10H6.66667L6.00001 9.5Z" fill="black" style="fill:black;fill-opacity:1;"/>
</svg>
