<svg width="16" height="16" viewBox="0 0 16 16" fill="none" xmlns="http://www.w3.org/2000/svg">
<path d="M2 13V11.9844H14V13H2ZM2 4.01564V3H14V4.01564H2ZM3.27606 10.3698C2.91947 10.3698 2.61765 10.2513 2.37059 10.0144C2.12353 9.77737 2 9.48786 2 9.14581V6.85419C2 6.51214 2.12353 6.22263 2.37059 5.98565C2.61765 5.74866 2.91947 5.63017 3.27606 5.63017H12.7239C13.0805 5.63017 13.3824 5.74866 13.6294 5.98565C13.8765 6.22263 14 6.51214 14 6.85419V9.14581C14 9.48786 13.8765 9.77737 13.6294 10.0144C13.3824 10.2513 13.0805 10.3698 12.7239 10.3698H3.27606ZM3.27606 9.35419H12.7239C12.7783 9.35419 12.8281 9.33246 12.8732 9.28902C12.9185 9.24568 12.9412 9.19795 12.9412 9.14581V6.85419C12.9412 6.80205 12.9185 6.75432 12.8732 6.71098C12.8281 6.66754 12.7783 6.64581 12.7239 6.64581H3.27606C3.22171 6.64581 3.17194 6.66754 3.12676 6.71098C3.08147 6.75432 3.05882 6.80205 3.05882 6.85419V9.14581C3.05882 9.19795 3.08147 9.24568 3.12676 9.28902C3.17194 9.33246 3.22171 9.35419 3.27606 9.35419Z" fill="black" style="fill:black;fill-opacity:1;"/>
</svg>
