<svg width="16" height="16" viewBox="0 0 16 16" fill="none" xmlns="http://www.w3.org/2000/svg">
<path d="M7.5 4H8.5V10.1338C8.7989 10.3067 9 10.6299 9 11C9 11.5523 8.55228 12 8 12C7.44772 12 7 11.5523 7 11C7 10.6299 7.2011 10.3067 7.5 10.1338V4Z" fill="black" style="fill:black;fill-opacity:1;"/>
<path fill-rule="evenodd" clip-rule="evenodd" d="M7 2C6.17157 2 5.5 2.67157 5.5 3.5V9.34146C5.18426 9.81659 5 10.3873 5 11C5 12.6569 6.34315 14 8 14C9.65685 14 11 12.6569 11 11C11 10.3873 10.8158 9.81644 10.5 9.3412V3.5C10.5 2.67157 9.82843 2 9 2H7ZM6.5 3.5C6.5 3.22386 6.72386 3 7 3H9C9.27614 3 9.5 3.22386 9.5 3.5V9.66666L9.60025 9.80009C9.85138 10.1343 10 10.5491 10 11C10 12.1046 9.10457 13 8 13C6.89543 13 6 12.1046 6 11C6 10.5492 6.14864 10.1346 6.39977 9.80031L6.5 9.66688V3.5Z" fill="black" style="fill:black;fill-opacity:1;"/>
</svg>
