<svg width="16" height="16" viewBox="0 0 16 16" fill="none" xmlns="http://www.w3.org/2000/svg">
<path fill-rule="evenodd" clip-rule="evenodd" d="M2.70716 5H2.5C1.67157 5 1 5.67157 1 6.5V9.5C1 10.3284 1.67157 11 2.5 11H5V5H3.7559C4.37359 3.25217 6.04102 2 8 2C9.95898 2 11.6264 3.25217 12.2441 5H11V11H12V11.5C12 12.3284 11.3284 13 10.5 13H9C9 12.4477 8.55229 12 8 12C7.44772 12 7 12.4477 7 13C7 13.5523 7.44772 14 8 14H10.5C11.8807 14 13 12.8807 13 11.5V11H13.5C14.3284 11 15 10.3284 15 9.5V6.5C15 5.67157 14.3284 5 13.5 5H13.2928C12.6398 2.69154 10.5179 1 8 1C5.48207 1 3.36024 2.69154 2.70716 5ZM12 10V6H13.5C13.7761 6 14 6.22386 14 6.5V9.5C14 9.77614 13.7761 10 13.5 10H12ZM2 6.5C2 6.22386 2.22386 6 2.5 6H4V10H2.5C2.22386 10 2 9.77614 2 9.5V6.5Z" fill="black" style="fill:black;fill-opacity:1;"/>
</svg>
