<svg width="16" height="16" viewBox="0 0 16 16" fill="none" xmlns="http://www.w3.org/2000/svg">
<path d="M6.07468 3.23713C6.16578 3.08973 6.32671 3 6.5 3H9.5C9.67329 3 9.83422 3.08973 9.92533 3.23713C10.0164 3.38454 10.0247 3.56861 9.94721 3.72361L8.44721 6.72361C8.36252 6.893 8.18939 7 8 7C7.81061 7 7.63748 6.893 7.55279 6.72361L6.05279 3.72361C5.97529 3.56861 5.98357 3.38454 6.07468 3.23713Z" fill="black" style="fill:black;fill-opacity:1;"/>
<path d="M8.27735 11.084C8.1094 10.972 7.8906 10.972 7.72265 11.084L6.22265 12.084C6.03932 12.2062 5.95761 12.434 6.02145 12.6449C6.0853 12.8558 6.27967 13 6.5 13H9.5C9.72033 13 9.9147 12.8558 9.97855 12.6449C10.0424 12.434 9.96068 12.2062 9.77735 12.084L8.27735 11.084Z" fill="black" style="fill:black;fill-opacity:1;"/>
<path fill-rule="evenodd" clip-rule="evenodd" d="M4 2H3V1H13V2H12V4.79844C12 5.36612 11.8068 5.91689 11.4522 6.36018L10.8904 7.06235C10.452 7.61036 10.4518 8.3894 10.8899 8.93704L11.4522 9.63982C11.8068 10.0831 12 10.6339 12 11.2016V14H13V15H3V14H4V11.2016C4 10.6339 4.1932 10.0831 4.54783 9.63982L5.11005 8.93704C5.54817 8.3894 5.54798 7.61036 5.10957 7.06235L4.54783 6.36018C4.1932 5.91689 4 5.36612 4 4.79844V2ZM5 2H11V4.79844C11 5.13905 10.8841 5.46951 10.6713 5.73548L10.1096 6.43765C9.37928 7.35052 9.37849 8.64851 10.1091 9.56174L10.6713 10.2645C10.8841 10.5305 11 10.861 11 11.2016V14H5V11.2016C5 10.861 5.11592 10.5305 5.3287 10.2645L5.89092 9.56174C6.62151 8.64851 6.62072 7.35052 5.89043 6.43765L5.3287 5.73548C5.11592 5.46951 5 5.13904 5 4.79844V2Z" fill="black" style="fill:black;fill-opacity:1;"/>
</svg>
