<svg width="16" height="16" viewBox="0 0 16 16" fill="none" xmlns="http://www.w3.org/2000/svg">
<path fill-rule="evenodd" clip-rule="evenodd" d="M4 6.5C4 5.67157 4.67157 5 5.5 5C6.32843 5 7 5.67157 7 6.5C7 7.32843 6.32843 8 5.5 8C4.67157 8 4 7.32843 4 6.5ZM5.5 6C5.22386 6 5 6.22386 5 6.5C5 6.77614 5.22386 7 5.5 7C5.77614 7 6 6.77614 6 6.5C6 6.22386 5.77614 6 5.5 6Z" fill="black" style="fill:black;fill-opacity:1;"/>
<path fill-rule="evenodd" clip-rule="evenodd" d="M1 3H15V13H1V3ZM2 4V12H2.29287L5.47385 8.81903L7.23668 10.33L10.7629 7.05573L14 10.2929V4H2ZM14 11.7071L10.7371 8.44423L7.26332 11.6699L5.52615 10.1809L3.70709 12H14V11.7071Z" fill="black" style="fill:black;fill-opacity:1;"/>
</svg>
