<svg width="16" height="16" viewBox="0 0 16 16" fill="none" xmlns="http://www.w3.org/2000/svg">
<path d="M5.99512 8.58276L7.61622 6.96165L8.32333 7.66876L5.98792 10.0042H5.00188L2.66647 7.66876L3.37358 6.96165L4.99512 8.58319L4.99512 3H11V4L5.99512 4L5.99512 8.58276Z" fill="black" style="fill:black;fill-opacity:1;"/>
<path d="M1 12.5V10H2V12.5C2 12.7761 2.22386 13 2.5 13H7V14H2.5C1.67157 14 1 13.3284 1 12.5Z" fill="black" style="fill:black;fill-opacity:1;"/>
<path d="M11 10V11H10V12H12V10H11Z" fill="black" style="fill:black;fill-opacity:1;"/>
<path fill-rule="evenodd" clip-rule="evenodd" d="M8 11.5C8 9.567 9.567 8 11.5 8C13.433 8 15 9.567 15 11.5C15 13.433 13.433 15 11.5 15C9.567 15 8 13.433 8 11.5ZM11.5 9C10.1193 9 9 10.1193 9 11.5C9 12.8807 10.1193 14 11.5 14C12.8807 14 14 12.8807 14 11.5C14 10.1193 12.8807 9 11.5 9Z" fill="black" style="fill:black;fill-opacity:1;"/>
</svg>
