<svg width="16" height="16" viewBox="0 0 16 16" fill="none" xmlns="http://www.w3.org/2000/svg">
<path fill-rule="evenodd" clip-rule="evenodd" d="M4.17703 2C3.56368 2 3.01211 2.37343 2.78432 2.94291L1 7.40371V11.5C1 12.3284 1.67157 13 2.5 13H13.5C14.3284 13 15 12.3284 15 11.5V7.40371L13.2157 2.94291C12.9879 2.37343 12.4363 2 11.823 2H4.17703ZM3.71279 3.3143C3.78873 3.12448 3.97258 3 4.17703 3H11.823C12.0274 3 12.2113 3.12448 12.2872 3.31431L13.7615 7H10V8.5C10 8.77614 9.77614 9 9.5 9H6.5C6.22386 9 6 8.77614 6 8.5V7H2.23852L3.71279 3.3143ZM2 8V11.5C2 11.7761 2.22386 12 2.5 12H13.5C13.7761 12 14 11.7761 14 11.5V8H11V8.5C11 9.32843 10.3284 10 9.5 10H6.5C5.67157 10 5 9.32843 5 8.5V8H2Z" fill="black" style="fill:black;fill-opacity:1;"/>
</svg>
