<svg width="16" height="16" viewBox="0 0 16 16" fill="none" xmlns="http://www.w3.org/2000/svg">
<path d="M13.7485 10.9102C13.5331 11.3994 13.278 11.8496 12.9826 12.2635C12.5798 12.8278 12.25 13.2185 11.9959 13.4354C11.6019 13.7914 11.1798 13.9737 10.7278 13.9841C10.4033 13.9841 10.012 13.8934 9.5565 13.7093C9.09949 13.5261 8.6795 13.4354 8.29547 13.4354C7.89272 13.4354 7.46076 13.5261 6.99874 13.7093C6.53601 13.8934 6.16324 13.9893 5.87824 13.9988C5.44479 14.0169 5.01275 13.8294 4.5815 13.4354C4.30626 13.1994 3.96198 12.795 3.54955 12.2221C3.10705 11.6102 2.74325 10.9007 2.45824 10.0919C2.15301 9.2182 2 8.37218 2 7.55312C2 6.61489 2.2063 5.80568 2.61952 5.12756C2.94428 4.58287 3.37632 4.15321 3.91705 3.83779C4.45778 3.52236 5.04203 3.36163 5.67123 3.35134C6.01551 3.35134 6.46698 3.45599 7.02802 3.66167C7.58748 3.86803 7.94671 3.97268 8.10421 3.97268C8.22195 3.97268 8.62102 3.85032 9.29752 3.60636C9.93727 3.38012 10.4772 3.28644 10.9195 3.32334C12.1181 3.4184 13.0186 3.88272 13.6175 4.71924C12.5455 5.35752 12.0152 6.2515 12.0258 7.39834C12.0355 8.29164 12.3652 9.035 13.0133 9.62523C13.307 9.89917 13.6351 10.1109 14 10.2613C13.9209 10.4868 13.8373 10.7028 13.7485 10.9102ZM10.9996 0.280078C10.9996 0.980238 10.7393 1.63398 10.2204 2.23907C9.59431 2.9584 8.83699 3.37407 8.01574 3.30848C8.00528 3.22448 7.99921 3.13608 7.99921 3.04318C7.99921 2.37103 8.29697 1.65169 8.82574 1.06354C9.08973 0.765742 9.42547 0.518131 9.83262 0.320608C10.2389 0.126031 10.6232 0.0184241 10.9846 0C10.9952 0.0935984 10.9996 0.187214 10.9996 0.280078Z" fill="black" style="fill:black;fill-opacity:1;"/>
</svg>
