<svg width="16" height="16" viewBox="0 0 16 16" fill="none" xmlns="http://www.w3.org/2000/svg">
<path fill-rule="evenodd" clip-rule="evenodd" d="M11 3H9.19094L8.05274 5.27639L8.49996 6H11V3ZM9.30897 5L9.80897 4H9.99996V5H9.30897Z" fill="black" style="fill:black;fill-opacity:1;"/>
<path fill-rule="evenodd" clip-rule="evenodd" d="M8.19094 1H11.5C12.3284 1 13 1.67157 13 2.5V12.5C13 13.3284 12.3284 14 11.5 14H4.49996C3.67153 14 2.99996 13.3284 2.99996 12.5V6.13962L6.14536 5.09115L8.19094 1ZM8.80897 2L6.85455 5.90885L3.99996 6.86038V12.5C3.99996 12.7761 4.22381 13 4.49996 13H11.5C11.7761 13 12 12.7761 12 12.5V2.5C12 2.22386 11.7761 2 11.5 2H8.80897Z" fill="black" style="fill:black;fill-opacity:1;"/>
<path d="M2.77321 4.43856C2.61174 3.91041 2.90899 3.35135 3.43714 3.18988L4.39345 2.89751C4.9216 2.73604 5.48065 3.03329 5.64212 3.56144L5.93449 4.51775L3.06558 5.39486L2.77321 4.43856Z" fill="black" style="fill:black;fill-opacity:1;"/>
</svg>
