<svg width="16" height="16" viewBox="0 0 16 16" fill="none" xmlns="http://www.w3.org/2000/svg">
<path d="M10 7C10.5523 7 11 6.55228 11 6C11 5.44772 10.5523 5 10 5C9.44772 5 9 5.44772 9 6C9 6.55228 9.44772 7 10 7Z" fill="black" style="fill:black;fill-opacity:1;"/>
<path fill-rule="evenodd" clip-rule="evenodd" d="M7 12H6V12.7071L4.70711 14H2V11.2758L6.27664 7.46426C6.09801 7.01034 6 6.51616 6 6C6 3.79086 7.79086 2 10 2C12.2091 2 14 3.79086 14 6C14 8.20914 12.2091 10 10 10C9.61258 10 9.23737 9.94478 8.88216 9.84158L7.70473 11H7V12ZM7 6C7 4.34315 8.34315 3 10 3C11.6569 3 13 4.34315 13 6C13 7.65685 11.6569 9 10 9C9.6216 9 9.26068 8.93018 8.92862 8.80318L8.62843 8.68837L7.29527 10H6V11H5V12.2929L4.29289 13H3V11.7241L7.50426 7.70966L7.32801 7.36562C7.11846 6.95656 7 6.49284 7 6Z" fill="black" style="fill:black;fill-opacity:1;"/>
</svg>
