<svg width="16" height="16" viewBox="0 0 16 16" fill="none" xmlns="http://www.w3.org/2000/svg">
<path fill-rule="evenodd" clip-rule="evenodd" d="M10 2.5C11.933 2.5 13.5 4.067 13.5 6C13.5 7.933 11.933 9.5 10 9.5C9.21297 9.5 8.48657 9.2402 7.90193 8.80167L6.45679 10.2497L7.85359 11.6465L6.44479 13.0553L5.04834 11.6588L2.85359 13.8536L2.14648 13.1465L7.19504 8.09366C6.75853 7.50979 6.50004 6.78508 6.50004 6C6.50004 4.067 8.06705 2.5 10 2.5ZM12.5 6C12.5 4.61929 11.3808 3.5 10 3.5C8.61933 3.5 7.50004 4.61929 7.50004 6C7.50004 7.38071 8.61933 8.5 10 8.5C11.3808 8.5 12.5 7.38071 12.5 6Z" fill="black" style="fill:black;fill-opacity:1;"/>
</svg>
