<svg width="16" height="16" viewBox="0 0 16 16" fill="none" xmlns="http://www.w3.org/2000/svg">
<path fill-rule="evenodd" clip-rule="evenodd" d="M2 4.5119V5.49635L3.76289 6.4589L2 7.25915V8.2436L3.76097 9.2051L2 10.0045V10.9889L7.51468 14H8.48516L14 10.9866V10.0064L12.2361 9.20511L14 8.24132V7.26106L12.2342 6.45891L14 5.49406V4.51381L8.46631 2H7.53353L2 4.5119ZM4.86115 7.05856L3.25318 7.78849L7.99993 10.3803L12.7432 7.78849L11.1366 7.05864L8.0001 8.77246L4.86115 7.05856ZM4.85923 9.80477L3.25318 10.5338L7.99993 13.1256L12.7432 10.5338L11.1385 9.80485L8.0001 11.5197L4.85923 9.80477ZM3.25318 5.04124L7.99993 7.63301L12.7432 5.04123L7.99994 2.88649L3.25318 5.04124Z" fill="black" style="fill:black;fill-opacity:1;"/>
</svg>
