<svg width="16" height="16" viewBox="0 0 16 16" fill="none" xmlns="http://www.w3.org/2000/svg">
<path fill-rule="evenodd" clip-rule="evenodd" d="M8.50001 8.97021V12.9381L8.50009 13L8.50001 15H7.50001V12.9702C3.6115 12.7249 2.21032 10.9471 2.02245 7.00003C2.00726 6.68097 2 6.34775 2 6.00001C2.35007 6.00002 2.68358 6.00984 3.00002 6.02981C5.25134 6.17184 6.66894 6.82757 7.50001 8.12058V1H8.50001V4.12075C9.33105 2.82762 10.7487 2.17187 13.0001 2.02981C13.3167 2.00983 13.6498 2.00001 14.0001 2.00001C14.0001 2.34774 13.9929 2.68097 13.9777 3.00002C13.7898 6.94711 12.3885 8.72487 8.50001 8.97021C8.50004 8.97021 8.49998 8.97021 8.50001 8.97021ZM7.47456 11.9664C7.37786 10.1312 7.00723 8.99766 6.37763 8.28938C5.77478 7.61118 4.77936 7.15672 3.02553 7.03364C3.12225 8.86884 3.49285 10.0024 4.12244 10.7106C4.72528 11.3888 5.72068 11.8433 7.47456 11.9664ZM11.8777 6.71062C11.2748 7.38882 10.2794 7.84328 8.5256 7.96637C8.6223 6.13113 8.99292 4.99762 9.6225 4.28936C10.2253 3.61118 11.2208 3.15674 12.9746 3.03364C12.8779 4.86882 12.5073 6.00234 11.8777 6.71062Z" fill="black" style="fill:black;fill-opacity:1;"/>
</svg>
