<svg width="16" height="16" viewBox="0 0 16 16" fill="none" xmlns="http://www.w3.org/2000/svg">
<path d="M5.87868 5.17153L3.40381 2.69666L2.6967 3.40376L5.17158 5.87864L5.87868 5.17153Z" fill="black" style="fill:black;fill-opacity:1;"/>
<path d="M8 9.5C8.82843 9.5 9.5 8.82843 9.5 8C9.5 7.17157 8.82843 6.5 8 6.5C7.17157 6.5 6.5 7.17157 6.5 8C6.5 8.82843 7.17157 9.5 8 9.5Z" fill="black" style="fill:black;fill-opacity:1;"/>
<path d="M1 7.5H4.5V8.5H1V7.5Z" fill="black" style="fill:black;fill-opacity:1;"/>
<path d="M2.69678 12.5962L5.17165 10.1213L5.87876 10.8284L3.40388 13.3033L2.69678 12.5962Z" fill="black" style="fill:black;fill-opacity:1;"/>
<path d="M15 7.5H11.5V8.5H15V7.5Z" fill="black" style="fill:black;fill-opacity:1;"/>
<path d="M10.8284 10.1213L13.3032 12.5962L12.5961 13.3033L10.1213 10.8284L10.8284 10.1213Z" fill="black" style="fill:black;fill-opacity:1;"/>
<path d="M12.5962 2.69676L10.1213 5.17163L10.8284 5.87874L13.3033 3.40386L12.5962 2.69676Z" fill="black" style="fill:black;fill-opacity:1;"/>
</svg>
