<svg width="16" height="16" viewBox="0 0 16 16" fill="none" xmlns="http://www.w3.org/2000/svg">
<path fill-rule="evenodd" clip-rule="evenodd" d="M8 3C5.23858 3 3 5.23858 3 8C3 10.7614 5.23858 13 8 13C10.7614 13 13 10.7614 13 8C13 5.23858 10.7614 3 8 3ZM2 8C2 4.68629 4.68629 2 8 2C11.3137 2 14 4.68629 14 8C14 11.3137 11.3137 14 8 14C4.68629 14 2 11.3137 2 8Z" fill="black" style="fill:black;fill-opacity:1;"/>
<path d="M8.06921 10.605C9.14021 10.605 9.88921 9.898 10.0012 8.778L9.13321 8.638C9.03521 9.401 8.66421 9.8 8.06921 9.8C7.28521 9.8 6.81621 9.142 6.81621 8.05C6.81621 6.965 7.28521 6.3 8.06921 6.3C8.63621 6.3 9.00721 6.678 9.12621 7.371L9.98721 7.231C9.86121 6.188 9.09821 5.495 8.06921 5.495C6.78121 5.495 5.94121 6.51 5.94121 8.05C5.94121 9.597 6.77421 10.605 8.06921 10.605Z" fill="black" style="fill:black;fill-opacity:1;"/>
</svg>
