<svg width="16" height="16" viewBox="0 0 16 16" fill="none" xmlns="http://www.w3.org/2000/svg">
<path d="M8.355 10.4C9.566 10.4 10.168 9.896 10.168 8.902C10.168 8.377 9.902 7.957 9.454 7.761V7.747C9.79 7.558 9.986 7.215 9.986 6.802C9.986 6.039 9.391 5.5 8.544 5.5H6.5V10.4H8.355ZM7.375 6.291H8.411C8.873 6.291 9.111 6.501 9.111 6.893C9.111 7.285 8.873 7.495 8.411 7.495H7.375V6.291ZM7.375 8.209H8.467C9.034 8.209 9.293 8.433 9.293 8.895C9.293 9.385 9.041 9.609 8.46 9.609H7.375V8.209Z" fill="black" style="fill:black;fill-opacity:1;"/>
<path fill-rule="evenodd" clip-rule="evenodd" d="M8 3C5.23858 3 3 5.23858 3 8C3 10.7614 5.23858 13 8 13C10.7614 13 13 10.7614 13 8C13 5.23858 10.7614 3 8 3ZM2 8C2 4.68629 4.68629 2 8 2C11.3137 2 14 4.68629 14 8C14 11.3137 11.3137 14 8 14C4.68629 14 2 11.3137 2 8Z" fill="black" style="fill:black;fill-opacity:1;"/>
</svg>
