<svg width="16" height="16" viewBox="0 0 16 16" fill="none" xmlns="http://www.w3.org/2000/svg">
<path d="M5 11.5H4V10.5H5V11.5Z" fill="black" style="fill:black;fill-opacity:1;"/>
<path d="M12 11.5H11V10.5H12V11.5Z" fill="black" style="fill:black;fill-opacity:1;"/>
<path d="M5.5 9H4.5V7H5.5V9Z" fill="black" style="fill:black;fill-opacity:1;"/>
<path d="M7.5 9H6.5V7H7.5V9Z" fill="black" style="fill:black;fill-opacity:1;"/>
<path d="M9.5 9H8.5V7H9.5V9Z" fill="black" style="fill:black;fill-opacity:1;"/>
<path d="M11.5 9H10.5V7H11.5V9Z" fill="black" style="fill:black;fill-opacity:1;"/>
<path d="M5 5.5H4V4.5H5V5.5Z" fill="black" style="fill:black;fill-opacity:1;"/>
<path d="M10 5.5H6V4.5H10V5.5Z" fill="black" style="fill:black;fill-opacity:1;"/>
<path d="M12 5.5H11V4.5H12V5.5Z" fill="black" style="fill:black;fill-opacity:1;"/>
<path fill-rule="evenodd" clip-rule="evenodd" d="M13.5 2.5C14.3284 2.5 15 3.17157 15 4V12C15 12.8284 14.3284 13.5 13.5 13.5H2.5C1.67157 13.5 1 12.8284 1 12V4C1 3.17157 1.67157 2.5 2.5 2.5H13.5ZM2.5 3.5C2.22386 3.5 2 3.72386 2 4V12C2 12.2761 2.22386 12.5 2.5 12.5H13.5C13.7761 12.5 14 12.2761 14 12V4C14 3.72386 13.7761 3.5 13.5 3.5H2.5Z" fill="black" style="fill:black;fill-opacity:1;"/>
</svg>
