<svg width="16" height="16" viewBox="0 0 16 16" fill="none" xmlns="http://www.w3.org/2000/svg">
<path fill-rule="evenodd" clip-rule="evenodd" d="M4 5.5H7V8.5H4V5.5ZM5 6.5V7.5H6V6.5H5Z" fill="black" style="fill:black;fill-opacity:1;"/>
<path d="M8 6.5H12V5.5H8V6.5Z" fill="black" style="fill:black;fill-opacity:1;"/>
<path d="M8 8.5H12V7.5H8V8.5Z" fill="black" style="fill:black;fill-opacity:1;"/>
<path d="M12 10.5V9.5H4V10.5H12Z" fill="black" style="fill:black;fill-opacity:1;"/>
<path fill-rule="evenodd" clip-rule="evenodd" d="M2.5 13.5C1.67157 13.5 1 12.8284 1 12V4.00001C1 3.17158 1.67157 2.5 2.5 2.5L13.5 2.5C14.3284 2.5 15 3.17157 15 4V12C15 12.8284 14.3284 13.5 13.5 13.5L2.5 13.5ZM2 12C2 12.2762 2.22386 12.5 2.5 12.5L13.5 12.5C13.7761 12.5 14 12.2762 14 12V4C14 3.72386 13.7761 3.5 13.5 3.5L2.5 3.5C2.22386 3.5 2 3.72386 2 4.00001L2 12Z" fill="black" style="fill:black;fill-opacity:1;"/>
</svg>
