<svg width="16" height="16" viewBox="0 0 16 16" fill="none" xmlns="http://www.w3.org/2000/svg">
<path d="M3.40381 3.40381C5.94221 0.865398 10.0578 0.865398 12.5962 3.40381C15.1346 5.94221 15.1346 10.0578 12.5962 12.5962C10.0578 15.1346 5.94221 15.1346 3.40381 12.5962C0.865398 10.0578 0.865398 5.94221 3.40381 3.40381ZM4.48104 12.2261C6.51487 13.9236 9.48442 13.9229 11.5183 12.2254L10.0958 10.8029C8.85688 11.7316 7.14312 11.7316 5.90423 10.8029L4.48104 12.2261ZM10.8029 5.90423C11.7316 7.14312 11.7316 8.85688 10.8029 10.0958L12.2254 11.5183C13.9229 9.48442 13.9236 6.51487 12.2261 4.48104L10.8029 5.90423ZM6.23223 6.23223C5.25592 7.20854 5.25592 8.79146 6.23223 9.76777C7.20854 10.7441 8.79146 10.7441 9.76777 9.76777C10.7441 8.79146 10.7441 7.20854 9.76777 6.23223C8.79146 5.25592 7.20854 5.25592 6.23223 6.23223ZM5.90354 5.19643C7.14244 4.26758 8.85684 4.26833 10.0958 5.19712L11.519 3.77393C9.4851 2.07639 6.5149 2.07639 4.48104 3.77393L5.90354 5.19643ZM3.77393 4.48104C2.07639 6.5149 2.07639 9.4851 3.77393 11.519L5.19712 10.0958C4.26833 8.85684 4.26758 7.14244 5.19643 5.90354L3.77393 4.48104Z" fill="black" style="fill:black;fill-opacity:1;"/>
</svg>
