<svg width="16" height="16" viewBox="0 0 16 16" fill="none" xmlns="http://www.w3.org/2000/svg">
<path d="M11.8534 7.85353L13.6463 6.06063C14.2321 5.47484 14.2321 4.5251 13.6463 3.93931L12.0605 2.35352C11.4747 1.76774 10.525 1.76774 9.9392 2.35352L6.35342 5.93931C5.76763 6.5251 5.76763 7.47485 6.35342 8.06063L7.14631 8.85353L7.85342 8.14642L7.06052 7.35353C6.86526 7.15826 6.86526 6.84168 7.06052 6.64642L10.6463 3.06063C10.8416 2.86537 11.1582 2.86537 11.3534 3.06063L12.9392 4.64642C13.1345 4.84168 13.1345 5.15826 12.9392 5.35352L11.1463 7.14642L11.8534 7.85353Z" fill="black" style="fill:black;fill-opacity:1;"/>
<path d="M4.64654 7.6464L2.35365 9.93929C1.76786 10.5251 1.76786 11.4748 2.35365 12.0606L3.93943 13.6464C4.52522 14.2322 5.47497 14.2322 6.06075 13.6464L10.1465 9.56062C10.7323 8.97483 10.7323 8.02508 10.1465 7.4393L9.35365 6.6464L8.64654 7.35351L9.43943 8.1464C9.6347 8.34166 9.6347 8.65825 9.43943 8.85351L5.35365 12.9393C5.15838 13.1346 4.8418 13.1346 4.64654 12.9393L3.06075 11.3535C2.86549 11.1582 2.86549 10.8417 3.06075 10.6464L5.35365 8.35351L4.64654 7.6464Z" fill="black" style="fill:black;fill-opacity:1;"/>
</svg>
