<svg width="16" height="16" viewBox="0 0 16 16" fill="none" xmlns="http://www.w3.org/2000/svg">
<path fill-rule="evenodd" clip-rule="evenodd" d="M8 5C6.89543 5 6 5.89543 6 7C6 8.10457 6.89543 9 8 9C9.10457 9 10 8.10457 10 7C10 5.89543 9.10457 5 8 5ZM7 7C7 6.44772 7.44772 6 8 6C8.55228 6 9 6.44772 9 7C9 7.55228 8.55228 8 8 8C7.44772 8 7 7.55228 7 7Z" fill="black" style="fill:black;fill-opacity:1;"/>
<path fill-rule="evenodd" clip-rule="evenodd" d="M2 7C2 3.68629 4.68629 1 8 1C11.3137 1 14 3.68629 14 7C14 8.59417 13.3776 10.0441 12.3636 11.1182L12.3543 11.128L8.4957 15H7.50433L3.63629 11.1183C2.62225 10.0442 2 8.59417 2 7ZM8 2C5.23858 2 3 4.23858 3 7C3 8.32653 3.51593 9.53149 4.35905 10.4269L8 14.0807L11.6409 10.4269C12.4841 9.5315 13 8.32654 13 7C13 4.23858 10.7614 2 8 2Z" fill="black" style="fill:black;fill-opacity:1;"/>
</svg>
