<svg width="16" height="16" viewBox="0 0 16 16" fill="none" xmlns="http://www.w3.org/2000/svg">
<path d="M10.25 6.8875C10.25 5.7926 9.51548 4.84532 8.5 4.60742V4H7.5V4.60742C6.48452 4.84532 5.75 5.7926 5.75 6.8875V7.24224L9.20959 8.4531C9.06675 9.03959 8.56379 9.45 8 9.45C7.33235 9.45 6.75 8.87445 6.75 8.1125H5.75C5.75 9.2074 6.48452 10.1547 7.5 10.3926V11H8.5V10.3926C9.51548 10.1547 10.25 9.2074 10.25 8.1125V7.75776L6.79041 6.5469C6.93325 5.96041 7.43621 5.55 8 5.55C8.66765 5.55 9.25 6.12555 9.25 6.8875H10.25Z" fill="black" style="fill:black;fill-opacity:1;"/>
<path fill-rule="evenodd" clip-rule="evenodd" d="M2 7C2 3.68629 4.68629 1 8 1C11.3137 1 14 3.68629 14 7C14 8.59417 13.3776 10.0441 12.3636 11.1182L12.3543 11.128L8.4957 15H7.50433L3.63629 11.1183C2.62225 10.0442 2 8.59417 2 7ZM8 2C5.23858 2 3 4.23858 3 7C3 8.32653 3.51593 9.53149 4.35905 10.4269L8 14.0807L11.6409 10.4269C12.4841 9.5315 13 8.32654 13 7C13 4.23858 10.7614 2 8 2Z" fill="black" style="fill:black;fill-opacity:1;"/>
</svg>
