<svg width="16" height="16" viewBox="0 0 16 16" fill="none" xmlns="http://www.w3.org/2000/svg">
<path d="M10.2016 4.5L10.2043 4.50277L10.2071 4.5H10.2016Z" fill="black" style="fill:black;fill-opacity:1;"/>
<path d="M5.79289 10.5L5.79527 10.4976L5.79765 10.5H5.79289Z" fill="black" style="fill:black;fill-opacity:1;"/>
<path fill-rule="evenodd" clip-rule="evenodd" d="M8 1C4.68629 1 2 3.68629 2 7C2 8.59417 2.62225 10.0442 3.6363 11.1183L7.5 15.0007L8.5 15L12.3545 11.1278L12.3636 11.1182C13.3776 10.0441 14 8.59417 14 7C14 3.68629 11.3137 1 8 1ZM3 7C3 4.23858 5.23858 2 8 2C9.71102 2 11.2213 2.85944 12.1227 4.17017L6.50238 9.79051L7.20906 10.4972L7.20625 10.5H9.5V9.5H8.20711L12.6207 5.08638C12.8651 5.67583 13 6.32216 13 7C13 8.32659 12.484 9.53158 11.6408 10.427L8 14.0855L4.35918 10.427C4.34639 10.4135 4.33367 10.3998 4.32103 10.3861L9.49723 5.20988L8.79114 4.50378L8.79492 4.5H6.33334V5.5H7.7929L3.71488 9.57802C3.26092 8.82523 3 7.94336 3 7Z" fill="black" style="fill:black;fill-opacity:1;"/>
</svg>
