<svg width="16" height="16" viewBox="0 0 16 16" fill="none" xmlns="http://www.w3.org/2000/svg">
<path fill-rule="evenodd" clip-rule="evenodd" d="M12.3866 2.90632C11.2915 1.73333 9.7314 1 8.00004 1C4.68633 1 2.00004 3.68629 2.00004 7C2.00004 8.59417 2.62229 10.0442 3.63633 11.1183L3.90501 11.3879L1.14648 14.1465L1.85359 14.8536L14.8536 1.85356L14.1465 1.14645L12.3866 2.90632ZM11.679 3.61393C10.7653 2.62168 9.45526 2 8.00004 2C5.23861 2 3.00004 4.23858 3.00004 7C3.00004 8.32653 3.51597 9.53149 4.35909 10.4269L4.61212 10.6808L6.73983 8.55311C6.28846 8.1864 6.00004 7.62688 6.00004 7C6.00004 5.89543 6.89547 5 8.00004 5C8.62692 5 9.18644 5.28842 9.55314 5.73979L11.679 3.61393ZM8.83835 6.45459C8.65992 6.18091 8.35111 6 8.00004 6C7.44775 6 7.00004 6.44772 7.00004 7C7.00004 7.35107 7.18095 7.65989 7.45463 7.83831L8.83835 6.45459Z" fill="black" style="fill:black;fill-opacity:1;"/>
<path d="M13.4698 4.53026L12.7027 5.29738C12.8951 5.8288 13 6.40215 13 7C13 8.32654 12.4841 9.5315 11.641 10.4269L8.00004 14.0807L5.96328 12.0368L5.25617 12.7439L7.50437 15H8.49574L12.3543 11.128L12.3636 11.1182C13.3777 10.0441 14 8.59417 14 7C14 6.11959 13.8104 5.28347 13.4698 4.53026Z" fill="black" style="fill:black;fill-opacity:1;"/>
</svg>
