<svg width="16" height="16" viewBox="0 0 16 16" fill="none" xmlns="http://www.w3.org/2000/svg">
<path d="M8 9C7.44772 9 7 9.44772 7 10C7 10.5523 7.44772 11 8 11C8.55228 11 9 10.5523 9 10C9 9.44772 8.55228 9 8 9Z" fill="black" style="fill:black;fill-opacity:1;"/>
<path fill-rule="evenodd" clip-rule="evenodd" d="M5 6V4.5C5 3.11929 6.11929 2 7.5 2H8.5C9.88071 2 11 3.11929 11 4.5V6H11.5C12.3284 6 13 6.67157 13 7.5V14H3V7.5C3 6.67157 3.67157 6 4.5 6H5ZM7.5 3C6.67157 3 6 3.67157 6 4.5V6H10V4.5C10 3.67157 9.32843 3 8.5 3H7.5ZM8 8C6.89543 8 6 8.89543 6 10C6 11.1046 6.89543 12 8 12C9.10457 12 10 11.1046 10 10C10 8.89543 9.10457 8 8 8Z" fill="black" style="fill:black;fill-opacity:1;"/>
</svg>
