<svg width="16" height="16" viewBox="0 0 16 16" fill="none" xmlns="http://www.w3.org/2000/svg">
<path fill-rule="evenodd" clip-rule="evenodd" d="M8 8C6.89543 8 6 8.89543 6 10C6 11.1046 6.89543 12 8 12C9.10457 12 10 11.1046 10 10C10 8.89543 9.10457 8 8 8ZM7 10C7 9.44772 7.44772 9 8 9C8.55228 9 9 9.44772 9 10C9 10.5523 8.55228 11 8 11C7.44772 11 7 10.5523 7 10Z" fill="black" style="fill:black;fill-opacity:1;"/>
<path fill-rule="evenodd" clip-rule="evenodd" d="M5 4.5V6H4.5C3.67157 6 3 6.67157 3 7.5V14H13V7.5C13 6.67157 12.3284 6 11.5 6H11V4.5C11 3.11929 9.88071 2 8.5 2H7.5C6.11929 2 5 3.11929 5 4.5ZM7.5 3C6.67157 3 6 3.67157 6 4.5V6H10V4.5C10 3.67157 9.32843 3 8.5 3H7.5ZM4.5 7H11.5C11.7761 7 12 7.22386 12 7.5V13H4V7.5C4 7.22386 4.22386 7 4.5 7Z" fill="black" style="fill:black;fill-opacity:1;"/>
</svg>
