<svg width="16" height="16" viewBox="0 0 16 16" fill="none" xmlns="http://www.w3.org/2000/svg">
<path fill-rule="evenodd" clip-rule="evenodd" d="M8 8C6.89543 8 6 8.89543 6 10C6 11.1046 6.89543 12 8 12C9.10457 12 10 11.1046 10 10C10 8.89543 9.10457 8 8 8ZM7 10C7 9.44771 7.44772 9 8 9C8.55228 9 9 9.44771 9 10C9 10.5523 8.55228 11 8 11C7.44772 11 7 10.5523 7 10Z" fill="black" style="fill:black;fill-opacity:1;"/>
<path fill-rule="evenodd" clip-rule="evenodd" d="M7.5 2C6.67157 2 6 2.67157 6 3.5V5H5V3.5C5 2.11929 6.11929 1 7.5 1H8.5C9.88071 1 11 2.11929 11 3.5V6H11.5C12.3284 6 13 6.67157 13 7.5V14H3V7.5C3 6.67157 3.67157 6 4.5 6H10V3.5C10 2.67157 9.32843 2 8.5 2H7.5ZM4.5 7C4.22386 7 4 7.22386 4 7.5V13H12V7.5C12 7.22386 11.7761 7 11.5 7H4.5Z" fill="black" style="fill:black;fill-opacity:1;"/>
</svg>
