<svg width="16" height="16" viewBox="0 0 16 16" fill="none" xmlns="http://www.w3.org/2000/svg">
<path fill-rule="evenodd" clip-rule="evenodd" d="M3.5 2C2.67157 2 2 2.67157 2 3.5V10.4707C2 10.9674 2.24584 11.4318 2.65653 11.7111L5.65653 13.7511C6.65239 14.4283 8 13.715 8 12.5107V12H10.5C11.3284 12 12 11.3284 12 10.5V10H11V10.5C11 10.7761 10.7761 11 10.5 11H8V5.11803C8 4.54988 7.679 4.03048 7.17082 3.77639L5.61803 3H10.5C10.7761 3 11 3.22386 11 3.5V4H12V3.5C12 2.67157 11.3284 2 10.5 2H3.5ZM3 3.5C3 3.25761 3.17248 3.0555 3.4014 3.00972L6.72361 4.67082C6.893 4.75552 7 4.92865 7 5.11803V12.5107C7 12.9121 6.5508 13.1499 6.21884 12.9242L3.21884 10.8842C3.08195 10.7911 3 10.6363 3 10.4707V3.5Z" fill="black" style="fill:black;fill-opacity:1;"/>
<path d="M13.5703 7.5L11.949 9.12127L12.6561 9.82838L15 7.48452V6.51538L12.6561 4.17152L11.949 4.87863L13.5704 6.5H8.9998V7.5H13.5703Z" fill="black" style="fill:black;fill-opacity:1;"/>
</svg>
