<svg width="16" height="16" viewBox="0 0 16 16" fill="none" xmlns="http://www.w3.org/2000/svg">
<path fill-rule="evenodd" clip-rule="evenodd" d="M5 7.5C5 6.11929 6.11929 5 7.5 5C8.88071 5 10 6.11929 10 7.5C10 8.00954 9.84757 8.48347 9.58581 8.87868L10.8536 10.1464L10.1464 10.8535L8.87871 9.58579C8.48349 9.84756 8.00955 10 7.5 10C6.11929 10 5 8.88071 5 7.5ZM7.5 6C6.67157 6 6 6.67157 6 7.5C6 8.32843 6.67157 9 7.5 9C8.32843 9 9 8.32843 9 7.5C9 6.67157 8.32843 6 7.5 6Z" fill="black" style="fill:black;fill-opacity:1;"/>
<path fill-rule="evenodd" clip-rule="evenodd" d="M13 2H3V5H2V6H3V7.50001H2V8.50001H3V10H2V11H3V14H13V2ZM4 13V3H12V13H4Z" fill="black" style="fill:black;fill-opacity:1;"/>
</svg>
