<svg width="16" height="16" viewBox="0 0 16 16" fill="none" xmlns="http://www.w3.org/2000/svg">
<path d="M7.75001 7.04291L6.25001 5.54291L4.39645 7.39646L5.10356 8.10357L6.25001 6.95712L7.75001 8.45712L9.60356 6.60357L8.89645 5.89646L7.75001 7.04291Z" fill="black" style="fill:black;fill-opacity:1;"/>
<path fill-rule="evenodd" clip-rule="evenodd" d="M2 7C2 4.23858 4.23858 2 7 2C9.76142 2 12 4.23858 12 7C12 8.20063 11.5768 9.30243 10.8715 10.1644L13.8536 13.1465L13.1465 13.8536L10.1644 10.8715C9.30243 11.5768 8.20063 12 7 12C4.23858 12 2 9.76142 2 7ZM7 3C4.79086 3 3 4.79086 3 7C3 9.20914 4.79086 11 7 11C9.20914 11 11 9.20914 11 7C11 4.79086 9.20914 3 7 3Z" fill="black" style="fill:black;fill-opacity:1;"/>
</svg>
