<svg width="16" height="16" viewBox="0 0 16 16" fill="none" xmlns="http://www.w3.org/2000/svg">
<path fill-rule="evenodd" clip-rule="evenodd" d="M7 2C4.23858 2 2 4.23858 2 7C2 9.76142 4.23858 12 7 12C8.20064 12 9.30243 11.5768 10.1644 10.8715L13.1465 13.8536L13.8536 13.1464L10.8715 10.1644C11.5768 9.30243 12 8.20063 12 7C12 4.23858 9.76142 2 7 2ZM3 7C3 4.79086 4.79086 3 7 3C9.20914 3 11 4.79086 11 7C11 9.20914 9.20914 11 7 11C4.79086 11 3 9.20914 3 7Z" fill="black" style="fill:black;fill-opacity:1;"/>
</svg>
