<svg width="16" height="16" viewBox="0 0 16 16" fill="none" xmlns="http://www.w3.org/2000/svg">
<path fill-rule="evenodd" clip-rule="evenodd" d="M10 4.5C10 3.67157 10.6716 3 11.5 3C12.3284 3 13 3.67157 13 4.5C13 5.32843 12.3284 6 11.5 6C10.6716 6 10 5.32843 10 4.5ZM11.5 4C11.2239 4 11 4.22386 11 4.5C11 4.77614 11.2239 5 11.5 5C11.7761 5 12 4.77614 12 4.5C12 4.22386 11.7761 4 11.5 4Z" fill="black" style="fill:black;fill-opacity:1;"/>
<path fill-rule="evenodd" clip-rule="evenodd" d="M8 4.47744C8 2.55335 9.57057 1 11.5 1C13.4294 1 15 2.55335 15 4.47744C15 5.36783 14.6626 6.18062 14.1094 6.79506L12.1664 9H10.8336L8.89059 6.79505C8.33743 6.18061 8 5.36782 8 4.47744ZM11.5 2C10.1157 2 9 3.11274 9 4.47744C9 5.11115 9.23947 5.68872 9.63521 6.12755L9.63905 6.13182L11.5 8.24372L13.3648 6.12753C13.7605 5.6887 14 5.11115 14 4.47744C14 3.11274 12.8843 2 11.5 2Z" fill="black" style="fill:black;fill-opacity:1;"/>
<path fill-rule="evenodd" clip-rule="evenodd" d="M7 3H1V14H15V8H14V13H13.2071L4.20714 4H7V3ZM2.79292 4H2V12.2929L6.5429 7.74998L2.79292 4ZM11.7929 13L7.25001 8.45708L2.70709 13H11.7929Z" fill="black" style="fill:black;fill-opacity:1;"/>
</svg>
