<svg width="16" height="16" viewBox="0 0 16 16" fill="none" xmlns="http://www.w3.org/2000/svg">
<path fill-rule="evenodd" clip-rule="evenodd" d="M10.4756 3.95215L11 4.17578V12.6914L14 11.1914V8H15V11.8086L10.5225 14.0479L5.52441 12.0488L1.70508 13.9922L1 13.2861V4.19141L5.47754 1.95215L10.4756 3.95215ZM6 11.1611L10 12.7617V4.83887L6 3.23828V11.1611ZM2 4.80859V12.7197L5 11.1934V3.30859L2 4.80859Z" fill="black" style="fill:black;fill-opacity:1;"/>
<path fill-rule="evenodd" clip-rule="evenodd" d="M13.7363 1.69238C13.9663 1.69241 14.183 1.72554 14.3857 1.79199C14.5901 1.85845 14.7698 1.95379 14.9248 2.07812C15.0816 2.20085 15.2043 2.34836 15.293 2.52051C15.3816 2.69096 15.4258 2.88264 15.4258 3.0957C15.4275 3.33604 15.3669 3.57042 15.2441 3.79883C15.1628 3.95224 15.0539 4.08489 14.9219 4.20215C15.1567 4.33992 15.336 4.51932 15.459 4.74219C15.5885 4.97401 15.6531 5.22752 15.6514 5.50195C15.653 5.80525 15.5816 6.07442 15.4385 6.30957C15.2953 6.54302 15.1021 6.72645 14.8584 6.85938C14.6147 6.99059 14.3417 7.05664 14.04 7.05664C13.8629 7.05661 13.6889 7.02937 13.5186 6.97656C13.3483 6.92373 13.1892 6.83102 13.041 6.69824L13.0078 6.71387V8.47266H12V3.28027C12.0017 2.95824 12.0791 2.67828 12.2324 2.44141C12.3875 2.20277 12.5969 2.01822 12.8594 1.88867C13.1218 1.75753 13.4143 1.69238 13.7363 1.69238ZM13.7363 2.60254C13.5983 2.60254 13.4731 2.6315 13.3623 2.68945C13.2534 2.7474 13.1662 2.83175 13.1016 2.94238C13.0386 3.05135 13.0079 3.18427 13.0078 3.34082V5.37891C13.0078 5.52375 13.0398 5.65757 13.1045 5.78027C13.171 5.9013 13.2659 5.99775 13.3887 6.06934C13.5113 6.14083 13.659 6.17676 13.8311 6.17676C13.9979 6.17671 14.143 6.14358 14.2656 6.07715C14.3881 6.00905 14.4824 5.91769 14.5488 5.80371C14.617 5.68782 14.6514 5.55967 14.6514 5.41992C14.6514 5.26992 14.6143 5.13912 14.541 5.02832C14.4678 4.91774 14.3696 4.83302 14.2471 4.77344C14.1244 4.71213 13.9875 4.68068 13.8359 4.68066H13.4854V3.91602H13.7207C13.8929 3.91602 14.0305 3.88263 14.1328 3.81445C14.235 3.74459 14.3082 3.65788 14.3525 3.55566C14.3985 3.4518 14.4206 3.34949 14.4189 3.24902C14.4206 3.0616 14.3585 2.90713 14.2324 2.78613C14.108 2.66345 13.9425 2.60259 13.7363 2.60254Z" fill="black" style="fill:black;fill-opacity:1;"/>
</svg>
