<svg width="16" height="16" viewBox="0 0 16 16" fill="none" xmlns="http://www.w3.org/2000/svg">
<path fill-rule="evenodd" clip-rule="evenodd" d="M2.23633 7.69238C2.46635 7.69241 2.68297 7.72554 2.88574 7.79199C3.09012 7.85845 3.26979 7.95379 3.4248 8.07812C3.58162 8.20085 3.70433 8.34836 3.79297 8.52051C3.8816 8.69096 3.92578 8.88264 3.92578 9.0957C3.92749 9.33604 3.86687 9.57042 3.74414 9.79883C3.66283 9.95224 3.55395 10.0849 3.42188 10.2021C3.65673 10.3399 3.83602 10.5193 3.95898 10.7422C4.08853 10.974 4.15307 11.2275 4.15137 11.502C4.15303 11.8052 4.08161 12.0744 3.93848 12.3096C3.7953 12.543 3.60209 12.7264 3.3584 12.8594C3.11468 12.9906 2.8417 13.0566 2.54004 13.0566C2.36287 13.0566 2.18891 13.0294 2.01855 12.9766C1.84829 12.9237 1.68917 12.831 1.54102 12.6982L1.50781 12.7139V14.4727H0.5V9.28027C0.501704 8.95824 0.579135 8.67828 0.732422 8.44141C0.887536 8.20277 1.09688 8.01822 1.35938 7.88867C1.62179 7.75753 1.9143 7.69238 2.23633 7.69238ZM2.23633 8.60254C2.09826 8.60254 1.9731 8.6315 1.8623 8.68945C1.75344 8.7474 1.66624 8.83175 1.60156 8.94238C1.53864 9.05135 1.50786 9.18427 1.50781 9.34082V11.3789C1.50781 11.5238 1.53975 11.6576 1.60449 11.7803C1.67097 11.9013 1.76594 11.9977 1.88867 12.0693C2.01135 12.1408 2.15902 12.1768 2.33105 12.1768C2.49794 12.1767 2.64299 12.1436 2.76562 12.0771C2.88815 12.0091 2.98239 11.9177 3.04883 11.8037C3.117 11.6878 3.15136 11.5597 3.15137 11.4199C3.15137 11.2699 3.11431 11.1391 3.04102 11.0283C2.96775 10.9177 2.86963 10.833 2.74707 10.7734C2.62441 10.7121 2.48754 10.6807 2.33594 10.6807H1.98535V9.91602H2.2207C2.39286 9.91602 2.53054 9.88264 2.63281 9.81445C2.735 9.74459 2.80824 9.65788 2.85254 9.55566C2.89846 9.4518 2.92065 9.34949 2.91895 9.24902C2.92063 9.0616 2.85849 8.90712 2.73242 8.78613C2.60804 8.66346 2.44246 8.60259 2.23633 8.60254Z" fill="black" style="fill:black;fill-opacity:1;"/>
<path fill-rule="evenodd" clip-rule="evenodd" d="M10.4756 3.95215L14.2959 2.0166L15 2.7207V11.8086L10.5225 14.0479L5.52441 12.0488L5 11.8047V3.30859L2 4.80859V7H1V4.19141L5.47754 1.95215L10.4756 3.95215ZM6 11.1611L10 12.7617V4.83887L6 3.23828V11.1611ZM11 4.80762V12.6914L14 11.1914V3.28711L11 4.80762Z" fill="black" style="fill:black;fill-opacity:1;"/>
</svg>
