<svg width="16" height="16" viewBox="0 0 16 16" fill="none" xmlns="http://www.w3.org/2000/svg">
<path d="M6.00012 7.02539L6.00012 11H7.00012L7.00012 8.02539L9.58343 8.02539L8.41225 9.19661L9.11936 9.9037L11.0001 8.02289V7.02733L9.1193 5.14646L8.41219 5.85355L9.58399 7.02539L6.00012 7.02539Z" fill="black" style="fill:black;fill-opacity:1;"/>
<path fill-rule="evenodd" clip-rule="evenodd" d="M1.76788 9.76775C0.791566 8.79144 0.791568 7.20853 1.76788 6.23222L6.23235 1.76775C7.20866 0.791444 8.79157 0.791446 9.76788 1.76776L14.2323 6.23222C15.2087 7.20854 15.2087 8.79145 14.2323 9.76776L9.76788 14.2322C8.79157 15.2085 7.20866 15.2085 6.23235 14.2322L1.76788 9.76775ZM2.47499 6.93933L6.93945 2.47486C7.52524 1.88908 8.47499 1.88908 9.06077 2.47486L13.5252 6.93933C14.111 7.52512 14.111 8.47486 13.5252 9.06065L9.06077 13.5251C8.47499 14.1109 7.52524 14.1109 6.93945 13.5251L2.47498 9.06065C1.8892 8.47486 1.8892 7.52512 2.47499 6.93933Z" fill="black" style="fill:black;fill-opacity:1;"/>
</svg>
