<svg width="16" height="16" viewBox="0 0 16 16" fill="none" xmlns="http://www.w3.org/2000/svg">
<path d="M3 3.5C3 3.22386 3.22386 3 3.5 3H12V2H3.5C2.67157 2 2 2.67157 2 3.5V7C2 7.82843 2.67157 8.5 3.5 8.5H5.57984L3.96502 10.1148L4.67212 10.8219L6.99406 8.5H7L7.00057 7.49355L4.67212 5.1651L3.96501 5.87221L5.59281 7.5H3.5C3.22386 7.5 3 7.27614 3 7V3.5Z" fill="black" style="fill:black;fill-opacity:1;"/>
<path d="M10.42 8.5H12.5C12.7761 8.5 13 8.72386 13 9V12.5C13 12.7761 12.7761 13 12.5 13H4V14H12.5C13.3284 14 14 13.3284 14 12.5V9C14 8.17157 13.3284 7.5 12.5 7.5H10.4071L12.0349 5.87221L11.3278 5.1651L8.99931 7.49355V8.49349L9 8.5H9.00582L11.3278 10.8219L12.0349 10.1148L10.42 8.5Z" fill="black" style="fill:black;fill-opacity:1;"/>
</svg>
