<svg width="16" height="16" viewBox="0 0 16 16" fill="none" xmlns="http://www.w3.org/2000/svg">
<path d="M7.42883 8.50422L9.05083 10.1262L8.34372 10.8333L6 8.4896V7.52019L8.34372 5.17647L9.05083 5.88357L7.43018 7.50422L12.9996 7.49998L13.0004 8.49998L7.42883 8.50422Z" fill="black" style="fill:black;fill-opacity:1;"/>
<path fill-rule="evenodd" clip-rule="evenodd" d="M1 4C1 3.17157 1.67157 2.5 2.5 2.5H13.5C14.3284 2.5 15 3.17157 15 4V12C15 12.8284 14.3284 13.5 13.5 13.5H2.5C1.67157 13.5 1 12.8284 1 12V4ZM2.5 3.5C2.22386 3.5 2 3.72386 2 4V12C2 12.2761 2.22386 12.5 2.5 12.5H4V3.5H2.5ZM5 3.5V12.5H13.5C13.7761 12.5 14 12.2761 14 12V4C14 3.72386 13.7761 3.5 13.5 3.5H5Z" fill="black" style="fill:black;fill-opacity:1;"/>
</svg>
