<svg width="16" height="16" viewBox="0 0 16 16" fill="none" xmlns="http://www.w3.org/2000/svg">
<path fill-rule="evenodd" clip-rule="evenodd" d="M5 2.49848C5 1.67089 5.67157 1 6.5 1H13.5C14.3284 1 15 1.67089 15 2.49848V10.004H14.0095L12.8163 8.9918H11V12.5025C11 13.3301 10.3284 14.001 9.5 14.001H3.18189L1.98934 15H1V7.50657C1 6.67898 1.67157 6.00809 2.5 6.00809H5V2.49848ZM6 6.00809H9.5C10.3284 6.00809 11 6.67898 11 7.50657V7.99281H13.1837L14 8.68537V2.49848C14 2.22262 13.7761 1.99899 13.5 1.99899H6.5C6.22386 1.99899 6 2.22262 6 2.49848V6.00809ZM10 7.50657C10 7.23071 9.77614 7.00708 9.5 7.00708H2.5C2.22386 7.00708 2 7.23071 2 7.50657V13.6873L2.81811 13.002H9.5C9.77614 13.002 10 12.7784 10 12.5025V7.50657Z" fill="black" style="fill:black;fill-opacity:1;"/>
</svg>
