<svg width="16" height="16" viewBox="0 0 16 16" fill="none" xmlns="http://www.w3.org/2000/svg">
<path d="M5 5H11V4H5V5Z" fill="black" style="fill:black;fill-opacity:1;"/>
<path d="M11 7H5V6H11V7Z" fill="black" style="fill:black;fill-opacity:1;"/>
<path fill-rule="evenodd" clip-rule="evenodd" d="M3 1H13V5.99997L14 6.74998L14 14H2L2 6.74998L3 5.99998V1ZM12.2929 13H3.70713L6.93934 9.76777C7.52513 9.18198 8.47487 9.18198 9.06066 9.76777L12.2929 13ZM13 12.2929L13 8.26842L11.0571 10.35L13 12.2929ZM10.3496 9.64245L12 7.87424V2H4V7.87423L5.65045 9.64245L6.23223 9.06066C7.20854 8.08435 8.79146 8.08435 9.76777 9.06066L10.3496 9.64245ZM4.94292 10.35L3 12.2929L3 8.26842L4.94292 10.35Z" fill="black" style="fill:black;fill-opacity:1;"/>
</svg>
