<svg width="16" height="16" viewBox="0 0 16 16" fill="none" xmlns="http://www.w3.org/2000/svg">
<path d="M4.5 7C4.5 8.933 6.067 10.5 8 10.5C9.933 10.5 11.5 8.933 11.5 7H12.5C12.5 9.31621 10.7499 11.2219 8.5 11.4707V13H11V14H5V13H7.5V11.4707C5.25012 11.2219 3.5 9.31621 3.5 7H4.5Z" fill="black" style="fill:black;fill-opacity:1;"/>
<path fill-rule="evenodd" clip-rule="evenodd" d="M8 1.5C9.38071 1.5 10.5 2.61929 10.5 4V7C10.5 8.38071 9.38071 9.5 8 9.5C6.70566 9.5 5.64082 8.51639 5.5127 7.25586L5.5 7V4C5.5 2.61929 6.61929 1.5 8 1.5ZM8 2.5C7.17157 2.5 6.5 3.17157 6.5 4V7L6.50781 7.15332C6.58461 7.90972 7.22334 8.5 8 8.5C8.82843 8.5 9.5 7.82843 9.5 7V4C9.5 3.17157 8.82843 2.5 8 2.5Z" fill="black" style="fill:black;fill-opacity:1;"/>
</svg>
