<svg width="16" height="16" viewBox="0 0 16 16" fill="none" xmlns="http://www.w3.org/2000/svg">
<path fill-rule="evenodd" clip-rule="evenodd" d="M14.8535 1.85352L1.85352 14.8535L1.14648 14.1465L4.96973 10.3223C4.0675 9.5 3.5 8.31726 3.5 7H4.5C4.5 8.04092 4.95632 8.97337 5.67773 9.61426L6.38672 8.90527C5.90608 8.49918 5.57987 7.91677 5.5127 7.25586L5.5 7V4C5.5 2.61929 6.61929 1.5 8 1.5C9.38071 1.5 10.5 2.61929 10.5 4V4.79297L14.1465 1.14648L14.8535 1.85352ZM8 2.5C7.17157 2.5 6.5 3.17157 6.5 4V7L6.50781 7.15332C6.55103 7.57902 6.77298 7.95079 7.09668 8.19531L9.5 5.79297V4C9.5 3.17157 8.82843 2.5 8 2.5Z" fill="black" style="fill:black;fill-opacity:1;"/>
<path d="M12.5 7C12.5 9.31621 10.7499 11.2219 8.5 11.4707V13H11V14H5V13.1211L5.12109 13H7.5V11.4707C7.25643 11.4438 7.01933 11.3952 6.78906 11.3311L7.63965 10.4805C7.75816 10.4926 7.87829 10.5 8 10.5C9.933 10.5 11.5 8.933 11.5 7H12.5Z" fill="black" style="fill:black;fill-opacity:1;"/>
</svg>
