<svg width="16" height="16" viewBox="0 0 16 16" fill="none" xmlns="http://www.w3.org/2000/svg">
<path d="M6 4H10V3H6V4Z" fill="black" style="fill:black;fill-opacity:1;"/>
<path d="M7.5 13H8.5V12H7.5V13Z" fill="black" style="fill:black;fill-opacity:1;"/>
<path fill-rule="evenodd" clip-rule="evenodd" d="M5.5 1C4.11929 1 3 2.11929 3 3.5V12.5C3 13.8807 4.11929 15 5.5 15H10.5C11.8807 15 13 13.8807 13 12.5V3.5C13 2.11929 11.8807 1 10.5 1H5.5ZM4 3.5C4 2.67157 4.67157 2 5.5 2H10.5C11.3284 2 12 2.67157 12 3.5V12.5C12 13.3284 11.3284 14 10.5 14H5.5C4.67157 14 4 13.3284 4 12.5V3.5Z" fill="black" style="fill:black;fill-opacity:1;"/>
</svg>
