<svg width="16" height="16" viewBox="0 0 16 16" fill="none" xmlns="http://www.w3.org/2000/svg">
<path fill-rule="evenodd" clip-rule="evenodd" d="M2.5 3C1.67157 3 1 3.67157 1 4.5V10.5C1 11.3284 1.67157 12 2.5 12H7.5V13H5V14H11V13H8.5V12H13.5C14.3284 12 15 11.3284 15 10.5V4.5C15 3.67157 14.3284 3 13.5 3H2.5ZM2 4.5C2 4.22386 2.22386 4 2.5 4H13.5C13.7761 4 14 4.22386 14 4.5V10.5C14 10.7761 13.7761 11 13.5 11H2.5C2.22386 11 2 10.7761 2 10.5V4.5Z" fill="black" style="fill:black;fill-opacity:1;"/>
</svg>
