<svg width="16" height="16" viewBox="0 0 16 16" fill="none" xmlns="http://www.w3.org/2000/svg">
<path d="M5.76459 4.7H4.72959L3.17259 5.663V6.815L4.63959 5.897V9.965H3.10059V11H7.22259V9.965H5.76459V4.7Z" fill="black" style="fill:black;fill-opacity:1;"/>
<path d="M10.8351 11.135C12.3651 11.135 13.4271 9.902 13.4271 7.85C13.4271 5.798 12.3651 4.565 10.8351 4.565C9.3051 4.565 8.2431 5.798 8.2431 7.85C8.2431 9.902 9.3141 11.135 10.8351 11.135ZM10.8351 10.1C9.9261 10.1 9.3681 9.335 9.3681 7.85C9.3681 6.365 9.9261 5.6 10.8351 5.6C11.7441 5.6 12.3021 6.365 12.3021 7.85C12.3021 9.335 11.7441 10.1 10.8351 10.1Z" fill="black" style="fill:black;fill-opacity:1;"/>
</svg>
