<svg width="16" height="16" viewBox="0 0 16 16" fill="none" xmlns="http://www.w3.org/2000/svg">
<path fill-rule="evenodd" clip-rule="evenodd" d="M4.5 6C3.67157 6 3 6.67157 3 7.5V8.5C3 9.32843 3.67157 10 4.5 10C5.32843 10 6 9.32843 6 8.5V7.5C6 6.67157 5.32843 6 4.5 6ZM4 7.5C4 7.22386 4.22386 7 4.5 7C4.77614 7 5 7.22386 5 7.5V8.5C5 8.77614 4.77614 9 4.5 9C4.22386 9 4 8.77614 4 8.5V7.5Z" fill="black" style="fill:black;fill-opacity:1;"/>
<path fill-rule="evenodd" clip-rule="evenodd" d="M10 7.5C10 6.67157 10.6716 6 11.5 6C12.3284 6 13 6.67157 13 7.5V8.5C13 9.32843 12.3284 10 11.5 10C10.6716 10 10 9.32843 10 8.5V7.5ZM11.5 7C11.2239 7 11 7.22386 11 7.5V8.5C11 8.77614 11.2239 9 11.5 9C11.7761 9 12 8.77614 12 8.5V7.5C12 7.22386 11.7761 7 11.5 7Z" fill="black" style="fill:black;fill-opacity:1;"/>
<path fill-rule="evenodd" clip-rule="evenodd" d="M2.5 3C1.67157 3 1 3.67157 1 4.5V11.5C1 12.3284 1.67157 13 2.5 13H13.5C14.3284 13 15 12.3284 15 11.5V4.5C15 3.67157 14.3284 3 13.5 3H2.5ZM2 4.5C2 4.22386 2.22386 4 2.5 4H7.5V12H2.5C2.22386 12 2 11.7761 2 11.5V4.5ZM13.5 12C13.7761 12 14 11.7761 14 11.5V4.5C14 4.22386 13.7761 4 13.5 4H8.5V12H13.5Z" fill="black" style="fill:black;fill-opacity:1;"/>
</svg>
