<svg width="16" height="16" viewBox="0 0 16 16" fill="none" xmlns="http://www.w3.org/2000/svg">
<path d="M9.25 7.5C9.25 8.19036 8.69036 8.75 8 8.75C7.30965 8.75 6.75 8.19036 6.75 7.5C6.75 6.80964 7.30965 6.25 8 6.25C8.69036 6.25 9.25 6.80964 9.25 7.5Z" fill="black" style="fill:black;fill-opacity:1;"/>
<path fill-rule="evenodd" clip-rule="evenodd" d="M4.5 7.5C4.5 5.567 6.06701 4 8 4C9.933 4 11.5 5.567 11.5 7.5C11.5 9.433 9.933 11 8 11C6.06701 11 4.5 9.433 4.5 7.5ZM8 5C6.61929 5 5.5 6.11929 5.5 7.5C5.5 8.88071 6.61929 10 8 10C9.38071 10 10.5 8.88071 10.5 7.5C10.5 6.11929 9.38071 5 8 5Z" fill="black" style="fill:black;fill-opacity:1;"/>
<path fill-rule="evenodd" clip-rule="evenodd" d="M2 7.625C2 4.25291 4.67576 1.5 8 1.5C11.3242 1.5 14 4.25291 14 7.625V14.5L2 14.5V7.625ZM13 7.625V13.5L3 13.5L3 7.625C3 4.78389 5.24911 2.5 8 2.5C10.7509 2.5 13 4.78389 13 7.625Z" fill="black" style="fill:black;fill-opacity:1;"/>
</svg>
