<svg width="16" height="16" viewBox="0 0 16 16" fill="none" xmlns="http://www.w3.org/2000/svg">
<path fill-rule="evenodd" clip-rule="evenodd" d="M13.5 6.5C14.3284 6.5 15 7.17157 15 8V12C15 12.8284 14.3284 13.5 13.5 13.5H2.5C1.67157 13.5 1 12.8284 1 12V8C1 7.17157 1.67157 6.5 2.5 6.5H13.5ZM2.5 7.5C2.22386 7.5 2 7.72386 2 8V12C2 12.2761 2.22386 12.5 2.5 12.5H5.33301V7.5H2.5ZM6.33301 12.5H9.66699V7.5H6.33301V12.5ZM10.667 12.5H13.5C13.7761 12.5 14 12.2761 14 12V8C14 7.72386 13.7761 7.5 13.5 7.5H10.667V12.5Z" fill="black" style="fill:black;fill-opacity:1;"/>
<path fill-rule="evenodd" clip-rule="evenodd" d="M12.5 2.5C13.3284 2.5 14 3.17157 14 4C14 4.82843 13.3284 5.5 12.5 5.5H3.5C2.67157 5.5 2 4.82843 2 4C2 3.17157 2.67157 2.5 3.5 2.5H12.5ZM3.5 3.5C3.22386 3.5 3 3.72386 3 4C3 4.27614 3.22386 4.5 3.5 4.5H12.5C12.7761 4.5 13 4.27614 13 4C13 3.72386 12.7761 3.5 12.5 3.5H3.5Z" fill="black" style="fill:black;fill-opacity:1;"/>
</svg>
