<svg width="16" height="16" viewBox="0 0 16 16" fill="none" xmlns="http://www.w3.org/2000/svg">
<path fill-rule="evenodd" clip-rule="evenodd" d="M11.1948 3.95022C10.692 3.44742 9.87675 3.44742 9.37395 3.95022L4.80427 8.5199C3.92559 9.39858 3.92559 10.8232 4.80427 11.7019C5.68295 12.5806 7.10757 12.5806 7.98625 11.7019L12.2642 7.42388L12.9714 8.13099L8.69336 12.409C7.42416 13.6782 5.36637 13.6782 4.09717 12.409C2.82796 11.1398 2.82796 9.082 4.09717 7.81279L8.66684 3.24311C9.56017 2.34979 11.0085 2.34979 11.9019 3.24311C12.7952 4.13644 12.7952 5.5848 11.9019 6.47813L7.38079 10.9992C6.8365 11.5435 5.95403 11.5435 5.40973 10.9992C4.86544 10.4549 4.86544 9.57242 5.40973 9.02813L9.63912 4.79875L10.3462 5.50586L6.11684 9.73524C5.96307 9.88901 5.96307 10.1383 6.11684 10.2921C6.27061 10.4459 6.51992 10.4459 6.67369 10.2921L11.1948 5.77102C11.6976 5.26822 11.6976 4.45302 11.1948 3.95022Z" fill="black" style="fill:black;fill-opacity:1;"/>
</svg>
