<svg width="16" height="16" viewBox="0 0 16 16" fill="none" xmlns="http://www.w3.org/2000/svg">
<path fill-rule="evenodd" clip-rule="evenodd" d="M8.67524 1.31177L13.981 10.3316L14.495 13.9293L13.7227 14.416L10.6272 12.3524L5.31772 3.32628L8.67524 1.31177ZM11.1752 11.3118L6.68228 3.67373L8.32476 2.68825L12.8177 10.3263L11.1752 11.3118ZM13.1115 11.3162L11.9348 12.0223L13.3469 12.9637L13.1115 11.3162Z" fill="black" style="fill:black;fill-opacity:1;"/>
<path d="M2 10H2.24446C3.20722 10 4.07298 10.5862 4.43053 11.4801L5.06112 13.0565C5.25083 13.5308 5.91184 13.5583 6.14028 13.1014C6.70893 11.9641 8.3156 11.9195 8.94645 13.0235L9.03969 13.1867C9.26622 13.5831 9.83072 13.6025 10.084 13.2227L10.916 13.7774C10.2504 14.7758 8.76679 14.7247 8.17145 13.6828L8.07821 13.5197C7.84362 13.1091 7.24616 13.1257 7.03471 13.5486C6.42039 14.7773 4.64281 14.7033 4.13265 13.4279L3.50206 11.8514C3.29636 11.3372 2.79831 11 2.24446 11H2V10Z" fill="black" style="fill:black;fill-opacity:1;"/>
</svg>
