<svg width="16" height="16" viewBox="0 0 16 16" fill="none" xmlns="http://www.w3.org/2000/svg">
<path fill-rule="evenodd" clip-rule="evenodd" d="M11.5 11C10.6716 11 10 11.6716 10 12.5V15H9.00003V12.5C9.00003 11.1193 10.1193 10 11.5 10H15V11H11.5Z" fill="black" style="fill:black;fill-opacity:1;"/>
<path fill-rule="evenodd" clip-rule="evenodd" d="M15 2C13.3431 2 12 3.34315 12 5C12 6.65685 13.3431 8 15 8V9C12.7909 9 11 7.20914 11 5C11 2.79086 12.7909 1 15 1V2Z" fill="black" style="fill:black;fill-opacity:1;"/>
<path fill-rule="evenodd" clip-rule="evenodd" d="M4.5 11C5.32843 11 6 11.6716 6 12.5V15H7V12.5C7 11.1193 5.88071 10 4.5 10H1V11H4.5Z" fill="black" style="fill:black;fill-opacity:1;"/>
<path fill-rule="evenodd" clip-rule="evenodd" d="M1 2C2.65685 2 4 3.34315 4 5C4 6.65685 2.65685 8 1 8V9C3.20914 9 5 7.20914 5 5C5 2.79086 3.20914 1 1 1V2Z" fill="black" style="fill:black;fill-opacity:1;"/>
<path fill-rule="evenodd" clip-rule="evenodd" d="M10 4.99998V4.008L8.63842 2.64642L7.93131 3.35353L8.57776 3.99998H6V4.99998L10 4.99998Z" fill="black" style="fill:black;fill-opacity:1;"/>
<path fill-rule="evenodd" clip-rule="evenodd" d="M6.00417 5.99764V6.98962L7.36575 8.3512L8.07286 7.64409L7.42641 6.99764H10.0042V5.99764H6.00417Z" fill="black" style="fill:black;fill-opacity:1;"/>
</svg>
