<svg width="16" height="16" viewBox="0 0 16 16" fill="none" xmlns="http://www.w3.org/2000/svg">
<path fill-rule="evenodd" clip-rule="evenodd" d="M4.5 4.5C4.5 2.567 6.067 1 8 1C9.933 1 11.5 2.567 11.5 4.5C11.5 6.433 9.933 8 8 8C6.067 8 4.5 6.433 4.5 4.5ZM8 2C6.61929 2 5.5 3.11929 5.5 4.5C5.5 5.88071 6.61929 7 8 7C9.38071 7 10.5 5.88071 10.5 4.5C10.5 3.11929 9.38071 2 8 2Z" fill="black" style="fill:black;fill-opacity:1;"/>
<path d="M4.5 10C3.67157 10 3 10.6716 3 11.5V14H2V11.5C2 10.1193 3.11929 9 4.5 9H8V10H4.5Z" fill="black" style="fill:black;fill-opacity:1;"/>
<path fill-rule="evenodd" clip-rule="evenodd" d="M10.8104 10.5466L11.5142 9H12.4858L13.1895 10.5462L15 10.7131V11.5328L13.8834 12.5335L14.296 14.5H13.316L12 13.7991L10.6844 14.5H9.70399L10.1172 12.5308L9 11.5091V10.716L10.8104 10.5466ZM12 10.2875L11.5246 11.3321L10.2954 11.4472L11.1888 12.2642L10.9605 13.3521L12 12.7983L13.0395 13.3521L12.8107 12.2616L13.7194 11.4472L12.4756 11.3326L12 10.2875Z" fill="black" style="fill:black;fill-opacity:1;"/>
</svg>
