<svg width="16" height="16" viewBox="0 0 16 16" fill="none" xmlns="http://www.w3.org/2000/svg">
<path d="M14.5 13.5H10.707L11.8535 14.6465L11.1465 15.3535L9.5 13.707V12.5H14.5V13.5Z" fill="black" style="fill:black;fill-opacity:1;"/>
<path d="M8 10H4.5C3.67157 10 3 10.6716 3 11.5V14H2V11.5C2 10.1193 3.11929 9 4.5 9H8V10Z" fill="black" style="fill:black;fill-opacity:1;"/>
<path d="M14.5 10.293V11.5H9.5V10.5H13.293L12.1465 9.35352L12.8535 8.64648L14.5 10.293Z" fill="black" style="fill:black;fill-opacity:1;"/>
<path fill-rule="evenodd" clip-rule="evenodd" d="M8 1C9.933 1 11.5 2.567 11.5 4.5C11.5 6.433 9.933 8 8 8C6.067 8 4.5 6.433 4.5 4.5C4.5 2.567 6.067 1 8 1ZM8 2C6.61929 2 5.5 3.11929 5.5 4.5C5.5 5.88071 6.61929 7 8 7C9.38071 7 10.5 5.88071 10.5 4.5C10.5 3.11929 9.38071 2 8 2Z" fill="black" style="fill:black;fill-opacity:1;"/>
</svg>
