<svg width="16" height="16" viewBox="0 0 16 16" fill="none" xmlns="http://www.w3.org/2000/svg">
<path fill-rule="evenodd" clip-rule="evenodd" d="M5 7C5 5.34315 6.34315 4 8 4C9.65685 4 11 5.34315 11 7C11 8.65685 9.65685 10 8 10C6.34315 10 5 8.65685 5 7ZM8 5C6.89543 5 6 5.89543 6 7C6 8.10457 6.89543 9 8 9C9.10457 9 10 8.10457 10 7C10 5.89543 9.10457 5 8 5Z" fill="black" style="fill:black;fill-opacity:1;"/>
<path fill-rule="evenodd" clip-rule="evenodd" d="M3.5 1.97186C2.67158 1.97186 2 2.64343 2 3.47186V12.5C2 13.3284 2.67157 14 3.5 14L12.5 14C13.3284 14 14 13.3285 14 12.5V3.47189C14 2.64347 13.3284 1.97189 12.5 1.97189L3.5 1.97186ZM3 3.47186C3 3.19572 3.22386 2.97186 3.5 2.97186L12.5 2.97189C12.7761 2.97189 13 3.19575 13 3.47189V12.5C13 12.7762 12.7761 13 12.5 13L11.9981 13C11.9505 11.8874 11.0334 11 9.9091 11H6.0909C4.9666 11 4.04955 11.8874 4.00194 13L3.5 13C3.22386 13 3 12.7761 3 12.5V3.47186ZM5.00374 13L10.9963 13C10.9501 12.4401 10.481 12 9.9091 12H6.0909C5.51904 12 5.04994 12.4401 5.00374 13Z" fill="black" style="fill:black;fill-opacity:1;"/>
</svg>
