<svg width="16" height="16" viewBox="0 0 16 16" fill="none" xmlns="http://www.w3.org/2000/svg">
<path fill-rule="evenodd" clip-rule="evenodd" d="M4.5 4.5C4.5 2.567 6.067 1 8 1C9.933 1 11.5 2.567 11.5 4.5C11.5 6.433 9.933 8 8 8C6.067 8 4.5 6.433 4.5 4.5ZM8 2C6.61929 2 5.5 3.11929 5.5 4.5C5.5 5.88071 6.61929 7 8 7C9.38071 7 10.5 5.88071 10.5 4.5C10.5 3.11929 9.38071 2 8 2Z" fill="black" style="fill:black;fill-opacity:1;"/>
<path d="M4.5 10C3.67157 10 3 10.6716 3 11.5V14H2V11.5C2 10.1193 3.11929 9 4.5 9H8V10H4.5Z" fill="black" style="fill:black;fill-opacity:1;"/>
<path fill-rule="evenodd" clip-rule="evenodd" d="M12 8.49011L15 9.09011V11C15 12.0411 14.4665 12.7538 13.8613 13.2312C13.4086 13.5883 12.891 13.8327 12.5019 14.002V14H11.5019V14.0081C11.1116 13.8384 10.5889 13.5923 10.1324 13.2305C9.52951 12.7524 9 12.0399 9 11V9.09011L12 8.49011ZM10 9.90992V11C10 11.6473 10.3121 12.0968 10.7537 12.4469C11.1446 12.7568 11.6034 12.9627 11.9948 13.1313C12.3873 12.9625 12.8485 12.7565 13.242 12.4461C13.6865 12.0954 14 11.646 14 11V9.90992L12 9.50992L10 9.90992Z" fill="black" style="fill:black;fill-opacity:1;"/>
</svg>
