<svg width="16" height="16" viewBox="0 0 16 16" fill="none" xmlns="http://www.w3.org/2000/svg">
<path fill-rule="evenodd" clip-rule="evenodd" d="M11.9678 8.75C12.4715 8.75001 12.9242 8.82136 13.3252 8.96387C13.726 9.10633 14.067 9.31182 14.3486 9.58008C14.6319 9.84847 14.8489 10.1724 14.998 10.5518C15.1471 10.9311 15.2204 11.3598 15.2188 11.8369C15.2204 12.1633 15.1896 12.4563 15.125 12.7148C15.0604 12.9734 14.9617 13.195 14.8291 13.3789C14.6983 13.5627 14.5324 13.7075 14.332 13.8135C14.1332 13.9179 13.8981 13.9801 13.6279 14C13.4093 14.0182 13.2435 14.0047 13.1309 13.96C13.0184 13.9153 12.939 13.8509 12.8926 13.7666C12.8462 13.6804 12.8141 13.5836 12.7959 13.4775H12.7656C12.7275 13.5786 12.6439 13.6695 12.5146 13.749C12.3871 13.8269 12.2348 13.886 12.0576 13.9258C11.8804 13.9672 11.6979 13.9813 11.5107 13.9697C11.3218 13.9565 11.137 13.9122 10.958 13.8359C10.7792 13.7581 10.6177 13.6442 10.4736 13.4951C10.3312 13.3443 10.2173 13.1544 10.1328 12.9258C10.0501 12.6972 10.0085 12.4279 10.0068 12.1182C10.0085 11.8083 10.0512 11.5424 10.1357 11.3203C10.2219 11.0966 10.3341 10.9112 10.4717 10.7637C10.6109 10.6146 10.763 10.4991 10.9287 10.418C11.0944 10.3351 11.2569 10.2817 11.416 10.2568C11.6082 10.2237 11.7937 10.2209 11.9727 10.249C12.1515 10.2772 12.3022 10.3228 12.4248 10.3857C12.5491 10.4487 12.6264 10.5169 12.6562 10.5898H12.6934V10.3115H13.5537V12.7969C13.557 12.9044 13.5785 12.9822 13.6182 13.0303C13.6579 13.0783 13.7095 13.1025 13.7725 13.1025C13.8685 13.1025 13.9535 13.0554 14.0264 12.9609C14.1009 12.8648 14.1575 12.7176 14.1973 12.5205C14.2386 12.3217 14.2585 12.0691 14.2568 11.7627C14.2585 11.4214 14.2142 11.1296 14.123 10.8877C14.0336 10.6443 13.9117 10.4432 13.7578 10.2842C13.6037 10.1251 13.4276 10.0006 13.2305 9.91113C13.035 9.82004 12.828 9.7562 12.6094 9.71973C12.3907 9.68328 12.175 9.66505 11.9629 9.66504C11.5403 9.66504 11.1744 9.72884 10.8662 9.85645C10.5581 9.98238 10.3027 10.1572 10.1006 10.3809C9.89851 10.6045 9.74784 10.8643 9.64844 11.1592C9.55075 11.4524 9.50068 11.7673 9.49902 12.1035C9.5007 12.4863 9.55539 12.8252 9.66309 13.1201C9.77077 13.4134 9.92898 13.6596 10.1377 13.8584C10.3465 14.0573 10.6046 14.2075 10.9111 14.3086C11.2193 14.4113 11.5722 14.4619 11.9697 14.4619C12.1636 14.4619 12.3532 14.4497 12.5371 14.4248C12.7209 14.4 12.8883 14.3691 13.0391 14.3311C13.1914 14.293 13.3163 14.2523 13.4141 14.2109L13.6982 15.0195C13.5939 15.0841 13.4494 15.1436 13.2656 15.1982C13.0833 15.2546 12.874 15.2989 12.6387 15.332C12.4051 15.3668 12.16 15.3848 11.9033 15.3848C11.3664 15.3848 10.8867 15.3118 10.4658 15.166C10.045 15.0218 9.68905 14.8093 9.39746 14.5293C9.10582 14.2509 8.8839 13.9121 8.73145 13.5127C8.57902 13.1134 8.50169 12.6587 8.5 12.1484C8.50166 11.643 8.57898 11.1829 8.73145 10.7686C8.88556 10.3526 9.11029 9.99429 9.40527 9.69434C9.70176 9.39299 10.0643 9.16008 10.4932 8.99609C10.924 8.83203 11.4159 8.75 11.9678 8.75ZM11.833 11.1963C11.6509 11.1963 11.4957 11.2315 11.3682 11.3027C11.2425 11.3739 11.146 11.4761 11.0781 11.6084C11.0118 11.741 10.9785 11.9016 10.9785 12.0889C10.9786 12.2528 11.0059 12.4083 11.0605 12.5557C11.1152 12.7014 11.2052 12.82 11.3311 12.9111C11.457 13.0023 11.6283 13.0479 11.8438 13.0479C12.0407 13.0478 12.1963 13.0113 12.3105 12.9385C12.4249 12.8639 12.5066 12.7545 12.5547 12.6104C12.6027 12.4662 12.6241 12.2897 12.6191 12.0811C12.6191 11.9089 12.5977 11.7565 12.5547 11.624C12.5116 11.4914 12.433 11.3868 12.3203 11.3105C12.2076 11.2344 12.045 11.1963 11.833 11.1963Z" fill="black" style="fill:black;fill-opacity:1;"/>
<path d="M8 10H4.5C3.67157 10 3 10.6716 3 11.5V14H2V11.5C2 10.1193 3.11929 9 4.5 9H8V10Z" fill="black" style="fill:black;fill-opacity:1;"/>
<path fill-rule="evenodd" clip-rule="evenodd" d="M8 1C9.933 1 11.5 2.567 11.5 4.5C11.5 6.433 9.933 8 8 8C6.067 8 4.5 6.433 4.5 4.5C4.5 2.567 6.067 1 8 1ZM8 2C6.61929 2 5.5 3.11929 5.5 4.5C5.5 5.88071 6.61929 7 8 7C9.38071 7 10.5 5.88071 10.5 4.5C10.5 3.11929 9.38071 2 8 2Z" fill="black" style="fill:black;fill-opacity:1;"/>
</svg>
