<svg width="16" height="16" viewBox="0 0 16 16" fill="none" xmlns="http://www.w3.org/2000/svg">
<path fill-rule="evenodd" clip-rule="evenodd" d="M8 1C6.067 1 4.5 2.567 4.5 4.5C4.5 6.433 6.067 8 8 8C9.933 8 11.5 6.433 11.5 4.5C11.5 2.567 9.933 1 8 1ZM5.5 4.5C5.5 3.11929 6.61929 2 8 2C9.38071 2 10.5 3.11929 10.5 4.5C10.5 5.88071 9.38071 7 8 7C6.61929 7 5.5 5.88071 5.5 4.5Z" fill="black" style="fill:black;fill-opacity:1;"/>
<path d="M3 11.5C3 10.6716 3.67157 10 4.5 10H8V9H4.5C3.11929 9 2 10.1193 2 11.5V14H3V11.5Z" fill="black" style="fill:black;fill-opacity:1;"/>
<path fill-rule="evenodd" clip-rule="evenodd" d="M12.5 10.063V9H11.5V10.063C11.1425 10.155 10.8237 10.3434 10.5729 10.5988L9.65192 10.067L9.15192 10.933L10.0725 11.4645C10.0252 11.635 10 11.8145 10 12C10 12.1855 10.0253 12.3651 10.0725 12.5355L9.15192 13.067L9.65192 13.933L10.573 13.4013C10.8237 13.6566 11.1425 13.845 11.5 13.937V15H12.5V13.937C12.8575 13.845 13.1762 13.6566 13.427 13.4013L14.3481 13.933L14.8481 13.067L13.9275 12.5355C13.9747 12.3651 14 12.1855 14 12C14 11.8145 13.9748 11.635 13.9275 11.4645L14.8481 10.933L14.3481 10.067L13.4271 10.5988C13.1763 10.3434 12.8575 10.155 12.5 10.063ZM12 11C11.4477 11 11 11.4477 11 12C11 12.5523 11.4477 13 12 13C12.5523 13 13 12.5523 13 12C13 11.4477 12.5523 11 12 11Z" fill="black" style="fill:black;fill-opacity:1;"/>
</svg>
