<svg width="16" height="16" viewBox="0 0 16 16" fill="none" xmlns="http://www.w3.org/2000/svg">
<path fill-rule="evenodd" clip-rule="evenodd" d="M14.8535 1.85352L1.85352 14.8535L1.14648 14.1465L4.92773 10.3643C3.08103 8.38486 1.89825 6.28495 1.26855 4.78223C1.03517 4.22433 1.1884 3.6037 1.59473 3.19727L3.11621 1.67578C3.8604 0.931596 5.12005 1.16555 5.54785 2.12695L6.67773 4.66895C6.92981 5.23611 6.80606 5.9 6.36719 6.33887L6.06055 6.64648C5.86555 6.84165 5.86567 7.15828 6.06055 7.35352L7 8.29297L14.1465 1.14648L14.8535 1.85352ZM4.63379 2.5332C4.49101 2.21309 4.07119 2.13486 3.82324 2.38281L2.30176 3.9043C2.1608 4.04537 2.1261 4.24024 2.19141 4.39648C2.78601 5.81534 3.90109 7.79274 5.63477 9.65723L6.29297 9L5.35352 8.06055C4.76812 7.47478 4.76799 6.52514 5.35352 5.93945L5.66016 5.63184C5.80645 5.48555 5.8477 5.26425 5.76367 5.0752L4.63379 2.5332Z" fill="black" style="fill:black;fill-opacity:1;"/>
<path d="M9.66016 9.63184C10.0989 9.1931 10.763 9.0705 11.3301 9.32227L13.8721 10.4512C14.834 10.8787 15.0676 12.1385 14.3232 12.8828L12.8018 14.4043C12.3939 14.812 11.7749 14.9615 11.2197 14.7373C9.31851 13.9689 7.71046 12.916 6.36719 11.7529L7.07617 11.0439C8.33316 12.123 9.831 13.0971 11.5938 13.8096C11.7567 13.8754 11.9548 13.837 12.0947 13.6973L13.6162 12.1758C13.8643 11.9277 13.7865 11.5077 13.4658 11.3652L10.9238 10.2354C10.735 10.1518 10.5133 10.1928 10.3672 10.3389L10.0605 10.6465C9.47486 11.232 8.52522 11.2319 7.93945 10.6465L7.70703 10.4141L8.41406 9.70703L8.64648 9.93945C8.84172 10.1343 9.15835 10.1344 9.35352 9.93945L9.66016 9.63184Z" fill="black" style="fill:black;fill-opacity:1;"/>
</svg>
