<svg width="16" height="16" viewBox="0 0 16 16" fill="none" xmlns="http://www.w3.org/2000/svg">
<path fill-rule="evenodd" clip-rule="evenodd" d="M4.63448 2.53361C4.49197 2.21296 4.07214 2.13501 3.82402 2.38312L2.30233 3.90482C2.16115 4.046 2.12593 4.24005 2.19145 4.3964C3.30072 7.04361 6.21819 11.6373 11.5945 13.81C11.7575 13.8759 11.9553 13.8376 12.0952 13.6977L13.6169 12.176C13.865 11.9279 13.7871 11.5081 13.4664 11.3656L10.9246 10.2358C10.7355 10.1518 10.5142 10.1929 10.368 10.3392L10.0607 10.6465C9.47491 11.2322 8.52517 11.2322 7.93938 10.6465L5.35359 8.06066C4.76781 7.47488 4.76781 6.52513 5.35359 5.93934L5.66085 5.63209C5.80714 5.4858 5.84822 5.26452 5.7642 5.07547L4.63448 2.53361ZM3.11692 1.67602C3.86127 0.931667 5.12077 1.16553 5.54829 2.12747L6.67801 4.66933C6.93008 5.23649 6.80682 5.90033 6.36795 6.3392L6.0607 6.64645C5.86544 6.84171 5.86544 7.15829 6.0607 7.35356L8.64649 9.93934C8.84175 10.1346 9.15833 10.1346 9.35359 9.93934L9.66085 9.63209C10.0997 9.19322 10.7635 9.06996 11.3307 9.32203L13.8726 10.4517C14.8345 10.8793 15.0684 12.1388 14.324 12.8831L12.8023 14.4048C12.3944 14.8127 11.7751 14.9616 11.2198 14.7372C5.50985 12.4297 2.43891 7.57444 1.26915 4.78288C1.03526 4.22471 1.18859 3.60434 1.59522 3.19771L3.11692 1.67602Z" fill="black" style="fill:black;fill-opacity:1;"/>
</svg>
