<svg width="16" height="16" viewBox="0 0 16 16" fill="none" xmlns="http://www.w3.org/2000/svg">
<path d="M8.00005 5C9.10462 5 10 4.10457 10 3C10 1.89543 9.10462 1 8.00005 1C6.89548 1 6.00005 1.89543 6.00005 3C6.00005 4.10457 6.89548 5 8.00005 5Z" fill="black" style="fill:black;fill-opacity:1;"/>
<path d="M8.00005 5H9.82301C10.2319 5 10.5996 5.24895 10.7515 5.62861L12.4142 9.7854C12.4688 9.9219 12.4624 10.0752 12.3967 10.2067C12.2199 10.5602 11.7273 10.5909 11.5081 10.2621L10.175 8.26236C10.1226 8.18376 10 8.22086 10 8.31532V14.5001C10 14.7762 9.77624 15 9.50014 15.0001L8.94152 15.0002C8.68932 15.0002 8.47657 14.8125 8.44529 14.5622L8.09927 11.7939C8.08467 11.6771 7.91542 11.6771 7.90082 11.7939L7.5548 14.5621C7.52352 14.8123 7.31081 15 7.05864 15L6.50003 15C6.22389 15 6.00005 14.7762 6.00005 14.5V8.31531C6.00005 8.22086 5.87754 8.18377 5.82514 8.26236L4.49204 10.2621C4.27282 10.5909 3.78014 10.5602 3.60341 10.2067C3.53766 10.0752 3.53129 9.9219 3.58589 9.7854L5.2486 5.62861C5.40047 5.24895 5.76818 5 6.17708 5H8.00005Z" fill="black" style="fill:black;fill-opacity:1;"/>
</svg>
