<svg width="16" height="16" viewBox="0 0 16 16" fill="none" xmlns="http://www.w3.org/2000/svg">
<path d="M3.5 2C2.67158 2 2 2.67 2 3.49649V10.5035C2 11.33 2.67157 12 3.5 12L7 12V11.0023L3.5 11.0023C3.22386 11.0023 3 10.779 3 10.5035V3.49649C3 3.22099 3.22386 2.99766 3.5 2.99766L11.5 2.99769C11.7761 2.99769 12 3.22102 12 3.49652V7.00001H13V3.49652C13 2.67003 12.3284 2.00003 11.5 2.00003L3.5 2Z" fill="black" style="fill:black;fill-opacity:1;"/>
<path fill-rule="evenodd" clip-rule="evenodd" d="M9.5 8C8.67158 8 8 8.67 8 9.49649V12.5035C8 13.33 8.67157 14 9.5 14L13.5 14C14.3284 14 15 13.33 15 12.5035V9.49652C15 8.67003 14.3284 8.00003 13.5 8.00003L9.5 8ZM9 9.49649C9 9.22099 9.22386 8.99766 9.5 8.99766L13.5 8.99769C13.7761 8.99769 14 9.22102 14 9.49652V12.5035C14 12.779 13.7761 13.0023 13.5 13.0023L9.5 13.0023C9.22386 13.0023 9 12.779 9 12.5035V9.49649Z" fill="black" style="fill:black;fill-opacity:1;"/>
</svg>
