<svg width="16" height="16" viewBox="0 0 16 16" fill="none" xmlns="http://www.w3.org/2000/svg">
<path d="M4.5 2C3.67158 2 3 2.67 3 3.49649V6.99999H4V3.49649C4 3.22099 4.22386 2.99766 4.5 2.99766L12.5 2.99769C12.7761 2.99769 13 3.22102 13 3.49652V10.5035C13 10.779 12.7761 11.0023 12.5 11.0023L9 11.0023V12L12.5 12C13.3284 12 14 11.33 14 10.5035V3.49652C14 2.67003 13.3284 2.00003 12.5 2.00003L4.5 2Z" fill="black" style="fill:black;fill-opacity:1;"/>
<path fill-rule="evenodd" clip-rule="evenodd" d="M2.5 8C1.67158 8 1 8.67 1 9.49649V12.5035C1 13.33 1.67157 14 2.5 14L6.5 14C7.32842 14 8 13.33 8 12.5035V9.49652C8 8.67003 7.32843 8.00003 6.5 8.00003L2.5 8ZM2 9.49649C2 9.22099 2.22386 8.99766 2.5 8.99766L6.5 8.99769C6.77614 8.99769 7 9.22102 7 9.49652V12.5035C7 12.779 6.77614 13.0023 6.5 13.0023L2.5 13.0023C2.22386 13.0023 2 12.779 2 12.5035V9.49649Z" fill="black" style="fill:black;fill-opacity:1;"/>
</svg>
