<svg width="16" height="16" viewBox="0 0 16 16" fill="none" xmlns="http://www.w3.org/2000/svg">
<path fill-rule="evenodd" clip-rule="evenodd" d="M9.5 2C8.67158 2 8 2.67 8 3.49649V6.50348C8 7.32997 8.67157 7.99997 9.5 7.99997L13.5 8C14.3284 8 15 7.33 15 6.50351V3.49652C15 2.67003 14.3284 2.00003 13.5 2.00003L9.5 2ZM9 3.49649C9 3.22099 9.22386 2.99766 9.5 2.99766L13.5 2.99769C13.7761 2.99769 14 3.22102 14 3.49652V6.50351C14 6.77901 13.7761 7.00234 13.5 7.00234L9.5 7.00231C9.22386 7.00231 9 6.77898 9 6.50348V3.49649Z" fill="black" style="fill:black;fill-opacity:1;"/>
<path d="M3.5 4L7 4.00001V4.99767L3.5 4.99766C3.22386 4.99766 3 5.22099 3 5.49649V12.5035C3 12.779 3.22386 13.0023 3.5 13.0023L11.5 13.0023C11.7761 13.0023 12 12.779 12 12.5035V8.99999L13 9V12.5035C13 13.33 12.3284 14 11.5 14L3.5 14C2.67157 14 2 13.33 2 12.5035V5.49649C2 4.67 2.67158 4 3.5 4Z" fill="black" style="fill:black;fill-opacity:1;"/>
</svg>
