<svg width="16" height="16" viewBox="0 0 16 16" fill="none" xmlns="http://www.w3.org/2000/svg">
<path fill-rule="evenodd" clip-rule="evenodd" d="M2.5 2C1.67158 2 1 2.67 1 3.49649V6.50348C1 7.32997 1.67157 7.99997 2.5 7.99997L6.5 8C7.32842 8 8 7.33 8 6.50351V3.49652C8 2.67003 7.32843 2.00003 6.5 2.00003L2.5 2ZM2 3.49649C2 3.22099 2.22386 2.99766 2.5 2.99766L6.5 2.99769C6.77614 2.99769 7 3.22102 7 3.49652V6.50351C7 6.77901 6.77614 7.00234 6.5 7.00234L2.5 7.00231C2.22386 7.00231 2 6.77898 2 6.50348V3.49649Z" fill="black" style="fill:black;fill-opacity:1;"/>
<path d="M14 5.49652C14 4.67003 13.3284 4.00003 12.5 4.00003L9 4V4.99769H12.5C12.7761 4.99769 13 5.22102 13 5.49652V12.5035C13 12.779 12.7761 13.0023 12.5 13.0023L4.5 13.0023C4.22386 13.0023 4 12.779 4 12.5035V8.99999H3V12.5035C3 13.33 3.67157 14 4.5 14L12.5 14C13.3284 14 14 13.33 14 12.5035V5.49652Z" fill="black" style="fill:black;fill-opacity:1;"/>
</svg>
