<svg width="16" height="16" viewBox="0 0 16 16" fill="none" xmlns="http://www.w3.org/2000/svg">
<path fill-rule="evenodd" clip-rule="evenodd" d="M11.2501 8.95708L7.04298 4.74997L8.93943 2.85352C9.52522 2.26774 10.475 2.26774 11.0608 2.85352L11.7501 3.54287L12.6465 2.64642L13.3536 3.35353L12.4572 4.24997L13.1465 4.93931C13.7323 5.5251 13.7323 6.47485 13.1465 7.06063L11.2501 8.95708ZM11.2501 7.54286L12.4394 6.35352C12.6347 6.15826 12.6347 5.84168 12.4394 5.64642L10.3536 3.56063C10.1584 3.36537 9.8418 3.36537 9.64654 3.56063L8.4572 4.74997L11.2501 7.54286Z" fill="black" style="fill:black;fill-opacity:1;"/>
<path fill-rule="evenodd" clip-rule="evenodd" d="M4.75009 7.04289L5.50009 7.79289L6.64654 6.64644L7.35365 7.35355L6.2072 8.49999L7.50009 9.79289L8.64654 8.64644L9.35365 9.35355L8.2072 10.5L8.9572 11.25L7.06075 13.1464C6.47497 13.7322 5.52522 13.7322 4.93943 13.1464L4.25009 12.4571L3.35364 13.3535L2.64654 12.6464L3.54299 11.75L2.85365 11.0607C2.26786 10.4749 2.26786 9.52512 2.85365 8.93933L4.75009 7.04289ZM3.56075 9.64644L4.75009 8.4571L7.54299 11.25L6.35365 12.4393C6.15838 12.6346 5.8418 12.6346 5.64654 12.4393L3.56075 10.3535C3.36549 10.1583 3.36549 9.8417 3.56075 9.64644Z" fill="black" style="fill:black;fill-opacity:1;"/>
</svg>
