<svg width="16" height="16" viewBox="0 0 16 16" fill="none" xmlns="http://www.w3.org/2000/svg">
<path fill-rule="evenodd" clip-rule="evenodd" d="M9.08535 4.5H2V3.5H9.08535C9.29127 2.9174 9.84689 2.5 10.5 2.5C11.1531 2.5 11.7087 2.9174 11.9146 3.5H14V4.5H11.9146C11.7087 5.0826 11.1531 5.5 10.5 5.5C9.84689 5.5 9.29127 5.0826 9.08535 4.5ZM10 4C10 3.72386 10.2239 3.5 10.5 3.5C10.7761 3.5 11 3.72386 11 4C11 4.27614 10.7761 4.5 10.5 4.5C10.2239 4.5 10 4.27614 10 4Z" fill="black" style="fill:black;fill-opacity:1;"/>
<path fill-rule="evenodd" clip-rule="evenodd" d="M4.08535 8.5H2V7.5H4.08535C4.29127 6.9174 4.84689 6.5 5.5 6.5C6.15311 6.5 6.70873 6.9174 6.91465 7.5H14V8.5H6.91465C6.70873 9.0826 6.15311 9.5 5.5 9.5C4.84689 9.5 4.29127 9.0826 4.08535 8.5ZM5 8C5 7.72386 5.22386 7.5 5.5 7.5C5.77614 7.5 6 7.72386 6 8C6 8.27614 5.77614 8.5 5.5 8.5C5.22386 8.5 5 8.27614 5 8Z" fill="black" style="fill:black;fill-opacity:1;"/>
<path fill-rule="evenodd" clip-rule="evenodd" d="M9.08535 11.5C9.29127 10.9174 9.84689 10.5 10.5 10.5C11.1531 10.5 11.7087 10.9174 11.9146 11.5H14V12.5H11.9146C11.7087 13.0826 11.1531 13.5 10.5 13.5C9.84689 13.5 9.29127 13.0826 9.08535 12.5H2V11.5H9.08535ZM10.5 11.5C10.2239 11.5 10 11.7239 10 12C10 12.2761 10.2239 12.5 10.5 12.5C10.7761 12.5 11 12.2761 11 12C11 11.7239 10.7761 11.5 10.5 11.5Z" fill="black" style="fill:black;fill-opacity:1;"/>
</svg>
