<svg width="16" height="16" viewBox="0 0 16 16" fill="none" xmlns="http://www.w3.org/2000/svg">
<path d="M6.5 8H7.5V7H8.5V9H6.5V8Z" fill="black" style="fill:black;fill-opacity:1;"/>
<path fill-rule="evenodd" clip-rule="evenodd" d="M8 5C6.067 5 4.5 6.567 4.5 8.5C4.5 10.433 6.067 12 8 12C9.933 12 11.5 10.433 11.5 8.5C11.5 6.567 9.933 5 8 5ZM5.5 8.5C5.5 7.11929 6.61929 6 8 6C9.38071 6 10.5 7.11929 10.5 8.5C10.5 9.88071 9.38071 11 8 11C6.61929 11 5.5 9.88071 5.5 8.5Z" fill="black" style="fill:black;fill-opacity:1;"/>
<path fill-rule="evenodd" clip-rule="evenodd" d="M5 2.5V3H2.5C1.67157 3 1 3.67157 1 4.5V12.5C1 13.3284 1.67157 14 2.5 14H13.5C14.3284 14 15 13.3284 15 12.5V4.5C15 3.67157 14.3284 3 13.5 3H11V2.5C11 1.67157 10.3284 1 9.5 1H6.5C5.67157 1 5 1.67157 5 2.5ZM6.5 2C6.22386 2 6 2.22386 6 2.5V3H10V2.5C10 2.22386 9.77614 2 9.5 2H6.5ZM2.5 4C2.22386 4 2 4.22386 2 4.5V12.5C2 12.7761 2.22386 13 2.5 13H13.5C13.7761 13 14 12.7761 14 12.5V4.5C14 4.22386 13.7761 4 13.5 4H2.5Z" fill="black" style="fill:black;fill-opacity:1;"/>
</svg>
