<svg width="16" height="16" viewBox="0 0 16 16" fill="none" xmlns="http://www.w3.org/2000/svg">
<path fill-rule="evenodd" clip-rule="evenodd" d="M2.00199 8.5H1.00002L1 12H3V12.5C3 13.3284 3.67159 14 4.50002 14C5.32844 14 6.00002 13.3284 6.00002 12.5L6 12H11V11C11 10.7239 11.2239 10.5 11.5 10.5C11.7749 10.5 11.998 10.7219 12 10.9963V12H15L15 8.5H13.998C13.7228 8.49893 13.5 8.27548 13.5 8C13.5 7.72386 13.7239 7.5 14 7.5H15V4H13V3.5C13 2.67157 12.3284 2 11.5 2C10.6716 2 10 2.67157 10 3.5L10 4H6V3.5C6 2.67157 5.32844 2 4.50002 2C3.67159 2 3.00002 2.67157 3.00002 3.5L3 4H1.00001V7.5H2.00002C2.27616 7.5 2.50002 7.72386 2.50002 8C2.50002 8.27548 2.27722 8.49893 2.00199 8.5ZM5.00002 3.5C5.00002 3.22386 4.77616 3 4.50002 3C4.22387 3 4.00002 3.22386 4.00002 3.5L4 5H2.00001V6.5H2.09092V6.50271C2.87702 6.5497 3.50002 7.2021 3.50002 8C3.50002 8.7979 2.87702 9.4503 2.09092 9.49729V9.5H2.00343C2.0023 9.5 2.00116 9.5 2.00002 9.5L2 11H4V12.5C4 12.7761 4.22387 13 4.50002 13C4.77616 13 5.00002 12.7761 5.00002 12.5L5 11H8L8.00001 9.5L7.9966 9.5H7.9091V9.49729C7.12301 9.4503 6.50002 8.7979 6.50002 8C6.50002 7.2021 7.123 6.54971 7.90909 6.50271V6.5H8V5H5L5.00002 3.5ZM9.00002 8.5H7.99804C7.72281 8.49893 7.50002 8.27548 7.50002 8C7.50002 7.72386 7.72387 7.5 8.00002 7.5H9V5H11V3.5C11 3.22386 11.2239 3 11.5 3C11.7762 3 12 3.22386 12 3.5L12 5H14L14 6.5H13.9091V6.50271C13.123 6.5497 12.5 7.2021 12.5 8C12.5 8.7979 13.123 9.4503 13.9091 9.49729V9.5H13.9966H14L14 11H13L13 10.9936V10.9091H12.9973C12.9503 10.123 12.2979 9.5 11.5 9.5C10.7021 9.5 10.0497 10.123 10.0027 10.9091H10V11H9L9.00002 8.5ZM13.9966 9.5L13.9091 9.49729C13.9381 9.49902 13.9672 9.49993 13.9966 9.5Z" fill="black" style="fill:black;fill-opacity:1;"/>
</svg>
