<svg width="16" height="16" viewBox="0 0 16 16" fill="none" xmlns="http://www.w3.org/2000/svg">
<path fill-rule="evenodd" clip-rule="evenodd" d="M14 7.5H13C12.4477 7.5 12 7.94772 12 8.5C12 9.05228 12.4477 9.5 13 9.5L14 9.5L14 14H9.5V13C9.5 12.4477 9.05228 12 8.5 12C7.94772 12 7.5 12.4477 7.5 13V14H3V10.5C1.89543 10.5 1 9.60457 1 8.5C1 7.39543 1.89543 6.5 3 6.5L3.00001 3L6.5 3C6.5 1.89543 7.39543 1 8.5 1C9.60457 1 10.5 1.89543 10.5 3L14 3V7.5ZM8.5 2C9.05228 2 9.5 2.44772 9.5 3L9.5 4H13L13 6.5C11.8954 6.5 11 7.39543 11 8.5C11 9.60457 11.8954 10.5 13 10.5L13 13H10.5C10.5 11.8954 9.60457 11 8.5 11C7.39543 11 6.5 11.8954 6.5 13H4L4.00001 9.5L3.00001 9.5C2.44772 9.5 2 9.05228 2 8.5C2 7.94772 2.44773 7.5 3.00001 7.5H4.00001V4H7.5L7.5 3C7.5 2.44772 7.94771 2 8.5 2Z" fill="black" style="fill:black;fill-opacity:1;"/>
</svg>
