<svg width="16" height="16" viewBox="0 0 16 16" fill="none" xmlns="http://www.w3.org/2000/svg">
<path d="M8 3C7.28797 3 6.61195 3.14853 6.00019 3.41582L5.59981 2.49947C6.33546 2.17805 7.1476 2 8 2C11.3137 2 14 4.68629 14 8C14 9.53684 13.4218 10.9388 12.4722 12H13.75V13H11.25L10.75 12.5V10H11.75V11.3073C12.5284 10.4256 13 9.26796 13 8C13 5.23858 10.7614 3 8 3Z" fill="black" style="fill:black;fill-opacity:1;"/>
<path d="M2.25 4H3.52785C2.57817 5.06117 2 6.46311 2 8C2 11.3137 4.68629 14 8 14C8.8524 14 9.66454 13.8219 10.4002 13.5005L9.99981 12.5842C9.38805 12.8515 8.71203 13 8 13C5.23858 13 3 10.7614 3 8C3 6.73208 3.47162 5.5744 4.25 4.69265V6H5.25V3.5L4.75 3H2.25V4Z" fill="black" style="fill:black;fill-opacity:1;"/>
</svg>
