<svg width="16" height="16" viewBox="0 0 16 16" fill="none" xmlns="http://www.w3.org/2000/svg">
<path d="M3.01974 7.55163C3.24648 5.00027 5.3896 3 7.99991 3C10.7613 3 12.9999 5.23858 12.9999 8C12.9999 10.7614 10.7613 13 7.99991 13C6.62265 13 5.37625 12.4438 4.47145 11.5426L3.76575 12.2511C4.85032 13.3314 6.34751 14 7.99991 14C11.3136 14 13.9999 11.3137 13.9999 8C13.9999 4.68629 11.3136 2 7.99991 2C4.82884 2 2.23233 4.46002 2.01468 7.57575L1.35823 6.90126L0.641602 7.59872L2.00539 9H2.9962L4.356 7.62052L3.64383 6.91851L3.01974 7.55163Z" fill="black" style="fill:black;fill-opacity:1;"/>
</svg>
