<svg width="16" height="16" viewBox="0 0 16 16" fill="none" xmlns="http://www.w3.org/2000/svg">
<path fill-rule="evenodd" clip-rule="evenodd" d="M8 3.75C9.24264 3.75 10.25 4.75736 10.25 6C10.25 7.24264 9.24264 8.25 8 8.25C6.75736 8.25 5.75 7.24264 5.75 6C5.75 4.75736 6.75736 3.75 8 3.75ZM8 4.75C7.30964 4.75 6.75 5.30964 6.75 6C6.75 6.69036 7.30964 7.25 8 7.25C8.69036 7.25 9.25 6.69036 9.25 6C9.25 5.30964 8.69036 4.75 8 4.75Z" fill="black" style="fill:black;fill-opacity:1;"/>
<path fill-rule="evenodd" clip-rule="evenodd" d="M9.4082 1.66602L10.8691 1.45996L11.4316 1.86816L11.6855 3.32129L12.9893 4.01367L13.2041 4.6748L12.5557 6L13.2041 7.3252L12.9893 7.98633L11.6855 8.67773L11.4316 10.1318L11 10.4443V15L10.2432 15.4287L8 14.082L5.75684 15.4287L5 15V10.4443L4.56836 10.1318L4.31348 8.67773L3.01074 7.98633L2.7959 7.3252L3.44336 6L2.7959 4.6748L3.01074 4.01367L4.31348 3.32129L4.56836 1.86816L5.13086 1.45996L6.59082 1.66602L7.65234 0.640625H8.34766L9.4082 1.66602ZM8.34766 11.3594H7.65234L6.59082 10.333L6 10.416V14.1172L7.74316 13.0713H8.25684L10 14.1172V10.416L9.4082 10.333L8.34766 11.3594ZM7.11133 2.55469L6.69434 2.69043L5.46973 2.51758L5.25684 3.73535L4.99805 4.09082L3.90625 4.66895L4.44922 5.78027V6.21973L3.90625 7.33008L4.99805 7.90918L5.25684 8.26465L5.46973 9.48145L6.69434 9.30957L7.11133 9.44531L8 10.3037L8.88867 9.44531L9.30566 9.30957L10.5293 9.48145L10.7432 8.26465L11.002 7.90918L12.0928 7.33008L11.5508 6.21973V5.78027L12.0928 4.66895L11.002 4.09082L10.7432 3.73535L10.5293 2.51758L9.30566 2.69043L8.88867 2.55469L8 1.69531L7.11133 2.55469Z" fill="black" style="fill:black;fill-opacity:1;"/>
</svg>
