<svg width="16" height="16" viewBox="0 0 16 16" fill="none" xmlns="http://www.w3.org/2000/svg">
<path d="M8.57117 8.50422L6.94917 10.1262L7.65628 10.8333L10 8.4896V7.52019L7.65628 5.17647L6.94917 5.88357L8.56982 7.50422L3.00039 7.49998L2.99963 8.49998L8.57117 8.50422Z" fill="black" style="fill:black;fill-opacity:1;"/>
<path fill-rule="evenodd" clip-rule="evenodd" d="M15 4C15 3.17157 14.3284 2.5 13.5 2.5H2.5C1.67157 2.5 1 3.17157 1 4V12C1 12.8284 1.67157 13.5 2.5 13.5H13.5C14.3284 13.5 15 12.8284 15 12V4ZM13.5 3.5C13.7761 3.5 14 3.72386 14 4V12C14 12.2761 13.7761 12.5 13.5 12.5H12V3.5H13.5ZM11 3.5V12.5H2.5C2.22386 12.5 2 12.2761 2 12V4C2 3.72386 2.22386 3.5 2.5 3.5H11Z" fill="black" style="fill:black;fill-opacity:1;"/>
</svg>
