<svg width="16" height="16" viewBox="0 0 16 16" fill="none" xmlns="http://www.w3.org/2000/svg">
<path d="M9.08155 3.66458L8.42548 3.01787C10.9877 3.23381 13 5.38193 13 8.00002C13 10.7614 10.7614 13 7.99996 13V14C11.3137 14 14 11.3137 14 8.00002C14 4.83568 11.5504 2.24347 8.44406 2.01621L9.0988 1.37898L8.40134 0.662354L6.99996 2.02624V3.01685L8.37954 4.37675L9.08155 3.66458Z" fill="black" style="fill:black;fill-opacity:1;"/>
<path fill-rule="evenodd" clip-rule="evenodd" d="M10.2426 8.00003L5.99996 3.75739L1.75732 8.00003L5.99996 12.2427L10.2426 8.00003ZM3.17154 8.00003L5.99996 5.17161L8.82839 8.00003L5.99996 10.8285L3.17154 8.00003Z" fill="black" style="fill:black;fill-opacity:1;"/>
</svg>
