<svg width="16" height="16" viewBox="0 0 16 16" fill="none" xmlns="http://www.w3.org/2000/svg">
<path fill-rule="evenodd" clip-rule="evenodd" d="M5.64726 6.12364L7.76858 4.00232L4.94016 1.17389L2.81883 3.29521L5.64726 6.12364ZM4.23305 3.29521L4.94016 2.5881L6.35437 4.00232L5.64726 4.70942L4.23305 3.29521Z" fill="black" style="fill:black;fill-opacity:1;"/>
<path fill-rule="evenodd" clip-rule="evenodd" d="M8.47516 4.70944C9.25621 3.92839 10.5225 3.92839 11.3036 4.70944C12.0846 5.49049 12.0846 6.75682 11.3036 7.53787L9.18227 9.65919L8.1217 8.59863L7.41468 9.30565L6.70757 8.59854L7.4146 7.89152L6.35384 6.83076L8.47516 4.70944ZM10.5965 5.41655C10.206 5.02602 9.57279 5.02602 9.18227 5.41655L7.76805 6.83076L9.18227 8.24497L10.5965 6.83076C10.987 6.44024 10.987 5.80707 10.5965 5.41655Z" fill="black" style="fill:black;fill-opacity:1;"/>
<path fill-rule="evenodd" clip-rule="evenodd" d="M14.8399 11.0734L12.7186 13.1947L9.89012 10.3663L12.0114 8.245L14.8399 11.0734ZM12.0114 9.65921L11.3043 10.3663L12.7186 11.7805L13.4257 11.0734L12.0114 9.65921Z" fill="black" style="fill:black;fill-opacity:1;"/>
<path d="M8 13V14C4.68629 14 2 11.3137 2 8H3C3 10.7614 5.23858 13 8 13Z" fill="black" style="fill:black;fill-opacity:1;"/>
<path d="M8 12C5.79086 12 4 10.2091 4 8H5C5 9.65685 6.34315 11 8 11V12Z" fill="black" style="fill:black;fill-opacity:1;"/>
</svg>
