<svg width="16" height="16" viewBox="0 0 16 16" fill="none" xmlns="http://www.w3.org/2000/svg">
<path d="M2 3.5C2 2.67157 2.67157 2 3.5 2H7V3H3.5C3.22386 3 3 3.22386 3 3.5V6.5H2V3.5Z" fill="black" style="fill:black;fill-opacity:1;"/>
<path d="M12.5 3H9V2H12.5C13.3284 2 14 2.67157 14 3.5V6.5H13V3.5C13 3.22386 12.7761 3 12.5 3Z" fill="black" style="fill:black;fill-opacity:1;"/>
<path d="M3 12.5V9.5H2V12.5C2 13.3284 2.67157 14 3.5 14H7V13H3.5C3.22386 13 3 12.7761 3 12.5Z" fill="black" style="fill:black;fill-opacity:1;"/>
<path d="M13 9.5H14V12.5C14 13.3284 13.3284 14 12.5 14H9V13H12.5C12.7761 13 13 12.7761 13 12.5V9.5Z" fill="black" style="fill:black;fill-opacity:1;"/>
<path d="M2 8.5H14V7.5H2V8.5Z" fill="black" style="fill:black;fill-opacity:1;"/>
</svg>
