<svg width="16" height="16" viewBox="0 0 16 16" fill="none" xmlns="http://www.w3.org/2000/svg">
<path fill-rule="evenodd" clip-rule="evenodd" d="M10.6873 2.7184L9.7878 2.28156L6.71389 8.61116L6.39975 8.78061L5.65132 8.11514C5.06007 7.58943 4.16216 7.61332 3.5997 8.16973L2.76835 8.99214C2.22497 9.52967 2.17267 10.3898 2.6469 10.9892L3.17472 11.6564L5.96627 10.1506L4.56454 13.037L5.21563 13.5355C5.83494 14.0097 6.71432 13.9301 7.23844 13.3524L8.02611 12.4843C8.5475 11.9096 8.54454 11.0321 8.01929 10.461L7.30463 9.68387L7.47252 9.33816L13.619 6.02283L13.1442 5.1427L8.22014 7.79871L10.6873 2.7184ZM5.82076 12.7394L6.83513 10.6506L7.28323 11.1379C7.45831 11.3283 7.4593 11.6208 7.2855 11.8123L6.49783 12.6805C6.32313 12.873 6.03 12.8996 5.82356 12.7415L5.82076 12.7394ZM3.4384 10.3779L5.46304 9.28586L4.98685 8.86245C4.78977 8.68721 4.49046 8.69518 4.30298 8.88065L3.47162 9.70306C3.29049 9.88224 3.27306 10.169 3.43114 10.3688L3.4384 10.3779Z" fill="black" style="fill:black;fill-opacity:1;"/>
</svg>
