<svg width="16" height="16" viewBox="0 0 16 16" fill="none" xmlns="http://www.w3.org/2000/svg">
<path d="M7.50002 6.5V7.5H6.50002V8.5H7.50002V9.5H8.50002V8.5H9.50002V7.5H8.50002V6.5H7.50002Z" fill="black" style="fill:black;fill-opacity:1;"/>
<path fill-rule="evenodd" clip-rule="evenodd" d="M2 8C2 4.68629 4.68629 2 8 2C11.3137 2 14 4.68629 14 8C14 11.3137 11.3137 14 8 14C4.68629 14 2 11.3137 2 8ZM3.02469 7.5C3.25922 5.13779 5.13779 3.25922 7.5 3.02469V4H8.5V3.02469C10.8622 3.25922 12.7408 5.13779 12.9753 7.5H12V8.5H12.9753C12.7408 10.8622 10.8622 12.7408 8.5 12.9753V12H7.5V12.9753C5.13779 12.7408 3.25922 10.8622 3.02469 8.5H4V7.5H3.02469Z" fill="black" style="fill:black;fill-opacity:1;"/>
</svg>
