<svg width="16" height="16" viewBox="0 0 16 16" fill="none" xmlns="http://www.w3.org/2000/svg">
<path fill-rule="evenodd" clip-rule="evenodd" d="M14.7072 4.00008L12.0001 1.29297L10.6465 2.6465L10.1465 2.14648L8.50008 3.79293V4.79293L6.79297 6.50004L9.50008 9.20714L11.2072 7.50004H12.2072L13.8536 5.85359L13.3536 5.35361L14.7072 4.00008ZM10.0001 3.70716L12.2929 6.00006L11.793 6.50004H11.2073L9.50008 4.79285V4.20714L10.0001 3.70716ZM9.00012 5.7071L8.20722 6.5L9.50012 7.79289L10.293 7L9.00012 5.7071ZM12.5001 4.79297L11.2072 3.50008L12.0001 2.70718L13.293 4.00008L12.5001 4.79297Z" fill="black" style="fill:black;fill-opacity:1;"/>
<path fill-rule="evenodd" clip-rule="evenodd" d="M7.20727 12.5001H5.7072L4.00008 14.2072L1.79297 12.0001L3.50017 10.2929L3.50017 8.79295L5.50017 6.79295L9.20728 10.5001L7.20727 12.5001ZM4.00008 12.793L3.20718 12.0001L4.00008 11.2072L4.79297 12.0001L4.00008 12.793ZM6.79306 11.5001L7.79306 10.5001L5.50017 8.20717L4.50017 9.20717L4.50017 10.293L5.70727 11.5001H6.79306Z" fill="black" style="fill:black;fill-opacity:1;"/>
</svg>
