<svg width="16" height="16" viewBox="0 0 16 16" fill="none" xmlns="http://www.w3.org/2000/svg">
<path fill-rule="evenodd" clip-rule="evenodd" d="M5.5 4.5C5.5 3.11929 6.61929 2 8 2C9.38071 2 10.5 3.11929 10.5 4.5C10.5 5.88071 9.38071 7 8 7C6.61929 7 5.5 5.88071 5.5 4.5ZM8 3C7.17157 3 6.5 3.67157 6.5 4.5C6.5 5.32843 7.17157 6 8 6C8.82843 6 9.5 5.32843 9.5 4.5C9.5 3.67157 8.82843 3 8 3Z" fill="black" style="fill:black;fill-opacity:1;"/>
<path d="M8.52553 8H5.02C3.90438 8 3 8.90438 3 10.02V13.5255L4 12.5255V10.02C4 9.45667 4.45667 9 5.02 9H7.52553L8.52553 8Z" fill="black" style="fill:black;fill-opacity:1;"/>
<path d="M11.8598 8.20117L12.8234 7.23766L11.7627 6.177L3.9397 14H6.06102L11.0581 9.00294C11.0581 9.00294 11.0581 9.00294 11.0581 9.00294L11.8598 8.20117C11.8599 8.20118 11.8598 8.20117 11.8598 8.20117Z" fill="black" style="fill:black;fill-opacity:1;"/>
<path d="M11.8988 9.57649C11.9636 9.71059 12 9.86105 12 10.02V14H13V10.02C13 9.58352 12.8616 9.17937 12.6262 8.84907L11.8988 9.57649Z" fill="black" style="fill:black;fill-opacity:1;"/>
</svg>
