<svg width="16" height="16" viewBox="0 0 16 16" fill="none" xmlns="http://www.w3.org/2000/svg">
<path fill-rule="evenodd" clip-rule="evenodd" d="M12 1.29291L14.7071 4.00001L12.5 6.20714V10.063C13.3626 10.285 14 11.0681 14 12C14 13.1046 13.1046 14 12 14C10.8954 14 10 13.1046 10 12C10 11.0681 10.6374 10.285 11.5 10.063V6.20711L9.79289 4.5H5.93699C5.7561 5.2028 5.2028 5.7561 4.5 5.93699V10H6V14H2V10H3.5V5.93699C2.63739 5.71497 2 4.93192 2 4C2 2.89543 2.89543 2 4 2C4.93192 2 5.71497 2.63739 5.93699 3.5H9.79292L12 1.29291ZM10.7071 4.00001L12 5.29291L13.2929 4.00001L12 2.70712L10.7071 4.00001ZM4 3C3.44772 3 3 3.44772 3 4C3 4.55228 3.44772 5 4 5C4.55228 5 5 4.55228 5 4C5 3.44772 4.55228 3 4 3ZM12 11C11.4477 11 11 11.4477 11 12C11 12.5523 11.4477 13 12 13C12.5523 13 13 12.5523 13 12C13 11.4477 12.5523 11 12 11ZM3 13V11H5V13H3Z" fill="black" style="fill:black;fill-opacity:1;"/>
</svg>
