<svg width="16" height="16" viewBox="0 0 16 16" fill="none" xmlns="http://www.w3.org/2000/svg">
<path fill-rule="evenodd" clip-rule="evenodd" d="M10 4C10 2.89543 10.8954 2 12 2C13.1046 2 14 2.89543 14 4C14 5.10457 13.1046 6 12 6C11.3161 6 10.7124 5.65676 10.3518 5.13315L5.89579 7.36113C5.96337 7.56174 6 7.77659 6 8C6 8.22341 5.96337 8.43826 5.89579 8.63887L10.3518 10.8669C10.7124 10.3432 11.3161 10 12 10C13.1046 10 14 10.8954 14 12C14 13.1046 13.1046 14 12 14C10.8954 14 10 13.1046 10 12C10 11.937 10.0029 11.8748 10.0086 11.8133L5.34408 9.48105C4.98898 9.8035 4.51744 10 4 10C2.89543 10 2 9.10457 2 8C2 6.89543 2.89543 6 4 6C4.51744 6 4.98898 6.1965 5.34408 6.51895L10.0086 4.18669C10.0029 4.12522 10 4.06295 10 4Z" fill="black" style="fill:black;fill-opacity:1;"/>
</svg>
