<svg width="16" height="16" viewBox="0 0 16 16" fill="none" xmlns="http://www.w3.org/2000/svg">
<path d="M8.00004 8.21065L9.64648 9.8571L10.3536 9.14999L8.70714 7.50355L10.3536 5.8571L9.64648 5.14999L8.00004 6.79644L6.35359 5.14999L5.64648 5.8571L7.29293 7.50355L5.64648 9.14999L6.35359 9.8571L8.00004 8.21065Z" fill="black" style="fill:black;fill-opacity:1;"/>
<path fill-rule="evenodd" clip-rule="evenodd" d="M14 2.59022L8 1.5L2 2.59022V7.00473C2 11.2301 5.44797 13.5426 7.51368 14.5H8.48632C10.552 13.5426 14 11.2301 14 7.00473V2.59022ZM3 7.00473V3.42427L8 2.51576L13 3.42427V7.00473C13 10.6587 9.96628 12.7295 8 13.6236C6.03372 12.7295 3 10.6587 3 7.00473Z" fill="black" style="fill:black;fill-opacity:1;"/>
</svg>
