<svg width="16" height="16" viewBox="0 0 16 16" fill="none" xmlns="http://www.w3.org/2000/svg">
<path fill-rule="evenodd" clip-rule="evenodd" d="M14 2.59022L8 1.5L2 2.59022V7.00472C2 11.2301 5.44804 13.5426 7.51374 14.5H8.48626C10.552 13.5426 14 11.2301 14 7.00472V2.59022ZM3 7.00472V3.42427L8 2.51575L13 3.42427V7.00472C13 10.6587 9.96628 12.7295 8 13.6236C6.03372 12.7295 3 10.6587 3 7.00472Z" fill="black" style="fill:black;fill-opacity:1;"/>
<path fill-rule="evenodd" clip-rule="evenodd" d="M6.5 6.59035V6.00536C6.5 5.17746 7.17157 4.50631 8 4.50631C8.82843 4.50631 9.5 5.17746 9.5 6.00536V6.59035C10.0826 6.79614 10.5 7.3514 10.5 8.0041V10.5025H5.5V8.0041C5.5 7.3514 5.9174 6.79614 6.5 6.59035ZM7.5 6.00536C7.5 5.7294 7.72386 5.50568 8 5.50568C8.27614 5.50568 8.5 5.7294 8.5 6.00536V6.50505H7.5V6.00536ZM7 7.50442C6.72386 7.50442 6.5 7.72813 6.5 8.0041V9.50316H9.5V8.0041C9.5 7.72813 9.27614 7.50442 9 7.50442H7Z" fill="black" style="fill:black;fill-opacity:1;"/>
</svg>
