<svg width="16" height="16" viewBox="0 0 16 16" fill="none" xmlns="http://www.w3.org/2000/svg">
<path fill-rule="evenodd" clip-rule="evenodd" d="M8 5.50566C6.89543 5.50566 6 6.40053 6 7.5044C6 8.60828 6.89543 9.50314 8 9.50314C9.10457 9.50314 10 8.60828 10 7.5044C10 6.40053 9.10457 5.50566 8 5.50566ZM7 7.5044C7 6.95246 7.44772 6.50503 8 6.50503C8.55228 6.50503 9 6.95246 9 7.5044C9 8.05634 8.55228 8.50377 8 8.50377C7.44772 8.50377 7 8.05634 7 7.5044Z" fill="black" style="fill:black;fill-opacity:1;"/>
<path fill-rule="evenodd" clip-rule="evenodd" d="M8 1.5L14 2.59022V7.00473C14 11.2301 10.552 13.5426 8.48632 14.5H7.51368C5.44797 13.5426 2 11.2301 2 7.00473V2.59022L8 1.5ZM3 3.42427V7.00473C3 10.6587 6.03372 12.7295 8 13.6236C9.96628 12.7295 13 10.6587 13 7.00473V3.42427L8 2.51576L3 3.42427Z" fill="black" style="fill:black;fill-opacity:1;"/>
</svg>
