<svg width="16" height="16" viewBox="0 0 16 16" fill="none" xmlns="http://www.w3.org/2000/svg">
<path d="M8 5.50572C7.72386 5.50572 7.5 5.72943 7.5 6.0054V6.50509H8.5V6.0054C8.5 5.72943 8.27614 5.50572 8 5.50572Z" fill="black" style="fill:black;fill-opacity:1;"/>
<path d="M6.5 8.00414C6.5 7.72817 6.72386 7.50445 7 7.50445H9C9.27614 7.50445 9.5 7.72817 9.5 8.00414V9.50319H6.5V8.00414Z" fill="black" style="fill:black;fill-opacity:1;"/>
<path fill-rule="evenodd" clip-rule="evenodd" d="M14 2.59022L8 1.5L2 2.59022V7.00473C2 11.2301 5.44797 13.5426 7.51368 14.5H8.48632C10.552 13.5426 14 11.2301 14 7.00473V2.59022ZM6.5 6.0054V6.59038C5.9174 6.79617 5.5 7.35144 5.5 8.00414V10.5026H10.5V8.00414C10.5 7.35144 10.0826 6.79617 9.5 6.59038V6.0054C9.5 5.1775 8.82843 4.50635 8 4.50635C7.17157 4.50635 6.5 5.1775 6.5 6.0054Z" fill="black" style="fill:black;fill-opacity:1;"/>
</svg>
