<svg width="16" height="16" viewBox="0 0 16 16" fill="none" xmlns="http://www.w3.org/2000/svg">
<path d="M8 6.50499C7.44772 6.50499 7 6.95242 7 7.50436C7 8.0563 7.44772 8.50373 8 8.50373C8.55228 8.50373 9 8.0563 9 7.50436C9 6.95242 8.55228 6.50499 8 6.50499Z" fill="black" style="fill:black;fill-opacity:1;"/>
<path fill-rule="evenodd" clip-rule="evenodd" d="M14 2.59022L8 1.5L2 2.59022V7.00473C2 11.2301 5.44797 13.5426 7.51368 14.5H8.48632C10.552 13.5426 14 11.2301 14 7.00473V2.59022ZM6 7.50436C6 6.40048 6.89543 5.50562 8 5.50562C9.10457 5.50562 10 6.40048 10 7.50436C10 8.60823 9.10457 9.5031 8 9.5031C6.89543 9.5031 6 8.60823 6 7.50436Z" fill="black" style="fill:black;fill-opacity:1;"/>
</svg>
