<svg width="16" height="16" viewBox="0 0 16 16" fill="none" xmlns="http://www.w3.org/2000/svg">
<path fill-rule="evenodd" clip-rule="evenodd" d="M6.0001 4C6.0001 2.89543 6.89553 2 8.0001 2C9.10467 2 10.0001 2.89543 10.0001 4H12.9476L13.8737 12.3344C13.9724 13.2229 13.2769 14 12.3828 14H3.61737C2.72335 14 2.02781 13.2229 2.12654 12.3344L3.05258 4L6.0001 4ZM7.0001 4C7.0001 3.44772 7.44781 3 8.0001 3C8.55238 3 9.0001 3.44772 9.0001 4L7.0001 4ZM6.0001 5V6H7.0001V5H9.0001V6H10.0001V5H12.0526L12.8798 12.4448C12.9127 12.741 12.6808 13 12.3828 13H3.61737C3.31936 13 3.08751 12.741 3.12042 12.4448L3.94762 5H6.0001Z" fill="black" style="fill:black;fill-opacity:1;"/>
</svg>
