<svg width="16" height="16" viewBox="0 0 16 16" fill="none" xmlns="http://www.w3.org/2000/svg">
<path d="M8.49942 1.29133V2.63461L9.65681 1.96648L10.6517 2.54682L8.49944 3.78926L8.49965 7.13452L11.397 5.46151V2.98157L12.397 3.5649V4.88414L13.5336 4.22792L14 4.5V5.11447L12.8973 5.75042L14 6.38713V7.54187L11.897 6.32754L8.99942 8.00068L11.8967 9.67318L14 8.45914V9.61377L12.897 10.2504L14 10.8869V11.5L13.5324 11.7728L12.3967 11.1168L12.3968 12.4352L11.3968 13.0185L11.3967 10.5392L8.49976 8.86691L8.49998 12.2116L10.6508 13.4537L9.65602 14.034L8.49999 13.3664V14.7083L8 15L7.49999 14.7083V13.3663L6.34385 14.0339L5.34904 13.4536L7.49998 12.2116L7.49976 8.86664L4.60328 10.5392L4.60301 13.0184L3.60308 12.4351L3.60322 11.1168L2.46764 11.7728L2 11.5V10.8869L3.10307 10.2504L2 9.61363V8.45897L4.10328 9.67314L6.99942 8.00081L4.10248 6.3285L2 7.54237V6.38767L3.10246 5.75116L2 5.11466V4.5L2.46628 4.228L3.6025 4.8847L3.60258 3.56516L4.60261 2.98181L4.60247 5.46247L7.49965 7.13492L7.49944 3.78927L5.34789 2.54707L6.34273 1.96674L7.49942 2.63455V1.292L8 1L8.49942 1.29133Z" fill="black" style="fill:black;fill-opacity:1;"/>
</svg>
