<svg width="16" height="16" viewBox="0 0 16 16" fill="none" xmlns="http://www.w3.org/2000/svg">
<path d="M8.12922 7.16367C8.08709 7.15722 8.04393 7.15387 7.99999 7.15387C7.53268 7.15387 7.15384 7.53271 7.15384 8.00002C7.15384 8.46734 7.53268 8.84618 7.99999 8.84618C8.46731 8.84618 8.84615 8.46734 8.84615 8.00002C8.84615 7.95608 8.8428 7.91291 8.83634 7.87077L10.4689 6.23817L9.76183 5.53106L8.12922 7.16367Z" fill="black" style="fill:black;fill-opacity:1;"/>
<path fill-rule="evenodd" clip-rule="evenodd" d="M2 8C2 4.68629 4.68629 2 8 2C11.3137 2 14 4.68629 14 8C14 11.3137 11.3137 14 8 14C4.68629 14 2 11.3137 2 8ZM4.84032 4.1247C5.58029 3.52065 6.4965 3.12432 7.5 3.02469V3.76923H8.5V3.02469C9.50561 3.12453 10.4236 3.52232 11.1644 4.12853L10.608 4.68491L11.3151 5.39201L11.8715 4.83563C12.4777 5.57642 12.8755 6.49439 12.9753 7.5H12.2308V8.5H12.9753C12.7245 11.0267 10.5927 13 8 13C5.40733 13 3.27555 11.0267 3.02469 8.5H3.76923V7.5H3.02469C3.12474 6.49228 3.52399 5.57257 4.13235 4.83097L4.68222 5.38931L5.3947 4.68762L4.84032 4.1247Z" fill="black" style="fill:black;fill-opacity:1;"/>
</svg>
