<svg width="16" height="16" viewBox="0 0 16 16" fill="none" xmlns="http://www.w3.org/2000/svg">
<path d="M1.79293 2.50004L0.646484 1.35359L1.35359 0.646484L2.50004 1.79293V1.00004H3.50004V2.79301L2.79293 3.50004H1.00004V2.50004H1.79293Z" fill="black" style="fill:black;fill-opacity:1;"/>
<path d="M7.15381 8.00002C7.15381 7.95606 7.15716 7.91288 7.16362 7.87073L5.64645 6.35355L6.35355 5.64645L7.87078 7.16367C7.9129 7.15722 7.95604 7.15387 7.99996 7.15387C8.46728 7.15387 8.84612 7.53271 8.84612 8.00002C8.84612 8.46734 8.46728 8.84618 7.99996 8.84618C7.53264 8.84618 7.15381 8.46734 7.15381 8.00002Z" fill="black" style="fill:black;fill-opacity:1;"/>
<path fill-rule="evenodd" clip-rule="evenodd" d="M8 2C4.68629 2 2 4.68629 2 8C2 11.3137 4.68629 14 8 14C11.3137 14 14 11.3137 14 8C14 4.68629 11.3137 2 8 2ZM7.5 3.02469C6.4965 3.12432 5.58029 3.52065 4.84032 4.1247L5.3947 4.68762L4.68222 5.38931L4.13235 4.83097C3.52399 5.57257 3.12474 6.49228 3.02469 7.5H3.76923V8.5H3.02469C3.27555 11.0267 5.40733 13 8 13C10.5927 13 12.7245 11.0267 12.9753 8.5H12.2308V7.5H12.9753C12.8755 6.49439 12.4777 5.57642 11.8715 4.83563L11.3151 5.39202L10.608 4.68491L11.1644 4.12853C10.4236 3.52232 9.50561 3.12453 8.5 3.02469V3.76923H7.5V3.02469Z" fill="black" style="fill:black;fill-opacity:1;"/>
</svg>
