<svg width="16" height="16" viewBox="0 0 16 16" fill="none" xmlns="http://www.w3.org/2000/svg">
<path d="M9.31684 4.71887L10.1829 5.21887L6.68286 11.281L5.81684 10.781L9.31684 4.71887Z" fill="black" style="fill:black;fill-opacity:1;"/>
<path fill-rule="evenodd" clip-rule="evenodd" d="M11.25 9.75C11.25 8.92157 10.5784 8.25 9.75 8.25C8.92157 8.25 8.25 8.92157 8.25 9.75C8.25 10.5784 8.92157 11.25 9.75 11.25C10.5784 11.25 11.25 10.5784 11.25 9.75ZM10.25 9.75C10.25 9.47386 10.0261 9.25 9.75 9.25C9.47386 9.25 9.25 9.47386 9.25 9.75C9.25 10.0261 9.47386 10.25 9.75 10.25C10.0261 10.25 10.25 10.0261 10.25 9.75Z" fill="black" style="fill:black;fill-opacity:1;"/>
<path fill-rule="evenodd" clip-rule="evenodd" d="M6.25 4.75C7.07843 4.75 7.75 5.42157 7.75 6.25C7.75 7.07843 7.07843 7.75 6.25 7.75C5.42157 7.75 4.75 7.07843 4.75 6.25C4.75 5.42157 5.42157 4.75 6.25 4.75ZM6.25 5.75C6.52614 5.75 6.75 5.97386 6.75 6.25C6.75 6.52614 6.52614 6.75 6.25 6.75C5.97386 6.75 5.75 6.52614 5.75 6.25C5.75 5.97386 5.97386 5.75 6.25 5.75Z" fill="black" style="fill:black;fill-opacity:1;"/>
<path fill-rule="evenodd" clip-rule="evenodd" d="M7.56685 1.00012L6.58171 2.70724L4.875 1.7214L4.12491 2.15446L4.12532 4.12544L2.15434 4.12503L1.72128 4.87512L2.70712 6.58183L1 7.56697V8.4331L2.70712 9.41823L1.72128 11.1249L2.15434 11.875L4.12532 11.8746L4.12491 13.8456L4.875 14.2787L6.58171 13.2928L7.56685 14.9999H8.43297L9.41811 13.2928L11.1248 14.2787L11.8749 13.8456L11.8745 11.8746L13.8455 11.875L14.2785 11.1249L13.2927 9.41823L14.9998 8.4331V7.56697L13.2927 6.58183L14.2785 4.87512L13.8455 4.12503L11.8745 4.12544L11.8749 2.15446L11.1248 1.7214L9.41811 2.70724L8.43298 1.00012H7.56685ZM7.19783 3.6403L7.99991 2.25039L8.802 3.6403L9.48515 3.82335L10.8747 3.0207L10.8744 4.62544L11.3745 5.12554L12.9792 5.12521L12.1766 6.51479L12.3596 7.19795L13.7496 8.00003L12.3596 8.80212L12.1766 9.48527L12.9792 10.8749L11.3745 10.8745L10.8744 11.3746L10.8747 12.9794L9.48515 12.1767L8.802 12.3598L7.99991 13.7497L7.19783 12.3598L6.51467 12.1767L5.12509 12.9794L5.12542 11.3746L4.62532 10.8745L3.02057 10.8749L3.82323 9.48527L3.64018 8.80212L2.25027 8.00003L3.64018 7.19795L3.82323 6.51479L3.02057 5.12521L4.62532 5.12554L5.12542 4.62544L5.12509 3.0207L6.51467 3.82335L7.19783 3.6403Z" fill="black" style="fill:black;fill-opacity:1;"/>
</svg>
