<svg width="16" height="16" viewBox="0 0 16 16" fill="none" xmlns="http://www.w3.org/2000/svg">
<path d="M10.25 9.75C10.25 9.47386 10.0261 9.25 9.75 9.25C9.47386 9.25 9.25 9.47386 9.25 9.75C9.25 10.0261 9.47386 10.25 9.75 10.25C10.0261 10.25 10.25 10.0261 10.25 9.75Z" fill="black" style="fill:black;fill-opacity:1;"/>
<path d="M6.75 6.25C6.75 5.97386 6.52614 5.75 6.25 5.75C5.97386 5.75 5.75 5.97386 5.75 6.25C5.75 6.52614 5.97386 6.75 6.25 6.75C6.52614 6.75 6.75 6.52614 6.75 6.25Z" fill="black" style="fill:black;fill-opacity:1;"/>
<path fill-rule="evenodd" clip-rule="evenodd" d="M7.56685 1.00012L6.58171 2.70724L4.875 1.7214L4.12491 2.15446L4.12532 4.12544L2.15434 4.12503L1.72128 4.87512L2.70712 6.58183L1 7.56697V8.4331L2.70712 9.41823L1.72128 11.1249L2.15434 11.875L4.12532 11.8746L4.12491 13.8456L4.875 14.2787L6.58171 13.2928L7.56685 14.9999H8.43297L9.41811 13.2928L11.1248 14.2787L11.8749 13.8456L11.8745 11.8746L13.8455 11.875L14.2785 11.1249L13.2927 9.41823L14.9998 8.4331V7.56697L13.2927 6.58183L14.2785 4.87512L13.8455 4.12503L11.8745 4.12544L11.8749 2.15446L11.1248 1.7214L9.41811 2.70724L8.43298 1.00012H7.56685ZM10.1829 5.21887L9.31684 4.71887L5.81684 10.781L6.68286 11.281L10.1829 5.21887ZM11.25 9.75C11.25 8.92157 10.5784 8.25 9.75 8.25C8.92157 8.25 8.25 8.92157 8.25 9.75C8.25 10.5784 8.92157 11.25 9.75 11.25C10.5784 11.25 11.25 10.5784 11.25 9.75ZM7.75 6.25C7.75 5.42157 7.07843 4.75 6.25 4.75C5.42157 4.75 4.75 5.42157 4.75 6.25C4.75 7.07843 5.42157 7.75 6.25 7.75C7.07843 7.75 7.75 7.07843 7.75 6.25Z" fill="black" style="fill:black;fill-opacity:1;"/>
</svg>
