<svg width="16" height="16" viewBox="0 0 16 16" fill="none" xmlns="http://www.w3.org/2000/svg">
<path fill-rule="evenodd" clip-rule="evenodd" d="M14.7142 3.45904L9.68939 8.48388L7.13128 9.46679L6.4903 8.80802L7.5283 6.3127L12.5481 1.29291L14.7142 3.45904ZM13.3 3.45904L12.5481 2.70712L8.9571 6.29811L9.70903 7.05004L13.3 3.45904ZM8.94385 7.69907L8.30176 7.05699L7.86171 8.11486L8.94385 7.69907Z" fill="black" style="fill:black;fill-opacity:1;"/>
<path d="M3.5 3.00003C3.22386 3.00003 3 3.22389 3 3.50003V12.5C3 12.7762 3.22386 13 3.5 13H12.5C12.7761 13 13 12.7762 13 12.5V7.00003H14V12.5C14 13.3285 13.3284 14 12.5 14H3.5C2.67157 14 2 13.3285 2 12.5V3.50003C2 2.6716 2.67157 2.00003 3.5 2.00003H9V3.00003H3.5Z" fill="black" style="fill:black;fill-opacity:1;"/>
</svg>
