<svg width="16" height="16" viewBox="0 0 16 16" fill="none" xmlns="http://www.w3.org/2000/svg">
<path fill-rule="evenodd" clip-rule="evenodd" d="M2 3.49649C2 2.67 2.67158 2 3.5 2L12.5 2.00003C13.3284 2.00003 14 2.67003 14 3.49652V12.5035C14 13.33 13.3284 14 12.5 14L3.5 14C2.67157 14 2 13.33 2 12.5035V3.49649ZM3.5 2.99766C3.22386 2.99766 3 3.22099 3 3.49649V12.5035C3 12.779 3.22386 13.0023 3.5 13.0023L12.5 13.0023C12.7761 13.0023 13 12.779 13 12.5035V3.49652C13 3.22102 12.7761 2.99769 12.5 2.99769L3.5 2.99766Z" fill="black" style="fill:black;fill-opacity:1;"/>
</svg>
