<svg width="16" height="16" viewBox="0 0 16 16" fill="none" xmlns="http://www.w3.org/2000/svg">
<path d="M8.5 5.10742C9.51548 5.34532 10.25 6.29279 10.25 7.3877H9.25C9.25 6.62575 8.66765 6.0498 8 6.0498C7.43621 6.0498 6.93288 6.46038 6.79004 7.04688L10.25 8.25781V8.6123C10.25 9.7072 9.51548 10.6547 8.5 10.8926V11.5H7.5V10.8926C6.48452 10.6547 5.75 9.7072 5.75 8.6123H6.75C6.75 9.37425 7.33235 9.9502 8 9.9502C8.56379 9.9502 9.06712 9.53962 9.20996 8.95312L5.75 7.74219V7.3877C5.75 6.29279 6.48452 5.34532 7.5 5.10742V4.5H8.5V5.10742Z" fill="black" style="fill:black;fill-opacity:1;"/>
<path fill-rule="evenodd" clip-rule="evenodd" d="M11.5 2C12.8807 2 14 3.11929 14 4.5V11.5C14 12.8807 12.8807 14 11.5 14H4.5C3.11929 14 2 12.8807 2 11.5V4.5C2 3.11929 3.11929 2 4.5 2H11.5ZM4.5 3C3.67157 3 3 3.67157 3 4.5V11.5C3 12.3284 3.67157 13 4.5 13H11.5C12.3284 13 13 12.3284 13 11.5V4.5C13 3.67157 12.3284 3 11.5 3H4.5Z" fill="black" style="fill:black;fill-opacity:1;"/>
</svg>
