<svg width="16" height="16" viewBox="0 0 16 16" fill="none" xmlns="http://www.w3.org/2000/svg">
<path fill-rule="evenodd" clip-rule="evenodd" d="M2 4.5C2 3.11929 3.11929 2 4.5 2H11.5C12.8807 2 14 3.11929 14 4.5V11.5C14 12.8807 12.8807 14 11.5 14H4.5C3.11929 14 2 12.8807 2 11.5V4.5ZM10.25 7.38755C10.25 6.29265 9.51548 5.34537 8.5 5.10747V4.5H7.5V5.10747C6.48452 5.34537 5.75 6.29265 5.75 7.38755V7.74229L9.20959 8.95315C9.06675 9.53964 8.56379 9.95005 8 9.95005C7.33235 9.95005 6.75 9.3745 6.75 8.61255H5.75C5.75 9.70745 6.48452 10.6547 7.5 10.8926V11.5H8.5V10.8926C9.51548 10.6547 10.25 9.70745 10.25 8.61255V8.25781L6.79041 7.04695C6.93325 6.46046 7.43621 6.05005 8 6.05005C8.66765 6.05005 9.25 6.6256 9.25 7.38755H10.25Z" fill="black" style="fill:black;fill-opacity:1;"/>
</svg>
