<svg width="16" height="16" viewBox="0 0 16 16" fill="none" xmlns="http://www.w3.org/2000/svg">
<path d="M11 2H5V1H11V2Z" fill="black" style="fill:black;fill-opacity:1;"/>
<path d="M8.5 8.13378C8.7989 8.30669 9 8.62986 9 9C9 9.55228 8.55228 10 8 10C7.44772 10 7 9.55228 7 9C7 8.62986 7.2011 8.30669 7.5 8.13378V5H8.5V8.13378Z" fill="black" style="fill:black;fill-opacity:1;"/>
<path fill-rule="evenodd" clip-rule="evenodd" d="M2 9C2 5.68629 4.68629 3 8 3C9.73136 3 11.2914 3.73333 12.3866 4.90632L13.6464 3.64645L14.3536 4.35355L13.0099 5.69718C13.6357 6.64449 14 7.7797 14 9C14 12.3137 11.3137 15 8 15C4.68629 15 2 12.3137 2 9ZM8 4C5.23858 4 3 6.23858 3 9C3 11.7614 5.23858 14 8 14C10.7614 14 13 11.7614 13 9C13 6.23858 10.7614 4 8 4Z" fill="black" style="fill:black;fill-opacity:1;"/>
</svg>
