<svg width="16" height="16" viewBox="0 0 16 16" fill="none" xmlns="http://www.w3.org/2000/svg">
<path fill-rule="evenodd" clip-rule="evenodd" d="M10.5001 4C9.67165 4 9.00008 4.67157 9.00008 5.5C9.00008 6.32843 9.67165 7 10.5001 7C11.3285 7 12.0001 6.32843 12.0001 5.5C12.0001 4.67157 11.3285 4 10.5001 4ZM10.0001 5.5C10.0001 5.22386 10.2239 5 10.5001 5C10.7762 5 11.0001 5.22386 11.0001 5.5C11.0001 5.77614 10.7762 6 10.5001 6C10.2239 6 10.0001 5.77614 10.0001 5.5Z" fill="black" style="fill:black;fill-opacity:1;"/>
<path fill-rule="evenodd" clip-rule="evenodd" d="M8.79297 2H13.293L14.0001 2.70711V7.20711L7.00008 14.2071L1.79297 9L8.79297 2ZM9.20718 3L3.20718 9L7.00008 12.7929L13.0001 6.79289V3H9.20718Z" fill="black" style="fill:black;fill-opacity:1;"/>
</svg>
