<svg width="16" height="16" viewBox="0 0 16 16" fill="none" xmlns="http://www.w3.org/2000/svg">
<path fill-rule="evenodd" clip-rule="evenodd" d="M8.5 2.02054C11.4149 2.26101 13.739 4.58512 13.9795 7.50003H15V8.50003H13.9795C13.739 11.4149 11.4149 13.739 8.5 13.9795V15H7.5V13.9795C4.58511 13.739 2.26103 11.4149 2.02054 8.50003H1V7.50003H2.02053C2.26099 4.58512 4.58509 2.26101 7.5 2.02054V1H8.5V2.02054ZM3.02469 8.50003H4V7.50003H3.02468C3.27553 4.97335 5.40731 3 8 3C10.5927 3 12.7245 4.97335 12.9753 7.50003H12V8.50003H12.9753C12.7244 11.0267 10.5927 13 8 13C5.40734 13 3.27557 11.0267 3.02469 8.50003Z" fill="black" style="fill:black;fill-opacity:1;"/>
<path d="M7.40384 4.79626V3.9978H8.61664V4.79619C9.76437 5.06947 10.6179 6.10149 10.6179 7.33287H9.40511C9.40511 6.56258 8.78067 5.93815 8.01039 5.93815C7.38501 5.93815 6.85576 6.34975 6.67877 6.91683L10.6179 8.22988V8.66695C10.6179 9.89833 9.76437 10.9303 8.61664 11.2036V12.0023H7.40384V11.2036C6.25627 10.9302 5.40286 9.89822 5.40286 8.66695H6.61567C6.61567 9.43724 7.2401 10.0617 8.01039 10.0617C8.63577 10.0617 9.16502 9.65007 9.34201 9.08299L5.40286 7.76994V7.33287C5.40286 6.1016 6.25627 5.06965 7.40384 4.79626Z" fill="black" style="fill:black;fill-opacity:1;"/>
</svg>
