<svg width="16" height="16" viewBox="0 0 16 16" fill="none" xmlns="http://www.w3.org/2000/svg">
<path d="M8.54076 11L6.28176 4.70001H5.23776L2.97876 11H4.11276L4.48176 9.92001H7.03776L7.40676 11H8.54076ZM5.75076 6.25701H5.76876L6.69576 8.93001H4.82376L5.75076 6.25701Z" fill="black" style="fill:black;fill-opacity:1;"/>
<path d="M10.2621 11.135C10.8111 11.135 11.2701 10.937 11.5581 10.586H11.5761V11H12.5571V7.82301C12.5571 6.75201 11.8371 6.09501 10.6851 6.09501C9.62308 6.09501 8.81308 6.71601 8.66008 7.65201L9.67708 7.86801C9.77608 7.33701 10.1451 7.02201 10.6851 7.02201C11.1621 7.02201 11.4501 7.22001 11.4501 7.56201C11.4501 7.85901 11.1981 8.01201 10.3971 8.21001C9.17308 8.49801 8.69608 8.93001 8.69608 9.73101C8.69608 10.586 9.31708 11.135 10.2621 11.135ZM10.4421 10.199C9.98308 10.199 9.74008 10.019 9.74008 9.65901C9.74008 9.36201 9.98308 9.18201 10.6491 9.01101C11.1531 8.86701 11.3871 8.74101 11.4771 8.57001H11.4951V9.38901C11.4951 9.86601 11.0631 10.199 10.4421 10.199Z" fill="black" style="fill:black;fill-opacity:1;"/>
</svg>
