<svg width="16" height="16" viewBox="0 0 16 16" fill="none" xmlns="http://www.w3.org/2000/svg">
<path d="M6 4.50116C6 4.23696 6.01942 3.97716 6.05566 3.72284C4.81793 4.5247 4 5.91778 4 7.50116C4 9.98644 6.01472 12.0012 8.5 12.0012C10.083 12.0012 11.4745 11.1828 12.2764 9.9455C12.0228 9.98172 11.7636 10.0012 11.5 10.0012C8.46243 10.0012 6 7.53873 6 4.50116ZM7 4.50116C7 6.98644 9.01472 9.00116 11.5 9.00116C12.0376 9.00116 12.5528 8.90577 13.0312 8.7326L13.6709 9.37225C12.9054 11.4872 10.8814 13.0012 8.5 13.0012C5.46243 13.0012 3 10.5387 3 7.50116C3 5.12021 4.51342 3.09601 6.62793 2.33026L7.26758 2.96991C7.09466 3.44777 7 3.96311 7 4.50116Z" fill="black" style="fill:black;fill-opacity:1;"/>
</svg>
