<svg width="16" height="16" viewBox="0 0 16 16" fill="none" xmlns="http://www.w3.org/2000/svg">
<path d="M8.5 15H7.5V13.5H8.5V15Z" fill="black" style="fill:black;fill-opacity:1;"/>
<path d="M4.46484 12.2432L3.40332 13.3037L2.69629 12.5967L3.75781 11.5361L4.46484 12.2432Z" fill="black" style="fill:black;fill-opacity:1;"/>
<path d="M13.3037 12.5967L12.5957 13.3037L11.5352 12.2422L12.2422 11.5352L13.3037 12.5967Z" fill="black" style="fill:black;fill-opacity:1;"/>
<path fill-rule="evenodd" clip-rule="evenodd" d="M8 3.5C10.4853 3.5 12.5 5.51472 12.5 8C12.5 10.4853 10.4853 12.5 8 12.5C5.51472 12.5 3.5 10.4853 3.5 8C3.5 5.51472 5.51472 3.5 8 3.5ZM8 4.5C6.067 4.5 4.5 6.067 4.5 8C4.5 9.933 6.067 11.5 8 11.5C9.933 11.5 11.5 9.933 11.5 8C11.5 6.067 9.933 4.5 8 4.5Z" fill="black" style="fill:black;fill-opacity:1;"/>
<path d="M2.5 8.5H1V7.5H2.5V8.5Z" fill="black" style="fill:black;fill-opacity:1;"/>
<path d="M15 8.5H13.5V7.5H15V8.5Z" fill="black" style="fill:black;fill-opacity:1;"/>
<path d="M4.46484 3.75781L3.75684 4.46484L2.69629 3.4043L3.40332 2.69629L4.46484 3.75781Z" fill="black" style="fill:black;fill-opacity:1;"/>
<path d="M13.3037 3.4043L12.2422 4.46484L11.5352 3.75781L12.5967 2.69727L13.3037 3.4043Z" fill="black" style="fill:black;fill-opacity:1;"/>
<path d="M8.5 2.5H7.5V1H8.5V2.5Z" fill="black" style="fill:black;fill-opacity:1;"/>
</svg>
