<svg width="16" height="16" viewBox="0 0 16 16" fill="none" xmlns="http://www.w3.org/2000/svg">
<path fill-rule="evenodd" clip-rule="evenodd" d="M4.29288 10H2V3L10.4296 3.00001C11.2655 3.00001 12.0461 3.41776 12.5098 4.11326L14.7481 7.47073C14.9123 7.71713 15 8.00665 15 8.30278V8.50001C15 9.32843 14.3284 10 13.5 10H9.77873C9.72914 10 9.68148 10.0192 9.64573 10.0536C9.58809 10.109 9.57089 10.1944 9.60259 10.2679L10.7442 12.9128C10.9736 13.4444 10.8228 14.0637 10.3747 14.4304C9.85908 14.8522 9.10766 14.8148 8.63657 14.3437L4.29288 10ZM4 9V4H3V9H4Z" fill="black" style="fill:black;fill-opacity:1;"/>
</svg>
