<svg width="16" height="16" viewBox="0 0 16 16" fill="none" xmlns="http://www.w3.org/2000/svg">
<path fill-rule="evenodd" clip-rule="evenodd" d="M10.3747 1.56963C9.85908 1.14775 9.10767 1.18522 8.63657 1.65632L4.29289 6H2V13L10.4296 13C11.2655 13 12.0461 12.5822 12.5098 11.8867L14.7481 8.52926C14.9124 8.28286 15 7.99335 15 7.69721V7.49999C15 6.67156 14.3284 5.99999 13.5 5.99999H9.77874C9.72915 5.99999 9.68148 5.98078 9.64574 5.94641C9.58809 5.89095 9.5709 5.80556 9.6026 5.73211L10.7442 3.08715C10.9736 2.55555 10.8228 1.93627 10.3747 1.56963ZM3 12V7H4V12H3Z" fill="black" style="fill:black;fill-opacity:1;"/>
</svg>
