<svg width="16" height="16" viewBox="0 0 16 16" fill="none" xmlns="http://www.w3.org/2000/svg">
<path fill-rule="evenodd" clip-rule="evenodd" d="M4.29288 10H2V3L10.4296 3.00001C11.2655 3.00001 12.0461 3.41776 12.5098 4.11326L14.7481 7.47073C14.9123 7.71713 15 8.00665 15 8.30278V8.50001C15 9.32843 14.3284 10 13.5 10H9.77873C9.72914 10 9.68148 10.0192 9.64573 10.0536C9.58809 10.109 9.57089 10.1944 9.60259 10.2679L10.7442 12.9128C10.9736 13.4444 10.8228 14.0637 10.3747 14.4304C9.85908 14.8522 9.10766 14.8148 8.63657 14.3437L4.29288 10ZM4 9V4H3V9H4ZM5 9.2929L9.34367 13.6366C9.45149 13.7444 9.62346 13.753 9.74146 13.6564C9.84402 13.5725 9.87852 13.4308 9.82602 13.3091L8.68445 10.6641C8.48754 10.2079 8.59436 9.67737 8.9525 9.33288C9.17453 9.11931 9.47065 9.00001 9.77873 9.00001H13.5C13.7761 9.00001 14 8.77615 14 8.50001V8.30278C14 8.20407 13.9708 8.10757 13.916 8.02543L11.6777 4.66796C11.3995 4.25066 10.9312 4.00001 10.4296 4.00001H5V9.2929Z" fill="black" style="fill:black;fill-opacity:1;"/>
</svg>
