<svg width="16" height="16" viewBox="0 0 16 16" fill="none" xmlns="http://www.w3.org/2000/svg">
<path fill-rule="evenodd" clip-rule="evenodd" d="M10.3747 1.56963C9.85908 1.14775 9.10767 1.18522 8.63657 1.65632L4.29289 6H2V13L10.4296 13C11.2655 13 12.0461 12.5822 12.5098 11.8867L14.7481 8.52926C14.9124 8.28286 15 7.99335 15 7.69721V7.49999C15 6.67156 14.3284 5.99999 13.5 5.99999H9.77874C9.72915 5.99999 9.68148 5.98078 9.64574 5.94641C9.58809 5.89095 9.5709 5.80556 9.6026 5.73211L10.7442 3.08715C10.9736 2.55555 10.8228 1.93627 10.3747 1.56963ZM9.34368 2.36342C9.45149 2.25561 9.62346 2.24703 9.74147 2.34358C9.84403 2.42749 9.87853 2.56922 9.82602 2.69088L8.68446 5.33585C8.48755 5.79209 8.59437 6.32263 8.9525 6.66711C9.17454 6.88069 9.47066 6.99999 9.77874 6.99999H13.5C13.7761 6.99999 14 7.22385 14 7.49999V7.69721C14 7.79592 13.9708 7.89243 13.916 7.97456L11.6777 11.332C11.3995 11.7493 10.9312 12 10.4296 12H5.00001V6.70709L9.34368 2.36342ZM3 12V7H4V12H3Z" fill="black" style="fill:black;fill-opacity:1;"/>
</svg>
