<svg width="16" height="16" viewBox="0 0 16 16" fill="none" xmlns="http://www.w3.org/2000/svg">
<path d="M5 3.81499V2H4V3.81499C4 4.2514 3.79126 4.69175 3.44889 5.08992C2.54613 6.13981 2 7.50675 2 8.99998C2 10.4501 2.51504 11.7812 3.37166 12.8184L3.52164 13H3.5V14H4.5V13H5.5V14H6.5V13H7.5V14H8.5V13H9.5V14H10.5V13H11.5V14H12.5V13H12.4784L12.6283 12.8184C13.485 11.7812 14 10.4501 14 8.99998C14 7.50675 13.4539 6.13981 12.5511 5.08992C12.2087 4.69176 12 4.2514 12 3.81499V2H11V3.81499C11 4.57189 11.3572 5.23525 11.7929 5.7419C12.5456 6.61726 13 7.75492 13 8.99998C13 10.1261 12.6283 11.1643 12.0004 12H3.99961C3.37174 11.1643 3 10.1261 3 8.99998C3 7.75492 3.45443 6.61726 4.20713 5.7419C4.64278 5.23525 5 4.57189 5 3.81499Z" fill="black" style="fill:black;fill-opacity:1;"/>
<path d="M7.5 3V9H8.5V3H7.5Z" fill="black" style="fill:black;fill-opacity:1;"/>
<path d="M7.5 11V10H8.5V11H7.5Z" fill="black" style="fill:black;fill-opacity:1;"/>
</svg>
