<svg width="16" height="16" viewBox="0 0 16 16" fill="none" xmlns="http://www.w3.org/2000/svg">
<path d="M5 10C6.10457 10 7 9.10457 7 8C7 6.89543 6.10457 6 5 6C3.89543 6 3 6.89543 3 8C3 9.10457 3.89543 10 5 10Z" fill="black" style="fill:black;fill-opacity:1;"/>
<path fill-rule="evenodd" clip-rule="evenodd" d="M5 4C2.79086 4 1 5.79086 1 8C1 10.2091 2.79086 12 5 12H11C13.2091 12 15 10.2091 15 8C15 5.79086 13.2091 4 11 4H5ZM2 8C2 6.34315 3.34315 5 5 5H11C12.6569 5 14 6.34315 14 8C14 9.65685 12.6569 11 11 11H5C3.34315 11 2 9.65685 2 8Z" fill="black" style="fill:black;fill-opacity:1;"/>
</svg>
