<svg width="16" height="16" viewBox="0 0 16 16" fill="none" xmlns="http://www.w3.org/2000/svg">
<path d="M8 6C8.55228 6 9 5.55228 9 5C9 4.44772 8.55228 4 8 4C7.44772 4 7 4.44772 7 5C7 5.55228 7.44772 6 8 6Z" fill="black" style="fill:black;fill-opacity:1;"/>
<path d="M9 11C9 11.5523 8.55228 12 8 12C7.44772 12 7 11.5523 7 11C7 10.4477 7.44772 10 8 10C8.55228 10 9 10.4477 9 11Z" fill="black" style="fill:black;fill-opacity:1;"/>
<path d="M8 9C8.55228 9 9 8.55228 9 8C9 7.44772 8.55228 7 8 7C7.44772 7 7 7.44772 7 8C7 8.55228 7.44772 9 8 9Z" fill="black" style="fill:black;fill-opacity:1;"/>
<path fill-rule="evenodd" clip-rule="evenodd" d="M6.5 2C5.67157 2 5 2.67157 5 3.5V12.5C5 13.3284 5.67157 14 6.5 14H9.5C10.3284 14 11 13.3284 11 12.5V3.5C11 2.67157 10.3284 2 9.5 2H6.5ZM6 3.5C6 3.22386 6.22386 3 6.5 3H9.5C9.77614 3 10 3.22386 10 3.5V12.5C10 12.7761 9.77614 13 9.5 13H6.5C6.22386 13 6 12.7761 6 12.5V3.5Z" fill="black" style="fill:black;fill-opacity:1;"/>
</svg>
