<svg width="16" height="16" viewBox="0 0 16 16" fill="none" xmlns="http://www.w3.org/2000/svg">
<path fill-rule="evenodd" clip-rule="evenodd" d="M7.5 3C7.22386 3 7 3.22386 7 3.5V4H9V3.5C9 3.22386 8.77614 3 8.5 3H7.5ZM6 3.5C6 2.67157 6.67157 2 7.5 2H8.5C9.32843 2 10 2.67157 10 3.5V4H13V5H12V12.5C12 13.3284 11.3284 14 10.5 14H5.5C4.67157 14 4 13.3284 4 12.5V5H3V4H6V3.5ZM5 5V12.5C5 12.7761 5.22386 13 5.5 13H10.5C10.7761 13 11 12.7761 11 12.5V5H5ZM6 12V6H7V12H6ZM9 12V6H10V12H9Z" fill="black" style="fill:black;fill-opacity:1;"/>
</svg>
