<svg width="16" height="16" viewBox="0 0 16 16" fill="none" xmlns="http://www.w3.org/2000/svg">
<path d="M10 4H12V3H10V4Z" fill="black" style="fill:black;fill-opacity:1;"/>
<path d="M10.5 10H11.5V9H10.5V10Z" fill="black" style="fill:black;fill-opacity:1;"/>
<path d="M6 7H4V6H6V7Z" fill="black" style="fill:black;fill-opacity:1;"/>
<path d="M5.5 13H4.5V12H5.5V13Z" fill="black" style="fill:black;fill-opacity:1;"/>
<path fill-rule="evenodd" clip-rule="evenodd" d="M8.5 1C7.67157 1 7 1.67157 7 2.5V4H2.5C1.67157 4 1 4.67157 1 5.5V13.5C1 14.3284 1.67157 15 2.5 15H7.5C8.32843 15 9 14.3284 9 13.5V12H13.5C14.3284 12 15 11.3284 15 10.5V2.5C15 1.67157 14.3284 1 13.5 1H8.5ZM9 11H13.5C13.7761 11 14 10.7761 14 10.5V2.5C14 2.22386 13.7761 2 13.5 2H8.5C8.22386 2 8 2.22386 8 2.5V4.08535C8.5826 4.29127 9 4.84689 9 5.5V11ZM2 5.5C2 5.22386 2.22386 5 2.5 5H7.5C7.77614 5 8 5.22386 8 5.5V13.5C8 13.7761 7.77614 14 7.5 14H2.5C2.22386 14 2 13.7761 2 13.5V5.5Z" fill="black" style="fill:black;fill-opacity:1;"/>
</svg>
