<svg width="16" height="16" viewBox="0 0 16 16" fill="none" xmlns="http://www.w3.org/2000/svg">
<path fill-rule="evenodd" clip-rule="evenodd" d="M2.5 3H15V4H2.5C2.22386 4 2 4.22386 2 4.5V12H4C4 10.8954 4.89543 10 6 10C7.10457 10 8 10.8954 8 12H9C9 10.8954 9.89543 10 11 10C12.1046 10 13 10.8954 13 12H15V13H12.7324C12.3866 13.5978 11.7403 14 11 14C10.2597 14 9.61337 13.5978 9.26756 13H7.73244C7.38663 13.5978 6.74028 14 6 14C5.25972 14 4.61337 13.5978 4.26756 13H1V4.5C1 3.67157 1.67157 3 2.5 3ZM6 11C5.44772 11 5 11.4477 5 12C5 12.5523 5.44772 13 6 13C6.55228 13 7 12.5523 7 12C7 11.4477 6.55228 11 6 11ZM10 12C10 11.4477 10.4477 11 11 11C11.5523 11 12 11.4477 12 12C12 12.5523 11.5523 13 11 13C10.4477 13 10 12.5523 10 12Z" fill="black" style="fill:black;fill-opacity:1;"/>
</svg>
