<svg width="16" height="16" viewBox="0 0 16 16" fill="none" xmlns="http://www.w3.org/2000/svg">
<path fill-rule="evenodd" clip-rule="evenodd" d="M3 6.5C3 5.11929 4.11929 4 5.5 4C6.88071 4 8 5.11929 8 6.5C8 7.00954 7.84757 7.48347 7.58581 7.87868L8.85355 9.14642L8.14645 9.85353L6.87871 8.58579C6.48349 8.84756 6.00955 9 5.5 9C4.11929 9 3 7.88071 3 6.5ZM5.5 5C4.67157 5 4 5.67157 4 6.5C4 7.32843 4.67157 8 5.5 8C6.32843 8 7 7.32843 7 6.5C7 5.67157 6.32843 5 5.5 5Z" fill="black" style="fill:black;fill-opacity:1;"/>
<path fill-rule="evenodd" clip-rule="evenodd" d="M1 3.5C1 2.67157 1.67157 2 2.5 2H9.5C10.3284 2 11 2.67157 11 3.5V6H13.7403L16 8.82461V13H12.7324C12.3866 13.5978 11.7403 14 11 14C10.2597 14 9.61337 13.5978 9.26756 13H6.73244C6.38663 13.5978 5.74028 14 5 14C4.25972 14 3.61337 13.5978 3.26756 13H1V3.5ZM9 12C9 10.8954 9.89543 10 11 10C12.1046 10 13 10.8954 13 12H15V9.17539L13.2597 7H11V9H10V3.5C10 3.22386 9.77614 3 9.5 3H2.5C2.22386 3 2 3.22386 2 3.5V12H3C3 10.8954 3.89543 10 5 10C6.10457 10 7 10.8954 7 12H9ZM5 11C4.44772 11 4 11.4477 4 12C4 12.5523 4.44772 13 5 13C5.55228 13 6 12.5523 6 12C6 11.4477 5.55228 11 5 11ZM10 12C10 11.4477 10.4477 11 11 11C11.5523 11 12 11.4477 12 12C12 12.5523 11.5523 13 11 13C10.4477 13 10 12.5523 10 12Z" fill="black" style="fill:black;fill-opacity:1;"/>
</svg>
