<svg width="16" height="16" viewBox="0 0 16 16" fill="none" xmlns="http://www.w3.org/2000/svg">
<path d="M7.46243 6.00091H8.56717V8.24134L9.89454 6H11.0027V9.61424H10.0782V7.32395L8.73335 9.61424H7.64614V7.33078L6.29441 9.61515H5.00323V8.78335H5.81568L7.46243 6.00091Z" fill="black" style="fill:black;fill-opacity:1;"/>
<path fill-rule="evenodd" clip-rule="evenodd" d="M4.5 2C3.11929 2 2 3.11929 2 4.5V5H1V6H2V10H1V11H2V11.5C2 12.8807 3.11929 14 4.5 14H11.5C12.8807 14 14 12.8807 14 11.5V4.5C14 3.11929 12.8807 2 11.5 2H4.5ZM3 4.5C3 3.67157 3.67157 3 4.5 3H11.5C12.3284 3 13 3.67157 13 4.5V11.5C13 12.3284 12.3284 13 11.5 13H4.5C3.67157 13 3 12.3284 3 11.5V4.5Z" fill="black" style="fill:black;fill-opacity:1;"/>
</svg>
