<svg width="16" height="16" viewBox="0 0 16 16" fill="none" xmlns="http://www.w3.org/2000/svg">
<path fill-rule="evenodd" clip-rule="evenodd" d="M1 4.5C1 3.67157 1.67157 3 2.5 3H8.5C9.32843 3 10 3.67157 10 4.5V6H12.7403L15 8.82461V13H12.7324C12.3866 13.5978 11.7403 14 11 14C10.2597 14 9.61337 13.5978 9.26756 13H6.73244C6.38663 13.5978 5.74028 14 5 14C4.25972 14 3.61337 13.5978 3.26756 13H1V4.5ZM9 12C9 10.8954 9.89543 10 11 10C12.1046 10 13 10.8954 13 12H14V9.17539L12.2597 7H10V9H9V4.5C9 4.22386 8.77614 4 8.5 4H2.5C2.22386 4 2 4.22386 2 4.5V12H3C3 10.8954 3.89543 10 5 10C6.10457 10 7 10.8954 7 12H9ZM5 11C4.44772 11 4 11.4477 4 12C4 12.5523 4.44772 13 5 13C5.55228 13 6 12.5523 6 12C6 11.4477 5.55228 11 5 11ZM10 12C10 11.4477 10.4477 11 11 11C11.5523 11 12 11.4477 12 12C12 12.5523 11.5523 13 11 13C10.4477 13 10 12.5523 10 12Z" fill="black" style="fill:black;fill-opacity:1;"/>
</svg>
