<svg width="16" height="16" viewBox="0 0 16 16" fill="none" xmlns="http://www.w3.org/2000/svg">
<path fill-rule="evenodd" clip-rule="evenodd" d="M9 4.61802C9 3.50295 7.82653 2.77771 6.82918 3.27638L1 6.19097V9.80901L6.82918 12.7236C7.82653 13.2223 9 12.497 9 11.382V4.61802ZM7.27639 4.17081C7.60884 4.00459 8 4.24633 8 4.61802V11.382C8 11.7536 7.60884 11.9954 7.27639 11.8292L2 9.19097V6.80901L7.27639 4.17081Z" fill="black" style="fill:black;fill-opacity:1;"/>
<path d="M11.2841 11.2841C12.3213 10.5614 13 9.35997 13 7.99999C13 6.64002 12.3213 5.43857 11.2841 4.71586L10.5619 5.43813C11.4243 5.96507 12 6.9153 12 7.99999C12 9.08468 11.4243 10.0349 10.5619 10.5619L11.2841 11.2841Z" fill="black" style="fill:black;fill-opacity:1;"/>
<path d="M14 8C14 6.36427 13.2145 4.912 12.0002 3.99979L12.7133 3.28674C14.106 4.38549 15 6.08834 15 8C15 9.91165 14.106 11.6145 12.7133 12.7132L12.0002 12.0002C13.2145 11.088 14 9.63572 14 8Z" fill="black" style="fill:black;fill-opacity:1;"/>
</svg>
