<svg width="16" height="16" viewBox="0 0 16 16" fill="none" xmlns="http://www.w3.org/2000/svg">
<path fill-rule="evenodd" clip-rule="evenodd" d="M3.98929 11.3037L1.14645 14.1465L1.85356 14.8536L14.8536 1.85359L14.1465 1.14648L9 6.29294V4.61802C9 3.50295 7.82653 2.77771 6.82918 3.27638L1 6.19097V9.80901L3.98929 11.3037ZM4.73464 10.5583L2 9.19097V6.80901L7.27639 4.17081C7.60884 4.00459 8 4.24633 8 4.61802V7.29294L4.73464 10.5583Z" fill="black" style="fill:black;fill-opacity:1;"/>
<path d="M7.27639 11.8292L6.62023 11.5011L5.87488 12.2464L6.82918 12.7236C7.82653 13.2223 9 12.497 9 11.382V9.12132L8 10.1213V11.382C8 11.7536 7.60884 11.9954 7.27639 11.8292Z" fill="black" style="fill:black;fill-opacity:1;"/>
<path d="M11.6069 6.51439C11.8571 6.95238 12 7.4595 12 7.99999C12 9.08468 11.4243 10.0349 10.5619 10.5619L11.2841 11.2841C12.3213 10.5614 13 9.35997 13 7.99999C13 7.18213 12.7545 6.4216 12.3333 5.78804L11.6069 6.51439Z" fill="black" style="fill:black;fill-opacity:1;"/>
<path d="M14 8C14 6.90544 13.6483 5.89302 13.0517 5.0696L13.7663 4.35501C14.5402 5.36539 15 6.62899 15 8C15 9.91165 14.106 11.6145 12.7133 12.7132L12.0002 12.0002C13.2145 11.088 14 9.63572 14 8Z" fill="black" style="fill:black;fill-opacity:1;"/>
</svg>
