<svg width="16" height="16" viewBox="0 0 16 16" fill="none" xmlns="http://www.w3.org/2000/svg">
<path fill-rule="evenodd" clip-rule="evenodd" d="M9.5 3V13L9 13.5H7.75L7.3125 13.2432L6.19336 11.2295L3.89355 11.0654C3.10875 11.0094 2.50023 10.3561 2.5 9.56934V6.43066C2.50023 5.64391 3.10875 4.99063 3.89355 4.93457L6.19336 4.76953L7.3125 2.75684L7.75 2.5H9L9.5 3Z" fill="black" style="fill:black;fill-opacity:1;"/>
<path d="M12.8896 4.18164C14.9982 6.2902 14.9981 9.70978 12.8896 11.8184L12.1816 11.1113C13.8997 9.39328 13.8997 6.6077 12.1816 4.88965L12.8896 4.18164Z" fill="black" style="fill:black;fill-opacity:1;"/>
<path d="M11.4746 5.52539C12.8414 6.89222 12.8414 9.10777 11.4746 10.4746L10.7676 9.76758C11.7439 8.79127 11.7439 7.20873 10.7676 6.23242L11.4746 5.52539Z" fill="black" style="fill:black;fill-opacity:1;"/>
</svg>
