<svg width="16" height="16" viewBox="0 0 16 16" fill="none" xmlns="http://www.w3.org/2000/svg">
<path d="M3.98926 11.3036L1.14645 14.1464L1.85355 14.8535L14.8536 1.85353L14.1464 1.14642L9 6.29287V4.618C9 3.50293 7.82653 2.77768 6.82918 3.27636L1 6.19095V9.80898L3.98926 11.3036Z" fill="black" style="fill:black;fill-opacity:1;"/>
<path d="M6.82918 12.7236L5.87488 12.2464L9 9.1213V11.3819C9 12.497 7.82653 13.2222 6.82918 12.7236Z" fill="black" style="fill:black;fill-opacity:1;"/>
<path d="M11.6069 6.51437C11.8571 6.95236 12 7.45947 12 7.99997C12 9.08466 11.4243 10.0349 10.5619 10.5618L11.2841 11.2841C12.3213 10.5614 13 9.35994 13 7.99997C13 7.18211 12.7545 6.42158 12.3333 5.78802L11.6069 6.51437Z" fill="black" style="fill:black;fill-opacity:1;"/>
<path d="M14 7.99997C14 6.90541 13.6483 5.893 13.0517 5.06958L13.7663 4.35498C14.5402 5.36537 15 6.62897 15 7.99997C15 9.91163 14.106 11.6145 12.7133 12.7132L12.0002 12.0002C13.2145 11.088 14 9.6357 14 7.99997Z" fill="black" style="fill:black;fill-opacity:1;"/>
</svg>
