<svg width="16" height="16" viewBox="0 0 16 16" fill="none" xmlns="http://www.w3.org/2000/svg">
<path d="M14.8535 1.85352L1.85352 14.8535L1.14648 14.1465L4.20508 11.0869L3.89355 11.0654C3.10875 11.0094 2.50023 10.3561 2.5 9.56934V6.43066C2.50023 5.64391 3.10875 4.99063 3.89355 4.93457L6.19336 4.76953L7.3125 2.75684L7.75 2.5H9L9.5 3V5.79297L14.1465 1.14648L14.8535 1.85352Z" fill="black" style="fill:black;fill-opacity:1;"/>
<path d="M9.5 13L9 13.5H7.75L7.3125 13.2432L6.44238 11.6777L9.5 8.62109V13Z" fill="black" style="fill:black;fill-opacity:1;"/>
<path d="M13.377 4.74316C14.9816 6.85928 14.8202 9.88775 12.8896 11.8184L12.1816 11.1113C13.7209 9.57206 13.8801 7.1766 12.6611 5.45898L13.377 4.74316Z" fill="black" style="fill:black;fill-opacity:1;"/>
<path d="M11.9707 6.14941C12.8139 7.50015 12.6488 9.30042 11.4746 10.4746L10.7676 9.76758C11.5479 8.98722 11.7025 7.82059 11.2354 6.88477L11.9707 6.14941Z" fill="black" style="fill:black;fill-opacity:1;"/>
</svg>
