<svg width="16" height="16" viewBox="0 0 16 16" fill="none" xmlns="http://www.w3.org/2000/svg">
<path fill-rule="evenodd" clip-rule="evenodd" d="M6.39648 6.89648C7.00595 6.28702 7.99404 6.28705 8.60352 6.89648L13.6035 11.8965C14.213 12.506 14.213 13.494 13.6035 14.1035C12.994 14.713 12.0059 14.713 11.3965 14.1035L6.39648 9.10352C5.78706 8.49405 5.78705 7.50595 6.39648 6.89648ZM8.70703 10L12.1035 13.3965C12.3225 13.6154 12.6775 13.6154 12.8965 13.3965C13.1154 13.1775 13.1154 12.8225 12.8965 12.6035L9.5 9.20703L8.70703 10ZM7.89648 7.60352C7.67753 7.38461 7.32245 7.38458 7.10352 7.60352C6.88461 7.82245 6.88462 8.17754 7.10352 8.39648L8 9.29297L8.79297 8.5L7.89648 7.60352Z" fill="black" style="fill:black;fill-opacity:1;"/>
<path d="M4.5 10H5.5V11H4.5V12H3.5V11H2.5V10H3.5V9H4.5V10Z" fill="black" style="fill:black;fill-opacity:1;"/>
<path fill-rule="evenodd" clip-rule="evenodd" d="M5 2.5C5 3.60457 5.89543 4.5 7 4.5V5.5C5.89543 5.5 5 6.39543 5 7.5H4C4 6.39543 3.10457 5.5 2 5.5V4.5C3.10457 4.5 4 3.60457 4 2.5H5ZM4.5 4.15625C4.27789 4.49084 3.99084 4.77789 3.65625 5C3.99062 5.22196 4.27795 5.50847 4.5 5.84277C4.7219 5.5087 5.0087 5.2219 5.34277 5C5.00847 4.77795 4.72196 4.49062 4.5 4.15625Z" fill="black" style="fill:black;fill-opacity:1;"/>
<path fill-rule="evenodd" clip-rule="evenodd" d="M10 1C10 1.82843 10.6716 2.5 11.5 2.5V3.5C10.6716 3.5 10 4.17157 10 5H9C9 4.17157 8.32843 3.5 7.5 3.5V2.5C8.32843 2.5 9 1.82843 9 1H10ZM9.5 2.49414C9.35625 2.68625 9.18625 2.85625 8.99414 3C9.18604 3.14359 9.35635 3.31303 9.5 3.50488C9.6435 3.31324 9.81324 3.1435 10.0049 3C9.81303 2.85635 9.64359 2.68604 9.5 2.49414Z" fill="black" style="fill:black;fill-opacity:1;"/>
</svg>
