<svg width="16" height="16" viewBox="0 0 16 16" fill="none" xmlns="http://www.w3.org/2000/svg">
<path d="M8 2C6.89543 2 6 2.89543 6 4C6 4.56206 6.23185 5.06997 6.60513 5.4333C6.84432 5.66612 7.14159 5.83956 7.47313 5.92986L4.8639 10.496C4.95042 10.644 5 10.8162 5 11C5 11.5523 4.55228 12 4 12C3.44772 12 3 11.5523 3 11C3 10.4492 3.44533 10.0024 3.99558 10L6.09826 6.32033C5.42776 5.77014 5 4.93502 5 4C5 2.34315 6.34315 1 8 1C9.65685 1 11 2.34315 11 4H10C10 2.89543 9.10457 2 8 2Z" fill="black" style="fill:black;fill-opacity:1;"/>
<path d="M9 4C9 4.18379 8.95042 4.35599 8.86391 4.50397L10.9661 8.18289C11.2884 8.06458 11.6367 8 12 8C13.6568 8 15 9.34315 15 11C15 12.6569 13.6568 14 12 14C11.1716 14 10.4216 13.6642 9.87866 13.1213L10.5858 12.4142C10.9477 12.7761 11.4477 13 12 13C13.1046 13 14 12.1046 14 11C14 9.89543 13.1046 9 12 9C11.8176 9 11.641 9.0244 11.4731 9.07012C11.2033 9.14362 10.9561 9.27223 10.7445 9.4431C10.6961 9.48214 10.6496 9.52339 10.6051 9.56669L7.99559 4.99999C7.44534 4.99762 7 4.55081 7 4C7 3.44772 7.44772 3 8 3C8.55228 3 9 3.44772 9 4Z" fill="black" style="fill:black;fill-opacity:1;"/>
<path d="M13 11C13 11.5523 12.5523 12 12 12C11.6299 12 11.3067 11.7989 11.1338 11.5H6.95852C6.72047 12.9188 5.48649 14 4 14C2.34315 14 1 12.6568 1 11C1 10.1716 1.33579 9.42156 1.87868 8.87866L2.58579 9.58577C2.22386 9.9477 2 10.4477 2 11C2 12.1046 2.89543 13 4 13C5.10457 13 6 12.1046 6 11V10.5H11.1338C11.3067 10.2011 11.6299 10 12 10C12.5523 10 13 10.4477 13 11Z" fill="black" style="fill:black;fill-opacity:1;"/>
</svg>
