<svg width="16" height="16" viewBox="0 0 16 16" fill="none" xmlns="http://www.w3.org/2000/svg">
<path fill-rule="evenodd" clip-rule="evenodd" d="M4.60014 1.14819L2.39641 3.35193L5.44202 6.39754C4.11806 7.20249 3.10352 8.70504 3.10352 10.3519C3.10352 12.8372 5.11823 14.8519 7.60352 14.8519C10.0888 14.8519 12.1035 12.8372 12.1035 10.3519C12.1035 9.30338 11.7443 8.33733 11.1425 7.57214L11.1226 7.54685L4.60014 1.14819ZM10.3756 8.21487C10.8322 8.80612 11.1035 9.54667 11.1035 10.3519C11.1035 12.2849 9.53651 13.8519 7.60352 13.8519C5.67052 13.8519 4.10352 12.2849 4.10352 10.3519C4.10352 8.90791 5.16153 7.53036 6.45993 6.99951H6.45264V5.99951H6.45821L3.81062 3.35193L4.60689 2.55567L10.3756 8.21487Z" fill="black" style="fill:black;fill-opacity:1;"/>
<path d="M9.10352 2.35193V4.35193H10.1035V2.35193H9.10352Z" fill="black" style="fill:black;fill-opacity:1;"/>
<path d="M12.2499 2.99841L10.7499 4.49841L11.457 5.20552L12.957 3.70552L12.2499 2.99841Z" fill="black" style="fill:black;fill-opacity:1;"/>
<path d="M11.6035 5.85193H13.6035V6.85193H11.6035V5.85193Z" fill="black" style="fill:black;fill-opacity:1;"/>
<path fill-rule="evenodd" clip-rule="evenodd" d="M5.63876 10.3519C5.63876 11.4565 6.53419 12.3519 7.63876 12.3519C8.74333 12.3519 9.63876 11.4565 9.63876 10.3519C9.63876 9.24737 8.74333 8.35194 7.63876 8.35194C6.53419 8.35194 5.63876 9.24737 5.63876 10.3519ZM6.63876 10.3519C6.63876 10.9042 7.08648 11.3519 7.63876 11.3519C8.19105 11.3519 8.63876 10.9042 8.63876 10.3519C8.63876 9.79966 8.19105 9.35194 7.63876 9.35194C7.08648 9.35194 6.63876 9.79966 6.63876 10.3519Z" fill="black" style="fill:black;fill-opacity:1;"/>
</svg>
