<svg width="16" height="16" viewBox="0 0 16 16" fill="none" xmlns="http://www.w3.org/2000/svg">
<path d="M7.9999 3.00525C10.4623 3.00525 12.6649 4.11776 14.1324 5.86756L13.4221 6.57779C12.1385 5.00758 10.1862 4.00525 7.9999 4.00525C5.81356 4.00525 3.86133 5.00758 2.57767 6.57779L1.86743 5.86756C3.33494 4.11776 5.5375 3.00525 7.9999 3.00525Z" fill="black" style="fill:black;fill-opacity:1;"/>
<path fill-rule="evenodd" clip-rule="evenodd" d="M7.99973 9.01611C6.89613 9.01611 6.0015 9.91075 6.0015 11.0143C6.0015 12.1179 6.89613 13.0126 7.99973 13.0126C9.10332 13.0126 9.99796 12.1179 9.99796 11.0143C9.99796 9.91075 9.10332 9.01611 7.99973 9.01611ZM7.0015 11.0143C7.0015 10.463 7.44842 10.0161 7.99973 10.0161C8.55103 10.0161 8.99796 10.463 8.99796 11.0143C8.99796 11.5657 8.55103 12.0126 7.99973 12.0126C7.44842 12.0126 7.0015 11.5657 7.0015 11.0143Z" fill="black" style="fill:black;fill-opacity:1;"/>
<path d="M12.7109 7.28908C11.612 5.89801 9.91022 5.00525 7.99991 5.00525C6.08958 5.00525 4.38778 5.89801 3.28896 7.28908L4.00194 8.00206C4.91429 6.78943 6.36552 6.00525 7.99991 6.00525C9.63429 6.00525 11.0855 6.78943 11.9979 8.00206L12.7109 7.28908Z" fill="black" style="fill:black;fill-opacity:1;"/>
<path d="M7.99991 7.01849C9.35513 7.01849 10.5529 7.69245 11.2764 8.72349L10.5548 9.44519C10.0264 8.58907 9.0798 8.01849 7.99991 8.01849C6.92002 8.01849 5.9734 8.58907 5.44507 9.44519L4.72337 8.72349C5.44689 7.69245 6.64469 7.01849 7.99991 7.01849Z" fill="black" style="fill:black;fill-opacity:1;"/>
</svg>
