<svg width="16" height="16" viewBox="0 0 16 16" fill="none" xmlns="http://www.w3.org/2000/svg">
<path d="M8.00014 4.00525C10.4625 4.00525 12.6651 5.11776 14.1326 6.86756L13.4224 7.57779C12.1387 6.00758 10.1865 5.00525 8.00014 5.00525C5.81381 5.00525 3.86158 6.00758 2.57791 7.57779L1.86768 6.86756C3.33519 5.11776 5.53775 4.00525 8.00014 4.00525Z" fill="black" style="fill:black;fill-opacity:1;"/>
<path d="M8.00014 12.5161C8.55243 12.5161 9.00014 12.0684 9.00014 11.5161C9.00014 10.9639 8.55243 10.5161 8.00014 10.5161C7.44786 10.5161 7.00014 10.9639 7.00014 11.5161C7.00014 12.0684 7.44786 12.5161 8.00014 12.5161Z" fill="black" style="fill:black;fill-opacity:1;"/>
<path d="M12.7111 8.28908C11.6123 6.89801 9.91046 6.00525 8.00014 6.00525C6.08982 6.00525 4.38802 6.89801 3.28919 8.28908L4.00217 9.00206C4.91453 7.78943 6.36576 7.00525 8.00014 7.00525C9.63453 7.00525 11.0858 7.78943 11.9981 9.00206L12.7111 8.28908Z" fill="black" style="fill:black;fill-opacity:1;"/>
<path d="M8.00015 8.01849C9.35537 8.01849 10.5532 8.69245 11.2767 9.72349L10.555 10.4452C10.0267 9.58907 9.08003 9.01849 8.00015 9.01849C6.92026 9.01849 5.97364 9.58907 5.4453 10.4452L4.72361 9.72349C5.44712 8.69245 6.64493 8.01849 8.00015 8.01849Z" fill="black" style="fill:black;fill-opacity:1;"/>
</svg>
