<svg width="16" height="16" viewBox="0 0 16 16" fill="none" xmlns="http://www.w3.org/2000/svg">
<path d="M14.8535 1.85352L1.85352 14.8535L1.14648 14.1465L5.14648 10.1465L4.72363 9.72363C5.29901 8.9037 6.17452 8.31051 7.19043 8.10156L8.2793 7.0127C8.18683 7.00758 8.09371 7.00488 8 7.00488C6.36567 7.00493 4.91428 7.78936 4.00195 9.00195L3.28906 8.28906C4.38786 6.89803 6.08974 6.00493 8 6.00488C8.40103 6.00488 8.79282 6.045 9.17188 6.12012L9.99609 5.2959C9.36349 5.10743 8.69374 5.00488 8 5.00488C5.81372 5.00493 3.86176 6.00795 2.57812 7.57812L1.86719 6.86719C3.33467 5.11742 5.53766 4.00493 8 4.00488C8.97969 4.00488 9.91685 4.185 10.7842 4.50781L14.1465 1.14648L14.8535 1.85352Z" fill="black" style="fill:black;fill-opacity:1;"/>
<path d="M8 10.5166C8.55228 10.5166 9 10.9643 9 11.5166C8.99975 12.0687 8.55213 12.5166 8 12.5166C7.44793 12.5165 7.00025 12.0686 7 11.5166C7 10.9644 7.44778 10.5167 8 10.5166Z" fill="black" style="fill:black;fill-opacity:1;"/>
<path d="M9.71484 8.40527C10.3426 8.7037 10.8806 9.15967 11.2764 9.72363L10.5547 10.4453C10.1885 9.85192 9.62145 9.39598 8.94824 9.17188L9.71484 8.40527Z" fill="black" style="fill:black;fill-opacity:1;"/>
<path d="M11.1943 6.92578C11.7743 7.29126 12.2875 7.753 12.7109 8.28906L11.998 9.00195C11.5861 8.45446 11.0637 7.99534 10.4648 7.65527L11.1943 6.92578Z" fill="black" style="fill:black;fill-opacity:1;"/>
<path d="M12.6338 5.48633C13.1899 5.88229 13.695 6.34515 14.1328 6.86719L13.4229 7.57812C12.9911 7.04998 12.4815 6.5882 11.915 6.20508L12.6338 5.48633Z" fill="black" style="fill:black;fill-opacity:1;"/>
</svg>
