<svg width="16" height="16" viewBox="0 0 16 16" fill="none" xmlns="http://www.w3.org/2000/svg">
<path d="M1 7.99997C1 10.7404 2.57481 13.1131 4.86883 14.2623L5.31614 13.3677C3.34984 12.3826 2 10.3489 2 7.99997C2 5.651 3.34983 3.6173 5.31614 2.63223L4.86883 1.73761C2.57481 2.88685 1 5.2595 1 7.99997Z" fill="black" style="fill:black;fill-opacity:1;"/>
<path d="M10.6839 2.63224C12.6502 3.61731 14 5.651 14 7.99997C14 10.3489 12.6502 12.3826 10.6839 13.3677L11.1312 14.2623C13.4252 13.1131 15 10.7404 15 7.99997C15 5.25951 13.4252 2.88686 11.1312 1.73762L10.6839 2.63224Z" fill="black" style="fill:black;fill-opacity:1;"/>
<path d="M4 7.99997C4 9.56596 4.89989 10.9218 6.21076 11.5785L5.76345 12.4731C4.12486 11.6522 3 9.95745 3 7.99997C3 6.0425 4.12486 4.34774 5.76345 3.52686L6.21076 4.42148C4.89989 5.07819 4 6.43399 4 7.99997Z" fill="black" style="fill:black;fill-opacity:1;"/>
<path d="M12 7.99997C12 6.434 11.1001 5.0782 9.78925 4.42148L10.2366 3.52686C11.8751 4.34775 13 6.0425 13 7.99997C13 9.95745 11.8751 11.6522 10.2366 12.4731L9.78925 11.5785C11.1001 10.9218 12 9.56595 12 7.99997Z" fill="black" style="fill:black;fill-opacity:1;"/>
<path d="M8.00001 9.5C8.82843 9.5 9.50001 8.82843 9.50001 8C9.50001 7.17157 8.82843 6.5 8.00001 6.5C7.17158 6.5 6.50001 7.17157 6.50001 8C6.50001 8.82843 7.17158 9.5 8.00001 9.5Z" fill="black" style="fill:black;fill-opacity:1;"/>
</svg>
