<svg width="16" height="16" viewBox="0 0 16 16" fill="none" xmlns="http://www.w3.org/2000/svg">
<path d="M11 5.00433C11 4.18151 10.6687 3.43606 10.1323 2.89406L10.9027 2.25212C11.5828 2.96917 12 3.93802 12 5.00433C12 6.1089 11.5523 7.1089 10.8284 7.83275L10.1213 7.12565C10.6642 6.58275 11 5.83275 11 5.00433Z" fill="black" style="fill:black;fill-opacity:1;"/>
<path d="M5.87868 7.12565C5.33579 6.58275 5 5.83275 5 5.00433C5 4.18151 5.33126 3.43606 5.86768 2.89406L5.09735 2.25212C4.41723 2.96917 4 3.93802 4 5.00433C4 6.1089 4.44771 7.1089 5.17157 7.83275L5.87868 7.12565Z" fill="black" style="fill:black;fill-opacity:1;"/>
<path d="M4.46447 8.53986C3.55964 7.63504 3 6.38504 3 5.00433C3 3.69451 3.50365 2.50232 4.32785 1.61087L3.55877 0.969971C2.59028 2.0355 2 3.45098 2 5.00433C2 6.66118 2.67157 8.16118 3.75736 9.24697L4.46447 8.53986Z" fill="black" style="fill:black;fill-opacity:1;"/>
<path d="M11.5355 8.53986L12.2426 9.24697C13.3284 8.16118 14 6.66118 14 5.00433C14 3.45098 13.4097 2.0355 12.4412 0.969971L11.6721 1.61087C12.4964 2.50232 13 3.69451 13 5.00433C13 6.38504 12.4404 7.63504 11.5355 8.53986Z" fill="black" style="fill:black;fill-opacity:1;"/>
<path fill-rule="evenodd" clip-rule="evenodd" d="M8.78258 5.62694C8.91867 5.45611 9 5.23972 9 5.00433C9 4.45205 8.55228 4.00433 8 4.00433C7.44772 4.00433 7 4.45205 7 5.00433C7 5.23997 7.0815 5.45658 7.21786 5.62749L5.22415 14H6.25211L6.72875 11.9983H9.27144L9.74796 14H10.7759L8.78258 5.62694ZM9.03338 10.9983H6.96688L7.20461 10H8.79571L9.03338 10.9983ZM8.55764 9H7.44274L8.00026 6.6587L8.55764 9Z" fill="black" style="fill:black;fill-opacity:1;"/>
</svg>
