<svg width="16" height="16" viewBox="0 0 16 16" fill="none" xmlns="http://www.w3.org/2000/svg">
<path fill-rule="evenodd" clip-rule="evenodd" d="M4 1.99786C2.89543 1.99786 2 2.89329 2 3.99786C2 5.10243 2.89543 5.99786 4 5.99786C4.93115 5.99786 5.71368 5.36153 5.93644 4.5H11.5C12.3284 4.5 13 5.17157 13 6C13 6.82843 12.3284 7.5 11.5 7.5H9.93699C9.71497 6.63739 8.93192 6 8 6C7.06808 6 6.28503 6.63739 6.06301 7.5H4.5C3.11929 7.5 2 8.61929 2 10C2 11.3807 3.11929 12.5 4.5 12.5H10.0624C10.2836 13.3638 11.0672 14.0024 12 14.0024C13.1046 14.0024 14 13.1069 14 12.0024C14 10.8978 13.1046 10.0024 12 10.0024C11.0689 10.0024 10.2865 10.6386 10.0636 11.5H4.5C3.67157 11.5 3 10.8284 3 10C3 9.17157 3.67157 8.5 4.5 8.5H6.06301C6.28503 9.36261 7.06808 10 8 10C8.93192 10 9.71497 9.36261 9.93699 8.5H11.5C12.8807 8.5 14 7.38071 14 6C14 4.61929 12.8807 3.5 11.5 3.5H5.93754C5.71626 2.6363 4.93269 1.99786 4 1.99786ZM3 3.99786C3 3.44558 3.44772 2.99786 4 2.99786C4.55228 2.99786 5 3.44558 5 3.99786C5 4.55015 4.55228 4.99786 4 4.99786C3.44772 4.99786 3 4.55015 3 3.99786ZM11 12.0024C11 11.4501 11.4477 11.0024 12 11.0024C12.5523 11.0024 13 11.4501 13 12.0024C13 12.5547 12.5523 13.0024 12 13.0024C11.4477 13.0024 11 12.5547 11 12.0024ZM8 7C7.44772 7 7 7.44772 7 8C7 8.55228 7.44772 9 8 9C8.55228 9 9 8.55228 9 8C9 7.44772 8.55228 7 8 7Z" fill="black" style="fill:black;fill-opacity:1;"/>
</svg>
