<svg width="16" height="16" viewBox="0 0 16 16" fill="none" xmlns="http://www.w3.org/2000/svg">
<path fill-rule="evenodd" clip-rule="evenodd" d="M10.7898 1.16602L11.7702 2.14644L11.7671 2.85659L10.9921 3.61837C10.8411 3.76638 10.75 3.96809 10.75 4.1895C10.75 4.62902 11.1149 5 11.5833 5C11.8156 5 12.0235 4.90829 12.1741 4.76107L12.8995 4.04811L13.6035 4.05115L14.5648 5.01243L13.8138 7.51184C13.6087 8.19455 12.9514 8.63858 12.2415 8.57404L9.98793 8.36917L8.3789 9.9782L8.68022 12.1879C8.77976 12.9179 8.33444 13.6121 7.62944 13.8259L5.19167 14.5655L4.22976 13.6036L4.23283 12.8934L5.00788 12.1316C5.15882 11.9836 5.24998 11.7819 5.24998 11.5605C5.24998 11.121 4.88506 10.75 4.41664 10.75C4.18435 10.75 3.97639 10.8417 3.82583 10.989L3.10046 11.7019L2.39642 11.6989L1.43286 10.7353L2.17123 8.35997C2.38877 7.66015 3.08015 7.21996 3.80629 7.31898L6.02179 7.6211L7.62105 6.02184L7.31122 3.74976C7.21742 3.06184 7.60796 2.39944 8.2553 2.1485L10.7898 1.16602ZM10.5435 2.33398L8.61675 3.08089C8.40096 3.16454 8.27078 3.38534 8.30205 3.61464L8.6789 6.3782L6.37816 8.67895L3.67118 8.30981C3.42913 8.27681 3.19867 8.42353 3.12616 8.65681L2.56709 10.4553L2.75302 10.6413L3.1252 10.2754C3.45689 9.95071 3.91463 9.75002 4.41664 9.75002C5.42099 9.75002 6.24998 10.5525 6.24998 11.5605C6.24998 12.064 6.04136 12.5188 5.70845 12.8452L5.29349 13.2531L5.47495 13.4346L7.33913 12.869C7.57413 12.7977 7.72257 12.5663 7.68939 12.323L7.32106 9.62184L9.61202 7.33087L12.332 7.57814C12.5686 7.59966 12.7877 7.45165 12.8561 7.22408L13.4351 5.29698L13.2469 5.10877L12.8748 5.47458C12.5431 5.79931 12.0853 6 11.5833 6C10.579 6 9.74998 5.19752 9.74998 4.1895C9.74998 3.6862 9.95848 3.23149 10.2912 2.90504L10.7065 2.49693L10.5435 2.33398Z" fill="black" style="fill:black;fill-opacity:1;"/>
</svg>
