<svg width="16" height="16" viewBox="0 0 16 16" fill="none" xmlns="http://www.w3.org/2000/svg">
<rect x="2" y="3.5" width="12" height="9" fill="#F2F2F2" style="fill:#F2F2F2;fill:color(display-p3 0.9490 0.9490 0.9490);fill-opacity:1;"/>
<path d="M5 12.5L5 3.5H2V12.5H5Z" fill="#C53A28" style="fill:#C53A28;fill:color(display-p3 0.7725 0.2275 0.1569);fill-opacity:1;"/>
<path d="M14 12.5L14 3.5H11V12.5H14Z" fill="#C53A28" style="fill:#C53A28;fill:color(display-p3 0.7725 0.2275 0.1569);fill-opacity:1;"/>
<path d="M8.06097 9.66391L8.12243 10.84H7.87661L7.93807 9.66391C7.93851 9.65456 7.93807 9.64521 7.93629 9.63586C7.92426 9.5655 7.85702 9.5183 7.78666 9.53032L6.61593 9.73605L6.77402 9.30009C6.78738 9.26491 6.77625 9.22483 6.74686 9.20079L5.46436 8.16232L5.75336 8.02739C5.79389 8.00824 5.81348 7.96193 5.79968 7.91962L5.54629 7.13988L6.28507 7.29663C6.32604 7.30554 6.36789 7.28372 6.38437 7.24498L6.52732 6.90832L7.104 7.52686C7.12493 7.54868 7.15521 7.55848 7.18504 7.55269C7.23314 7.54333 7.26475 7.49702 7.2554 7.44893L6.97753 6.01502L7.42329 6.27241L7.42863 6.27508C7.47227 6.29691 7.52571 6.27909 7.54753 6.23545L7.99996 5.34705L8.4524 6.23545L8.45507 6.2408C8.47957 6.2831 8.53389 6.29735 8.5762 6.27241L9.02196 6.01502L8.74408 7.44893C8.73829 7.47876 8.74809 7.50905 8.76991 7.52998C8.80554 7.56382 8.8612 7.56248 8.89504 7.52686L9.47172 6.90832L9.61467 7.24498C9.63114 7.28372 9.67256 7.30509 9.71397 7.29663L10.4527 7.13988L10.1994 7.91962C10.1856 7.96237 10.2052 8.00824 10.2457 8.02739L10.5347 8.16232L9.25218 9.20079C9.22279 9.22439 9.21166 9.26447 9.22502 9.30009L9.38311 9.73605L8.21238 9.53032C8.20303 9.52854 8.19368 9.52854 8.18432 9.52854C8.11307 9.5321 8.05785 9.59266 8.06097 9.66391Z" fill="#C53A28" style="fill:#C53A28;fill:color(display-p3 0.7725 0.2275 0.1569);fill-opacity:1;"/>
</svg>
