<svg width="16" height="16" viewBox="0 0 16 16" fill="none" xmlns="http://www.w3.org/2000/svg">
<rect x="2" y="3.5" width="12" height="9" fill="#F2F2F2" style="fill:#F2F2F2;fill:color(display-p3 0.9490 0.9490 0.9490);fill-opacity:1;"/>
<path d="M8.20843 10.5386L8.12421 10.5781L8.11176 10.5818L8.31903 10.7349C8.31667 10.7369 8.28683 10.7615 8.25751 10.7883C8.24402 10.8007 8.227 10.817 8.21503 10.8301C8.21021 10.8353 8.20519 10.841 8.20111 10.8469C8.19891 10.851 8.19672 10.8557 8.19452 10.8601C8.19264 10.8594 8.18939 10.8557 8.18939 10.8557L8.18719 10.8542C8.17902 10.8464 8.1712 10.8386 8.16376 10.8301C8.14388 10.8076 8.11743 10.774 8.09418 10.7451C8.04813 10.6875 8.00982 10.6381 8.00262 10.6287L7.99969 10.6257L7.9975 10.6287C7.99038 10.638 7.95197 10.6875 7.90594 10.7451C7.88232 10.774 7.85551 10.8076 7.83563 10.8301C7.82822 10.8386 7.82034 10.8465 7.81219 10.8542L7.81073 10.8557C7.80923 10.8572 7.80675 10.8594 7.80487 10.8601C7.80302 10.8557 7.80086 10.851 7.79828 10.8469C7.79417 10.841 7.78921 10.8353 7.78436 10.8301C7.77236 10.817 7.75538 10.8007 7.74188 10.7883C7.71203 10.7611 7.68138 10.7357 7.68036 10.7349L7.88837 10.5818L7.87518 10.5781L7.79095 10.5386L7.83636 10.488L7.99091 10.554L7.99969 10.5562L8.00848 10.554L8.16302 10.488L8.20843 10.5386Z" fill="#4E5B31" style="fill:#4E5B31;fill:color(display-p3 0.3059 0.3569 0.1922);fill-opacity:1;"/>
<path d="M7.31634 10.4463C7.41562 10.4463 7.53771 10.48 7.67816 10.5466C7.59493 10.5961 7.49986 10.6224 7.40277 10.6221C7.29859 10.6213 7.19681 10.5925 7.1076 10.5393C7.11846 10.521 7.13291 10.5055 7.15009 10.4932C7.1786 10.4718 7.23096 10.4463 7.31488 10.4463H7.31634Z" fill="#4E5B31" style="fill:#4E5B31;fill:color(display-p3 0.3059 0.3569 0.1922);fill-opacity:1;"/>
<path d="M8.68524 10.4463C8.76881 10.4467 8.82042 10.4722 8.8493 10.4932C8.86654 10.5052 8.88164 10.5209 8.89252 10.5393C8.80289 10.5922 8.70049 10.6209 8.59662 10.6221C8.49955 10.6224 8.40443 10.5961 8.32123 10.5466C8.46177 10.4799 8.58371 10.4463 8.68304 10.4463H8.68524Z" fill="#4E5B31" style="fill:#4E5B31;fill:color(display-p3 0.3059 0.3569 0.1922);fill-opacity:1;"/>
<path d="M7.32074 10.0823C7.38898 10.0823 7.5651 10.1167 7.73383 10.436C7.47623 10.399 7.36697 10.3069 7.32074 10.2354C7.29149 10.1919 7.2778 10.1392 7.28192 10.0867C7.29449 10.0837 7.30781 10.0823 7.32074 10.0823Z" fill="#4E5B31" style="fill:#4E5B31;fill:color(display-p3 0.3059 0.3569 0.1922);fill-opacity:1;"/>
<path d="M8.7182 10.0874C8.72229 10.1395 8.70861 10.1919 8.67938 10.2354C8.63282 10.3073 8.5235 10.4 8.2663 10.4368C8.43517 10.1178 8.60983 10.0831 8.67865 10.083C8.69175 10.083 8.7051 10.0844 8.7182 10.0874Z" fill="#4E5B31" style="fill:#4E5B31;fill:color(display-p3 0.3059 0.3569 0.1922);fill-opacity:1;"/>
<path d="M7.02484 10.2126C7.10997 10.2126 7.2399 10.2407 7.3764 10.373C7.31978 10.3809 7.26239 10.3851 7.20502 10.3855C7.12272 10.3855 7.05486 10.3751 7.00287 10.354L6.95599 10.3291C6.93237 10.3141 6.91344 10.2927 6.90106 10.2676C6.89661 10.2582 6.8945 10.248 6.89301 10.2375C6.92931 10.223 6.96833 10.2149 7.008 10.2134C7.01349 10.213 7.01899 10.2126 7.02484 10.2126Z" fill="#4E5B31" style="fill:#4E5B31;fill:color(display-p3 0.3059 0.3569 0.1922);fill-opacity:1;"/>
<path d="M8.97382 10.2134C8.98016 10.2134 8.98579 10.2134 8.99139 10.2134C9.03076 10.2145 9.06964 10.2233 9.10638 10.2383C9.10524 10.2487 9.10205 10.259 9.09759 10.2683C9.08526 10.2928 9.06681 10.3142 9.0434 10.3291C8.98831 10.3662 8.90449 10.3855 8.79437 10.3855C8.73737 10.3851 8.67961 10.3809 8.62299 10.373C8.75933 10.2408 8.88869 10.2134 8.97382 10.2134Z" fill="#4E5B31" style="fill:#4E5B31;fill:color(display-p3 0.3059 0.3569 0.1922);fill-opacity:1;"/>
<path d="M6.5495 10.1987C6.65825 10.1987 6.74229 10.2201 6.79779 10.2617C6.81304 10.2711 6.82478 10.2856 6.83002 10.3027C6.83114 10.3155 6.82478 10.3282 6.8139 10.335C6.78875 10.3536 6.74416 10.3639 6.68134 10.365H6.67255C6.55667 10.365 6.39692 10.3292 6.29755 10.2295C6.3732 10.2115 6.45073 10.2014 6.52826 10.1987H6.5495Z" fill="#4E5B31" style="fill:#4E5B31;fill:color(display-p3 0.3059 0.3569 0.1922);fill-opacity:1;"/>
<path d="M9.47186 10.1995C9.54984 10.2021 9.62685 10.2122 9.70258 10.2302C9.60319 10.3295 9.44378 10.365 9.32758 10.365H9.31879C9.25588 10.3639 9.21136 10.3537 9.18622 10.335C9.17541 10.3283 9.16907 10.3161 9.1701 10.3035C9.17535 10.2862 9.18696 10.2711 9.20233 10.2617C9.25782 10.2201 9.34121 10.1995 9.44989 10.1995H9.47186Z" fill="#4E5B31" style="fill:#4E5B31;fill:color(display-p3 0.3059 0.3569 0.1922);fill-opacity:1;"/>
<path d="M6.31366 9.88086C6.3924 9.88086 6.55317 9.91349 6.74213 10.135C6.5086 10.1268 6.38762 10.0605 6.32684 10.0061C6.30106 9.98331 6.27959 9.95615 6.26385 9.92554C6.25785 9.91391 6.25294 9.90167 6.24994 9.88892C6.26868 9.88329 6.28831 9.88013 6.3078 9.88013L6.31366 9.88086Z" fill="#4E5B31" style="fill:#4E5B31;fill:color(display-p3 0.3059 0.3569 0.1922);fill-opacity:1;"/>
<path d="M9.75018 9.88818C9.74718 9.90093 9.74227 9.91318 9.73627 9.9248C9.72052 9.95555 9.69915 9.98323 9.67328 10.0061C9.61247 10.0604 9.49133 10.1268 9.258 10.135C9.44691 9.91348 9.60768 9.88016 9.68646 9.88013H9.69232C9.71178 9.88014 9.73148 9.88257 9.75018 9.88818Z" fill="#4E5B31" style="fill:#4E5B31;fill:color(display-p3 0.3059 0.3569 0.1922);fill-opacity:1;"/>
<path d="M6.64178 9.80249C6.7245 9.80454 6.8661 9.83777 6.95892 10.0222L6.99554 10.1116C6.80767 10.0827 6.70096 10.0021 6.64471 9.93945C6.61028 9.90238 6.58393 9.85811 6.56781 9.80981C6.58649 9.80535 6.60624 9.80249 6.62567 9.80249H6.64178Z" fill="#4E5B31" style="fill:#4E5B31;fill:color(display-p3 0.3059 0.3569 0.1922);fill-opacity:1;"/>
<path d="M9.43158 9.80981C9.41546 9.85811 9.38949 9.90238 9.35468 9.93945C9.29843 10.0021 9.19172 10.0831 9.00384 10.1116C9.09159 9.84795 9.26384 9.80474 9.35834 9.80249H9.37445C9.39375 9.80288 9.41265 9.80538 9.43158 9.80981Z" fill="#4E5B31" style="fill:#4E5B31;fill:color(display-p3 0.3059 0.3569 0.1922);fill-opacity:1;"/>
<path d="M5.84491 9.83691C5.88766 9.83691 5.93035 9.84112 5.97235 9.84937C6.06714 9.86927 6.15155 9.92305 6.21039 10.0002C6.15152 10.0145 6.09096 10.0208 6.03021 10.0208C5.97063 10.0207 5.91105 10.0137 5.85297 9.99951C5.75472 9.97514 5.71203 9.93753 5.69403 9.91016C5.68623 9.89896 5.68089 9.88622 5.67865 9.8728C5.67828 9.86758 5.67828 9.86228 5.67865 9.85669C5.72919 9.84396 5.78151 9.83731 5.83392 9.83691H5.84491Z" fill="#4E5B31" style="fill:#4E5B31;fill:color(display-p3 0.3059 0.3569 0.1922);fill-opacity:1;"/>
<path d="M10.1647 9.83691C10.2169 9.83729 10.2701 9.84467 10.3207 9.85742C10.3215 9.86256 10.3207 9.86766 10.32 9.8728C10.3178 9.8863 10.3125 9.89964 10.3046 9.91089C10.2865 9.93785 10.2441 9.97486 10.1464 9.99951C10.0887 10.0137 10.0287 10.0207 9.96918 10.0208C9.90843 10.0211 9.84788 10.0138 9.789 9.99951C9.84749 9.9224 9.93227 9.86922 10.027 9.84937C10.069 9.84112 10.1117 9.83691 10.1545 9.83691H10.1647Z" fill="#4E5B31" style="fill:#4E5B31;fill:color(display-p3 0.3059 0.3569 0.1922);fill-opacity:1;"/>
<path d="M10.2336 9.46045C10.2212 9.59957 10.1201 9.68961 10.038 9.74023C9.98298 9.7739 9.92292 9.80028 9.86078 9.81787C9.92489 9.67389 9.99668 9.5706 10.0739 9.51172C10.1345 9.46537 10.1846 9.4583 10.2094 9.45825H10.2145C10.2209 9.45825 10.2272 9.45897 10.2336 9.46045Z" fill="#4E5B31" style="fill:#4E5B31;fill:color(display-p3 0.3059 0.3569 0.1922);fill-opacity:1;"/>
<path d="M5.78998 9.45752C5.81436 9.45753 5.86479 9.46494 5.92548 9.51099C6.00308 9.57022 6.07487 9.67282 6.13861 9.81714C6.07639 9.79951 6.01684 9.77324 5.96136 9.7395C5.87891 9.6889 5.77826 9.59946 5.76581 9.46045C5.77211 9.45934 5.77855 9.45828 5.78485 9.45825L5.78998 9.45752Z" fill="#4E5B31" style="fill:#4E5B31;fill:color(display-p3 0.3059 0.3569 0.1922);fill-opacity:1;"/>
<path d="M6.01849 9.36304C6.05409 9.36379 6.10906 9.3785 6.16937 9.4436C6.23863 9.51848 6.29966 9.64152 6.35248 9.80908C6.30206 9.78594 6.25527 9.75609 6.21332 9.71973C6.10422 9.62563 6.01903 9.50675 5.96503 9.37329C5.97846 9.36735 5.99259 9.36379 6.00751 9.36304H6.01849Z" fill="#4E5B31" style="fill:#4E5B31;fill:color(display-p3 0.3059 0.3569 0.1922);fill-opacity:1;"/>
<path d="M9.99335 9.3623C10.0078 9.36309 10.0224 9.36624 10.0358 9.37256C9.98183 9.50641 9.89664 9.62488 9.78754 9.71899C9.74516 9.75574 9.69718 9.78583 9.64618 9.80908C9.69903 9.64121 9.76142 9.51859 9.83075 9.4436C9.89112 9.37835 9.946 9.36343 9.98163 9.3623H9.99335Z" fill="#4E5B31" style="fill:#4E5B31;fill:color(display-p3 0.3059 0.3569 0.1922);fill-opacity:1;"/>
<path d="M5.32855 9.37769C5.52563 9.38335 5.61832 9.44105 5.6618 9.48828C5.68879 9.5164 5.70529 9.55221 5.70941 9.59082C5.70638 9.5911 5.67926 9.59375 5.6391 9.59375C5.58363 9.59374 5.52829 9.5892 5.47357 9.57983C5.41006 9.56817 5.37406 9.51412 5.35492 9.4707C5.34222 9.44081 5.33344 9.40944 5.32855 9.37769Z" fill="#4E5B31" style="fill:#4E5B31;fill:color(display-p3 0.3059 0.3569 0.1922);fill-opacity:1;"/>
<path d="M10.6708 9.37695C10.666 9.40917 10.6572 9.44037 10.6445 9.46997C10.6253 9.51347 10.5888 9.56748 10.5251 9.5791C10.4705 9.5888 10.4156 9.593 10.3603 9.59302C10.3179 9.59302 10.2892 9.59082 10.2892 9.59082C10.2934 9.55234 10.31 9.51636 10.3369 9.48828C10.3803 9.44104 10.4736 9.38259 10.6708 9.37695Z" fill="#4E5B31" style="fill:#4E5B31;fill:color(display-p3 0.3059 0.3569 0.1922);fill-opacity:1;"/>
<path d="M5.3139 8.89209C5.34005 8.89253 5.36777 8.90445 5.40546 8.93018C5.43996 8.95455 5.47251 8.98221 5.50214 9.01221C5.53958 9.04967 5.57499 9.08966 5.60907 9.13086C5.61346 9.13847 5.64741 9.19937 5.67352 9.2583C5.68665 9.2853 5.6968 9.31437 5.70355 9.34399C5.70602 9.35205 5.70604 9.36123 5.70355 9.36963C5.70243 9.37263 5.70032 9.37545 5.69769 9.37695C5.69584 9.37768 5.69331 9.37769 5.6911 9.37769H5.68744C5.65254 9.37165 5.59117 9.34486 5.52338 9.30591C5.44802 9.26279 5.38614 9.21641 5.35052 9.17554C5.31805 9.13846 5.29904 9.08002 5.2934 9.00195C5.29077 8.96633 5.29075 8.93027 5.29413 8.89502C5.3005 8.89277 5.30715 8.89209 5.3139 8.89209Z" fill="#4E5B31" style="fill:#4E5B31;fill:color(display-p3 0.3059 0.3569 0.1922);fill-opacity:1;"/>
<path d="M10.7053 8.89502C10.7083 8.93064 10.7094 8.9667 10.7067 9.00195C10.7011 9.07974 10.6814 9.13845 10.6489 9.17554C10.6132 9.21641 10.5514 9.26278 10.476 9.30591C10.4082 9.34488 10.3468 9.37169 10.312 9.37769H10.3083C10.306 9.37769 10.3036 9.3777 10.3017 9.37695C10.2991 9.37545 10.2977 9.37225 10.2966 9.36963C10.294 9.36114 10.294 9.35249 10.2966 9.34399C10.3033 9.31474 10.3135 9.28568 10.3266 9.2583C10.3528 9.19922 10.3865 9.13883 10.3911 9.13159C10.4244 9.08997 10.4601 9.04971 10.498 9.01221C10.5276 8.98226 10.5595 8.95452 10.5939 8.93018C10.6318 8.90431 10.66 8.89246 10.6862 8.89209C10.6928 8.89212 10.699 8.8932 10.7053 8.89502Z" fill="#4E5B31" style="fill:#4E5B31;fill:color(display-p3 0.3059 0.3569 0.1922);fill-opacity:1;"/>
<path d="M12.1395 4.88075C11.8931 4.9745 11.6977 5.05812 11.4555 5.15262C11.2931 5.24487 11.1168 5.40762 10.9072 5.40237C10.6815 5.4995 10.3717 5.81787 10.0342 5.86625C9.44922 5.96712 9.00597 6.19625 8.39659 6.1895C7.88284 6.095 7.34359 6.16775 6.88872 5.94237C6.99822 6.24575 6.99334 7.01 6.49684 6.86937C6.25234 6.68675 5.93097 6.719 5.71984 6.8135C5.26422 7.90812 4.57234 6.48612 4.95822 7.4285C5.01184 7.61562 4.93272 7.874 5.16259 7.95912C5.29497 8.02775 5.18509 8.29212 5.33284 8.31612C5.55259 8.50362 5.88109 8.56062 6.17434 8.69225C6.64347 8.63375 6.83622 8.47812 6.98322 8.96787C7.59559 9.02637 6.73534 8.72525 7.55734 8.46762C8.13972 8.5715 8.54922 8.16725 9.05509 8.07237C9.20284 7.91637 9.08772 7.62837 9.30034 7.52C9.50172 7.46637 9.70572 7.52037 9.86659 7.63212C10.0278 7.51212 10.215 7.42362 10.4122 7.51437C10.5896 7.59875 10.5626 7.58862 10.527 7.44387C10.3368 7.15362 9.99334 6.962 9.97347 6.66875C10.0125 6.269 10.2082 6.2945 10.5011 6.22175C10.6605 5.7425 11.3666 5.70687 11.6115 5.31575C11.7611 5.10837 12.1091 5.15525 12.1391 4.88037L12.1395 4.88075Z" fill="#D57800" style="fill:#D57800;fill:color(display-p3 0.8353 0.4706 0.0000);fill-opacity:1;"/>
</svg>
