<svg width="16" height="16" viewBox="0 0 16 16" fill="none" xmlns="http://www.w3.org/2000/svg">
<rect x="2" y="3.5" width="12" height="9" fill="#112F95" style="fill:#112F95;fill:color(display-p3 0.0667 0.1843 0.5843);fill-opacity:1;"/>
<path d="M7.89471 5.09229L7.9999 4.76889L8.10508 5.09229H8.44498L8.16985 5.29194L8.27503 5.61534L7.9999 5.41569L7.72476 5.61534L7.82995 5.29194L7.55481 5.09229H7.89471Z" fill="#F6CD46" style="fill:#F6CD46;fill:color(display-p3 0.9647 0.8039 0.2745);fill-opacity:1;"/>
<path d="M7.9999 10.3847L8.10508 10.7081H8.44498L8.16985 10.9077L8.27503 11.2311L7.9999 11.0315L7.72476 11.2311L7.82995 10.9077L7.55481 10.7081H7.89471L7.9999 10.3847Z" fill="#F6CD46" style="fill:#F6CD46;fill:color(display-p3 0.9647 0.8039 0.2745);fill-opacity:1;"/>
<path d="M5.19216 8.22357L5.4673 8.42322L5.36211 8.09982L5.63725 7.90017H5.29735L5.19216 7.57677L5.08697 7.90017H4.74707L5.02221 8.09982L4.91702 8.42322L5.19216 8.22357Z" fill="#F6CD46" style="fill:#F6CD46;fill:color(display-p3 0.9647 0.8039 0.2745);fill-opacity:1;"/>
<path d="M6.49107 5.46848L6.59584 5.14508L6.70103 5.46848H7.04093L6.76621 5.66813L6.87098 5.99153L6.59584 5.79188L6.32112 5.99153L6.42589 5.66813L6.15076 5.46848H6.49107Z" fill="#F6CD46" style="fill:#F6CD46;fill:color(display-p3 0.9647 0.8039 0.2745);fill-opacity:1;"/>
<path d="M5.56826 6.17262L5.46307 6.49602H5.12317L5.39831 6.69609L5.29312 7.01949L5.56826 6.81942L5.84339 7.01949L5.73821 6.69609L6.01334 6.49602H5.67344L5.56826 6.17262Z" fill="#F6CD46" style="fill:#F6CD46;fill:color(display-p3 0.9647 0.8039 0.2745);fill-opacity:1;"/>
<path d="M5.56826 8.98052L5.67344 9.30392H6.01334L5.73821 9.50398L5.84339 9.82738L5.56826 9.62732L5.29312 9.82738L5.39831 9.50398L5.12317 9.30392H5.46307L5.56826 8.98052Z" fill="#F6CD46" style="fill:#F6CD46;fill:color(display-p3 0.9647 0.8039 0.2745);fill-opacity:1;"/>
<path d="M6.70103 10.3319L6.59584 10.0085L6.49107 10.3319H6.15076L6.42589 10.5315L6.32112 10.8549L6.59584 10.6553L6.87098 10.8549L6.76621 10.5315L7.04093 10.3319H6.70103Z" fill="#F6CD46" style="fill:#F6CD46;fill:color(display-p3 0.9647 0.8039 0.2745);fill-opacity:1;"/>
<path d="M10.9132 7.90017H11.2531L10.978 8.09982L11.0831 8.42322L10.808 8.22357L10.5329 8.42322L10.6381 8.09982L10.3629 7.90017H10.7028L10.808 7.57677L10.9132 7.90017Z" fill="#F6CD46" style="fill:#F6CD46;fill:color(display-p3 0.9647 0.8039 0.2745);fill-opacity:1;"/>
<path d="M9.40432 5.14508L9.29913 5.46848H8.95923L9.23395 5.66813L9.12918 5.99153L9.40432 5.79188L9.67904 5.99153L9.57427 5.66813L9.8494 5.46848H9.50909L9.40432 5.14508Z" fill="#F6CD46" style="fill:#F6CD46;fill:color(display-p3 0.9647 0.8039 0.2745);fill-opacity:1;"/>
<path d="M10.1568 7.01949L10.262 6.69609L9.98682 6.49602H10.3267L10.4319 6.17262L10.5371 6.49602H10.877L10.6019 6.69609L10.707 7.01949L10.4319 6.81942L10.1568 7.01949Z" fill="#F6CD46" style="fill:#F6CD46;fill:color(display-p3 0.9647 0.8039 0.2745);fill-opacity:1;"/>
<path d="M10.5371 9.30392L10.4319 8.98052L10.3267 9.30392H9.98682L10.262 9.50398L10.1568 9.82738L10.4319 9.62732L10.707 9.82738L10.6019 9.50398L10.877 9.30392H10.5371Z" fill="#F6CD46" style="fill:#F6CD46;fill:color(display-p3 0.9647 0.8039 0.2745);fill-opacity:1;"/>
<path d="M9.40432 10.0085L9.50909 10.3319H9.8494L9.57427 10.5315L9.67904 10.8549L9.40432 10.6553L9.12918 10.8549L9.23395 10.5315L8.95923 10.3319H9.29913L9.40432 10.0085Z" fill="#F6CD46" style="fill:#F6CD46;fill:color(display-p3 0.9647 0.8039 0.2745);fill-opacity:1;"/>
</svg>
