<svg width="16" height="16" viewBox="0 0 16 16" fill="none" xmlns="http://www.w3.org/2000/svg">
<rect x="2" y="3.5" width="12" height="9" fill="#F2F2F2" style="fill:#F2F2F2;fill:color(display-p3 0.9490 0.9490 0.9490);fill-opacity:1;"/>
<rect x="8" y="3.5" width="6" height="9" fill="#BF2C30" style="fill:#BF2C30;fill:color(display-p3 0.7490 0.1725 0.1882);fill-opacity:1;"/>
<path d="M4.67211 6.96762H3.78673V6.35225C3.71623 6.32037 3.65848 6.263 3.62661 6.19212H3.01123V5.30675H3.62698C3.65848 5.23625 3.71586 5.1785 3.78673 5.14662V4.53125H4.67211V5.14662C4.74261 5.1785 4.80036 5.23587 4.83223 5.30675H5.44761V6.19212H4.83223C4.80073 6.26262 4.74298 6.32075 4.67211 6.35225V6.96762ZM3.97423 6.78012H4.48461V6.20337L4.56298 6.19025C4.61998 6.17937 4.66311 6.13438 4.67023 6.0845L4.68186 6.00425H5.25973V5.49388H4.67886L4.66986 5.41212C4.65898 5.35812 4.61436 5.31575 4.56448 5.30825L4.48461 5.29663V4.71838H3.97423V5.29512L3.89586 5.30825C3.83923 5.31912 3.79611 5.36413 3.78898 5.414L3.77736 5.49425H3.19911V6.00462H3.77098L3.78748 6.07812C3.79948 6.14 3.84411 6.18275 3.89436 6.19025L3.97423 6.20187V6.78012Z" fill="#BF2C30" style="fill:#BF2C30;fill:color(display-p3 0.7490 0.1725 0.1882);fill-opacity:1;"/>
</svg>
