<svg width="16" height="16" viewBox="0 0 16 16" fill="none" xmlns="http://www.w3.org/2000/svg">
<rect x="2" y="3.5" width="12" height="9" fill="#F2F2F2" style="fill:#F2F2F2;fill:color(display-p3 0.9490 0.9490 0.9490);fill-opacity:1;"/>
<rect x="2" y="3.5" width="3.75" height="9" fill="#006847" style="fill:#006847;fill:color(display-p3 0.0000 0.4078 0.2784);fill-opacity:1;"/>
<rect x="10.25" y="3.49997" width="3.75" height="9" fill="#CE1126" style="fill:#CE1126;fill:color(display-p3 0.8078 0.0667 0.1490);fill-opacity:1;"/>
<path fill-rule="evenodd" clip-rule="evenodd" d="M6.74491 9.11106C6.47993 8.81583 6.34985 8.45511 6.34985 8.19565H6.64985C6.64985 8.37097 6.74536 8.66243 6.96817 8.91068C7.18598 9.15335 7.52145 9.35 7.99985 9.35C8.51897 9.35 8.85242 9.15142 9.05814 8.9129C9.26878 8.66868 9.34985 8.37746 9.34985 8.19565H9.64985C9.64985 8.44862 9.54343 8.80958 9.28532 9.10884C9.02229 9.4138 8.60574 9.65 7.99985 9.65C7.42943 9.65 7.0149 9.41187 6.74491 9.11106Z" fill="#717732" style="fill:#717732;fill:color(display-p3 0.4431 0.4667 0.1961);fill-opacity:1;"/>
<path fill-rule="evenodd" clip-rule="evenodd" d="M7.6508 8.94552C7.32206 8.84253 7.10591 8.66056 7.00146 8.56973L7.19832 8.34335C7.29387 8.42644 7.47206 8.57515 7.74049 8.65924C8.00574 8.74233 8.37042 8.76575 8.84467 8.57795L8.95512 8.85688C8.41803 9.06956 7.98271 9.0495 7.6508 8.94552Z" fill="#0C8489" style="fill:#0C8489;fill:color(display-p3 0.0471 0.5176 0.5373);fill-opacity:1;"/>
<path d="M8.3002 8.97828C8.3002 9.12235 8.16588 9.23915 8.0002 9.23915C7.83451 9.23915 7.7002 9.12235 7.7002 8.97828C7.7002 8.8342 7.83451 8.71741 8.0002 8.71741C8.16588 8.71741 8.3002 8.8342 8.3002 8.97828Z" fill="#FF8718" style="fill:#FF8718;fill:color(display-p3 1.0000 0.5294 0.0941);fill-opacity:1;"/>
<path d="M7.28038 6.82609L6.875 7.15218C7.01013 7.15218 7.28038 7.2174 7.28038 7.47827C6.95608 8.00001 7.68577 8.34784 8.09115 8.45653C8.49653 8.56523 8.90191 8.45653 8.90191 8.45653C9.55053 7.41305 8.63166 6.71739 8.09115 6.5L7.68577 6.82609H7.28038Z" fill="#8F4620" style="fill:#8F4620;fill:color(display-p3 0.5608 0.2745 0.1255);fill-opacity:1;"/>
</svg>
