<svg width="16" height="16" viewBox="0 0 16 16" fill="none" xmlns="http://www.w3.org/2000/svg">
<rect x="2" y="3.5" width="12" height="9" fill="#EA3323" style="fill:#EA3323;fill:color(display-p3 0.9176 0.2000 0.1373);fill-opacity:1;"/>
<rect x="2" y="3.5" width="4.5" height="9" fill="#2B6519" style="fill:#2B6519;fill:color(display-p3 0.1686 0.3961 0.0980);fill-opacity:1;"/>
<path d="M6.5 9.875C7.53553 9.875 8.375 9.03553 8.375 8C8.375 6.96447 7.53553 6.125 6.5 6.125C5.46447 6.125 4.625 6.96447 4.625 8C4.625 9.03553 5.46447 9.875 6.5 9.875Z" fill="#FFFF55" style="fill:#FFFF55;fill:color(display-p3 1.0000 1.0000 0.3333);fill-opacity:1;"/>
<path d="M7.4375 7.06457L5.5625 7.0625V8.24644C5.56396 8.47833 5.66165 8.69745 5.83799 8.86309C6.01762 9.03183 6.25213 9.125 6.49835 9.125C6.7486 9.125 6.98421 9.03287 7.16165 8.8662C7.33909 8.69918 7.43713 8.47764 7.43713 8.2423V7.06457H7.4375Z" fill="#EA3323" style="fill:#EA3323;fill:color(display-p3 0.9176 0.2000 0.1373);fill-opacity:1;"/>
</svg>
