<svg width="16" height="16" viewBox="0 0 16 16" fill="none" xmlns="http://www.w3.org/2000/svg">
<rect x="2" y="3.5" width="12" height="9" fill="#F2F2F2" style="fill:#F2F2F2;fill:color(display-p3 0.9490 0.9490 0.9490);fill-opacity:1;"/>
<rect x="2" y="9.5" width="12" height="3" fill="#DB362F" style="fill:#DB362F;fill:color(display-p3 0.8588 0.2118 0.1843);fill-opacity:1;"/>
<rect x="2" y="6.5" width="12" height="3" fill="#204C9E" style="fill:#204C9E;fill:color(display-p3 0.1255 0.2980 0.6196);fill-opacity:1;"/>
<path d="M7.49383 5.83701C7.49383 5.83701 7.56058 6.50601 7.56058 7.84438C7.55121 9.21126 6.52896 9.90313 5.77858 10.2669C5.02821 9.90313 4.00633 9.21126 3.99658 7.84438C3.99658 6.50601 4.06333 5.83701 4.06333 5.83701H7.49383Z" fill="#DB362F" style="fill:#DB362F;fill:color(display-p3 0.8588 0.2118 0.1843);fill-opacity:1;"/>
<path d="M5.62747 9.4794V7.80615C5.06084 7.80615 4.89997 7.8564 4.73047 7.9074C4.74622 7.7364 4.74622 7.56427 4.73047 7.39327C4.89997 7.44465 5.06084 7.49452 5.62747 7.49452V7.02952C5.44859 7.02952 5.20184 7.03665 4.91797 7.1334C4.93409 6.96202 4.93409 6.78952 4.91797 6.61815C5.20184 6.7134 5.44859 6.7209 5.62747 6.7209C5.62747 6.58627 5.58584 6.2964 5.53334 6.0564C5.69684 6.07102 5.86109 6.07102 6.02459 6.0564C5.97209 6.29602 5.93047 6.5859 5.93047 6.7209C6.10934 6.7209 6.35609 6.71377 6.63997 6.61815C6.62384 6.78952 6.62384 6.96202 6.63997 7.1334C6.35609 7.03665 6.10934 7.02952 5.93047 7.02952V7.49452C6.49709 7.49452 6.65797 7.44427 6.82747 7.39327C6.81172 7.56427 6.81172 7.7364 6.82747 7.9074C6.65797 7.85602 6.49709 7.80615 5.93047 7.80615V9.4794H5.62747Z" fill="#F2F2F2" style="fill:#F2F2F2;fill:color(display-p3 0.9490 0.9490 0.9490);fill-opacity:1;"/>
<path d="M5.77846 10.2665C6.24383 10.0407 6.81383 9.68823 7.18171 9.12723C7.17908 9.12198 7.17758 9.1156 7.17533 9.11035C6.96533 8.66635 6.58433 8.59773 6.32483 8.95698C6.29146 8.8786 6.25321 8.80735 6.21083 8.7451C5.90896 8.30223 5.47096 8.39673 5.23246 8.95698C5.12483 8.8081 4.99058 8.72673 4.85221 8.72673C4.65796 8.72673 4.48733 8.88573 4.37671 9.12873C4.74496 9.68898 5.31346 10.0407 5.77846 10.2665Z" fill="#204C9E" style="fill:#204C9E;fill:color(display-p3 0.1255 0.2980 0.6196);fill-opacity:1;"/>
<path d="M5.77874 10.3381L5.75062 10.3246C5.24512 10.0794 4.85624 9.80149 4.56224 9.47487C4.14862 9.01549 3.93674 8.46724 3.93262 7.84474C3.93262 6.51837 3.99899 5.83737 3.99974 5.83062L4.00537 5.77249H7.55249L7.55812 5.83062C7.55887 5.83737 7.62524 6.51837 7.62524 7.84437C7.62074 8.46724 7.40887 9.01549 6.99562 9.47487C6.70124 9.80149 6.31274 10.0797 5.80724 10.3246L5.77874 10.3381ZM4.12274 5.90149C4.10737 6.09087 4.06124 6.74374 4.06124 7.84437C4.06537 8.43387 4.26599 8.95362 4.65787 9.38862C4.93537 9.69687 5.30212 9.96087 5.77874 10.1952C6.25537 9.96087 6.62212 9.69687 6.89962 9.38862C7.29149 8.95362 7.49212 8.43387 7.49624 7.84399C7.49624 6.74374 7.45049 6.09087 7.43474 5.90149H4.12274Z" fill="#F2F2F2" style="fill:#F2F2F2;fill:color(display-p3 0.9490 0.9490 0.9490);fill-opacity:1;"/>
</svg>
