<svg width="16" height="16" viewBox="0 0 16 16" fill="none" xmlns="http://www.w3.org/2000/svg">
<rect x="2" y="3.5" width="12" height="9" fill="#F2F2F2" style="fill:#F2F2F2;fill:color(display-p3 0.9490 0.9490 0.9490);fill-opacity:1;"/>
<rect x="2" y="9.5" width="12" height="3" fill="#EA3323" style="fill:#EA3323;fill:color(display-p3 0.9176 0.2000 0.1373);fill-opacity:1;"/>
<rect x="2" y="6.5" width="12" height="3" fill="#0600F5" style="fill:#0600F5;fill:color(display-p3 0.0235 0.0000 0.9608);fill-opacity:1;"/>
<path d="M4.10436 5.21335C4.86149 4.87997 5.72361 4.87997 6.48074 5.21335C6.60486 6.96835 6.20886 7.96322 5.29274 8.1976C4.37661 7.96322 3.98024 6.96835 4.10436 5.21335Z" fill="#0600F5" style="fill:#0600F5;fill:color(display-p3 0.0235 0.0000 0.9608);fill-opacity:1;"/>
<path d="M5.29275 5.99225L5.58037 6.5675L5.772 6.31175L6.25125 6.95112C6.25125 6.98075 6.24712 7.01037 6.23887 7.03887C6.10537 7.50575 5.75175 7.87775 5.29237 8.03487C4.833 7.87775 4.47937 7.50575 4.34587 7.03887C4.33762 7.01037 4.3335 6.98075 4.3335 6.95112L4.81275 6.31175L5.00437 6.5675L5.292 5.99225H5.29275Z" fill="#F2F2F2" style="fill:#F2F2F2;fill:color(display-p3 0.9490 0.9490 0.9490);fill-opacity:1;"/>
<path d="M4.01465 5.255C4.04465 5.24075 4.07465 5.22688 4.10502 5.21338L4.1999 6.72988C4.2404 7.37788 4.67465 7.93475 5.29302 8.13238C5.91177 7.93475 6.34565 7.37788 6.38615 6.72988L6.48102 5.21338C6.5114 5.22688 6.5414 5.24075 6.5714 5.255L6.47877 6.73588C6.43527 7.433 5.96202 8.02888 5.29302 8.22988C4.62402 8.02925 4.15077 7.433 4.10727 6.73588L4.01465 5.255Z" fill="#EA3323" style="fill:#EA3323;fill:color(display-p3 0.9176 0.2000 0.1373);fill-opacity:1;"/>
</svg>
