<svg width="16" height="16" viewBox="0 0 16 16" fill="none" xmlns="http://www.w3.org/2000/svg">
<rect x="2" y="3.5" width="12" height="9" fill="#F1C142" style="fill:#F1C142;fill:color(display-p3 0.9451 0.7569 0.2588);fill-opacity:1;"/>
<path d="M14 12.5H2V9.875H14V12.5Z" fill="#A0251E" style="fill:#A0251E;fill:color(display-p3 0.6275 0.1451 0.1176);fill-opacity:1;"/>
<path d="M14 6.125H2V3.5H14V6.125Z" fill="#A0251E" style="fill:#A0251E;fill:color(display-p3 0.6275 0.1451 0.1176);fill-opacity:1;"/>
<path d="M6.35547 6.90912C6.38022 6.8975 6.37609 6.85662 6.34947 6.85025C6.37084 6.83262 6.35697 6.794 6.32884 6.79475C6.34384 6.77337 6.32434 6.74075 6.29809 6.746C6.30597 6.72275 6.28234 6.69837 6.25909 6.70662C6.26284 6.68112 6.23247 6.662 6.21147 6.67625C6.21297 6.65075 6.18109 6.63425 6.16122 6.65037C6.15747 6.62375 6.11997 6.61475 6.10497 6.63725C6.09972 6.61175 6.06334 6.60462 6.04909 6.62675C6.03897 6.60612 6.00634 6.60537 5.99509 6.62525C5.98384 6.60762 5.95497 6.60837 5.94409 6.626C5.93734 6.6155 5.92272 6.6095 5.91034 6.61325C5.91372 6.58887 5.88559 6.57012 5.86459 6.5825C5.86534 6.55625 5.83197 6.54087 5.81284 6.5585C5.80797 6.5345 5.77422 6.52587 5.75884 6.545C5.75134 6.52137 5.71609 6.51687 5.70334 6.53862C5.68984 6.51762 5.65497 6.52287 5.64822 6.54687C5.63284 6.52625 5.59759 6.53525 5.59347 6.56037C5.58934 6.55737 5.58484 6.55512 5.57959 6.55437C5.58184 6.55137 5.58334 6.54837 5.58522 6.545H5.58597C5.60772 6.50487 5.58747 6.449 5.54622 6.43325V6.3965H5.58334V6.33875H5.54622V6.30087H5.48959V6.33875H5.45247V6.3965H5.48959V6.4325C5.44722 6.4475 5.42622 6.50412 5.44834 6.54462H5.44909C5.45059 6.54762 5.45247 6.551 5.45434 6.55362C5.44872 6.55437 5.44347 6.55662 5.43934 6.56C5.43522 6.53487 5.39959 6.52587 5.38459 6.5465C5.37784 6.5225 5.34297 6.51725 5.32947 6.53825C5.31672 6.51687 5.28147 6.521 5.27397 6.54462C5.25859 6.52512 5.22484 6.53412 5.21997 6.55812C5.20084 6.5405 5.16784 6.55587 5.16822 6.58212C5.14722 6.56975 5.11909 6.5885 5.12247 6.61287C5.10972 6.60912 5.09547 6.61512 5.08834 6.62562C5.07747 6.608 5.04859 6.60725 5.03734 6.62487C5.02609 6.60462 4.99347 6.60575 4.98372 6.62637C4.96984 6.60425 4.93309 6.61137 4.92784 6.63687C4.91322 6.61437 4.87534 6.623 4.87159 6.65C4.85172 6.63387 4.81984 6.65 4.82134 6.67587C4.80034 6.66162 4.76997 6.68075 4.77372 6.70625C4.75047 6.69837 4.72684 6.72275 4.73472 6.74562C4.71597 6.74225 4.69872 6.758 4.69872 6.77712C4.69872 6.7835 4.70059 6.7895 4.70397 6.79475C4.67584 6.794 4.66234 6.83262 4.68334 6.85025C4.65672 6.85662 4.65259 6.89712 4.67734 6.90912C4.65447 6.92225 4.65972 6.96087 4.68559 6.96687C4.68072 6.9725 4.67772 6.97962 4.67772 6.9875C4.67772 7.00325 4.68897 7.01637 4.70359 7.019C4.69497 7.037 4.70697 7.06025 4.72609 7.06325C4.72122 7.0745 4.72159 7.09062 4.72159 7.103C4.75534 7.09587 4.79659 7.10525 4.81122 7.14425C4.80559 7.16975 4.83559 7.20275 4.86297 7.199C4.88547 7.23087 4.91284 7.26087 4.95709 7.27287C4.94922 7.30775 4.98109 7.30775 5.00322 7.31712C4.99834 7.32312 4.98709 7.34075 4.98259 7.3475C4.99159 7.35237 5.01522 7.36287 5.02497 7.36662C5.02684 7.37375 5.02647 7.37712 5.02647 7.37825C5.06059 7.56612 5.97672 7.5665 6.00747 7.37787V7.37712C6.00747 7.37712 6.00897 7.37825 6.00897 7.37862C6.00897 7.3775 6.00859 7.3745 6.01047 7.367L6.05472 7.35125L6.03147 7.3175C6.05247 7.307 6.08584 7.30812 6.07759 7.27287C6.12222 7.26087 6.14997 7.23087 6.17247 7.19862C6.19984 7.20237 6.22984 7.16937 6.22422 7.14387C6.23884 7.10487 6.28047 7.0955 6.31384 7.10262C6.31384 7.0895 6.31459 7.07337 6.30897 7.06175C6.32547 7.0565 6.33522 7.03512 6.32734 7.01862C6.35059 7.01525 6.36147 6.98375 6.34534 6.9665C6.37122 6.9605 6.37647 6.9215 6.35359 6.90875L6.35547 6.90912ZM6.24447 6.86637C6.24447 6.88475 6.23997 6.90312 6.23172 6.91925C6.15747 6.86787 6.05284 6.83 5.97147 6.839C5.97072 6.83562 5.96922 6.83262 5.96734 6.83C5.96734 6.83 5.96734 6.82962 5.96734 6.82925C5.99134 6.82137 5.99509 6.78425 5.97297 6.77187C5.99097 6.75987 5.98984 6.7295 5.97109 6.719C6.09409 6.70437 6.24447 6.75275 6.24447 6.86637ZM5.88597 6.76325C5.88597 6.78687 5.87847 6.80975 5.86572 6.82887C5.76297 6.80675 5.71122 6.7655 5.59684 6.7595C5.59422 6.72875 5.59497 6.69537 5.59272 6.66425C5.68497 6.593 5.89609 6.641 5.88597 6.76325ZM5.43934 6.70175C5.43859 6.7205 5.43822 6.74 5.43672 6.75837C5.32347 6.76325 5.26834 6.80412 5.16709 6.82775C5.06959 6.6755 5.32272 6.57425 5.44084 6.66425C5.44009 6.67662 5.43897 6.689 5.43934 6.70175ZM5.04709 6.74562C5.04709 6.75612 5.05234 6.7655 5.05984 6.7715C5.03809 6.78387 5.04147 6.821 5.06547 6.8285C5.06547 6.8285 5.06547 6.82887 5.06547 6.82925C5.06359 6.83187 5.06247 6.83487 5.06134 6.83825C4.97922 6.82925 4.87572 6.86337 4.79959 6.9155C4.74147 6.77412 4.92072 6.6995 5.06134 6.71862C5.05272 6.72425 5.04672 6.734 5.04672 6.74562H5.04709ZM5.02909 7.37675V7.3775C5.02909 7.3775 5.02834 7.3775 5.02797 7.37825C5.02797 7.37787 5.02872 7.37675 5.02909 7.37675Z" fill="#9B8028" style="fill:#9B8028;fill:color(display-p3 0.6078 0.5020 0.1569);fill-opacity:1;"/>
<path d="M6.92485 8.321C7.02797 8.07725 7.00022 8.1305 6.80522 8.02587V7.6985C6.8611 7.66137 6.76997 7.65312 6.82397 7.61037H6.85097V7.48325H6.47972V7.61037H6.50785C6.55885 7.64862 6.47372 7.66512 6.5266 7.6985V7.9835C6.3301 7.98087 6.23747 8.00825 6.27197 8.1995H6.2866L6.2926 8.213C6.3451 8.18937 6.4321 8.17287 6.5266 8.16837V8.25237C6.3826 8.26325 6.3691 8.48037 6.5266 8.55237V9.0365C6.50672 9.04287 6.50072 9.06987 6.5176 9.08262C6.52022 9.107 6.49585 9.11712 6.47522 9.11375C6.47522 9.1235 6.47522 9.20262 6.47522 9.21462C6.45872 9.22362 6.43285 9.22587 6.41147 9.22512V9.26562V9.30575V9.34587V9.38637V9.45612C6.5836 9.43062 6.7471 9.43062 6.91885 9.45612V9.22512C6.89747 9.22587 6.87235 9.22362 6.8551 9.21462C6.8551 9.20225 6.8551 9.12425 6.8551 9.11412C6.83485 9.11712 6.81085 9.10775 6.81272 9.08375C6.83072 9.07137 6.82547 9.04325 6.80485 9.0365V8.687C6.8191 8.69337 6.83222 8.70012 6.84422 8.70687C6.80485 8.7515 6.80972 8.82912 6.85585 8.86775L6.87722 8.84787C6.96047 8.7245 7.02572 8.56925 6.80485 8.51187V8.38062C6.87122 8.3735 6.91322 8.35287 6.92447 8.32137L6.92485 8.321Z" fill="#9B8028" style="fill:#9B8028;fill:color(display-p3 0.6078 0.5020 0.1569);fill-opacity:1;"/>
<path d="M4.75996 8.02174C4.70259 7.99849 4.61371 7.98499 4.51509 7.98349V7.69849C4.55034 7.68311 4.52784 7.65536 4.51021 7.63886C4.51771 7.62461 4.54471 7.61749 4.53121 7.59574H4.54734V7.49786H4.20534V7.59574H4.21996C4.20609 7.61786 4.23459 7.62499 4.24134 7.63886C4.22371 7.65461 4.20084 7.68311 4.23609 7.69849V8.02586C3.99459 8.07574 4.00696 8.30636 4.23609 8.38024V8.51149C4.01484 8.56924 4.08046 8.72411 4.16371 8.84749L4.18509 8.86736C4.23121 8.82874 4.23609 8.75111 4.19671 8.70649C4.20871 8.69974 4.22184 8.69299 4.23609 8.68661V9.03611C4.21546 9.04286 4.21021 9.07099 4.22821 9.08336C4.23009 9.10736 4.20609 9.11674 4.18584 9.11374C4.18584 9.12349 4.18584 9.20224 4.18584 9.21424C4.16896 9.22324 4.14346 9.22586 4.12209 9.22474V9.37511V9.45574C4.29421 9.43024 4.45771 9.43024 4.62909 9.45574V9.38599V9.34549V9.30536V9.26524V9.22474C4.60809 9.22549 4.58259 9.22324 4.56571 9.21424C4.56571 9.20186 4.56571 9.12386 4.56571 9.11336C4.54509 9.11636 4.52109 9.10661 4.52334 9.08224C4.54021 9.06949 4.53459 9.04211 4.51434 9.03574V8.55199C4.67221 8.47999 4.65796 8.26249 4.51434 8.25199V8.16799C4.72996 8.18111 4.81284 8.28574 4.75921 8.02099L4.75996 8.02174Z" fill="#9B8028" style="fill:#9B8028;fill:color(display-p3 0.6078 0.5020 0.1569);fill-opacity:1;"/>
<path d="M6.32424 7.44986H4.71924L4.72036 8.41436V8.97123C4.72036 9.13323 4.80511 9.27948 4.94199 9.35336C5.11936 9.44786 5.32599 9.49998 5.52399 9.49998C5.72199 9.49998 5.92299 9.44936 6.10299 9.35336C6.23949 9.27948 6.32461 9.13323 6.32461 8.97123L6.32424 7.44986Z" fill="#A0251E" style="fill:#A0251E;fill:color(display-p3 0.6275 0.1451 0.1176);fill-opacity:1;"/>
</svg>
