<svg width="16" height="16" viewBox="0 0 16 16" fill="none" xmlns="http://www.w3.org/2000/svg">
<rect x="2" y="3.5" width="12" height="9" fill="#071B65" style="fill:#071B65;fill:color(display-p3 0.0275 0.1059 0.3961);fill-opacity:1;"/>
<path d="M8 6.55493L12.125 3.5H14V5L9.94971 8L14 11V12.5H12.125L8 9.44434L3.875 12.5H2V11L6.04956 8L2 5V3.5H3.875L8 6.55493Z" fill="#F2F2F2" style="fill:#F2F2F2;fill:color(display-p3 0.9490 0.9490 0.9490);fill-opacity:1;"/>
<path d="M8 8V8.69434L2.92578 12.5H2V12.4443L7.53125 8.34717L2 4.25V3.5L8 8Z" fill="#B92932" style="fill:#B92932;fill:color(display-p3 0.7255 0.1608 0.1961);fill-opacity:1;"/>
<path d="M14 3.5L8.43066 7.625L14 11.75V12.5L8 8V7.25L13.0002 3.5H14Z" fill="#B92932" style="fill:#B92932;fill:color(display-p3 0.7255 0.1608 0.1961);fill-opacity:1;"/>
<path d="M9.125 3.5V6.875H14V9.125H9.125V12.5H6.875V9.125H2V6.875H6.875V3.5H9.125Z" fill="#F2F2F2" style="fill:#F2F2F2;fill:color(display-p3 0.9490 0.9490 0.9490);fill-opacity:1;"/>
<path d="M8.75 3.5V7.25H14V8.75H8.75V12.5H7.25V8.75H2V7.25H7.25V3.5H8.75Z" fill="#B92932" style="fill:#B92932;fill:color(display-p3 0.7255 0.1608 0.1961);fill-opacity:1;"/>
</svg>
